QalamBadi-Meem.ufo
<glyph name="ampersand" format="2">
  <advance width="1228"/>
  <unicode hex="0026"/>
  <outline>
    <contour>
      <point x="264.0" y="920.0" type="curve" smooth="yes"/>
      <point x="264.0" y="814.8869018554688"/>
      <point x="297.4046325683594" y="735.7551879882812"/>
      <point x="331.33160583496095" y="692.6865063476563" type="curve" smooth="yes"/>
      <point x="344.3525441955567" y="676.157043359375"/>
      <point x="340.78798217594465" y="650.551797532583"/>
      <point x="323.74743132514817" y="638.2072599076732" type="curve" smooth="yes"/>
      <point x="238.81039428710938" y="576.6770629882812"/>
      <point x="157.0" y="472.4951477050781"/>
      <point x="157.0" y="320.0" type="curve" smooth="yes"/>
      <point x="157.0" y="136.0"/>
      <point x="288.0" y="-22.0"/>
      <point x="516.0" y="-22.0" type="curve" smooth="yes"/>
      <point x="644.7356567382812" y="-22.0"/>
      <point x="749.0641479492188" y="38.045814514160156"/>
      <point x="802.1540044384819" y="99.6038821068864" type="curve" smooth="yes"/>
      <point x="818.768837774563" y="118.86889996865457"/>
      <point x="848.7155338801676" y="119.29389973018436"/>
      <point x="865.8703791312576" y="100.5081369186519" type="curve" smooth="yes"/>
      <point x="954.0" y="4.0" type="line" smooth="yes"/>
      <point x="980.0" y="-24.0"/>
      <point x="1006.0" y="-24.0"/>
      <point x="1049.0" y="0.0" type="curve" smooth="yes"/>
      <point x="1097.0" y="27.0"/>
      <point x="1104.0" y="56.0"/>
      <point x="1073.0" y="90.0" type="curve" smooth="yes"/>
      <point x="950.4269071391367" y="224.25722054196982" type="line" smooth="yes"/>
      <point x="933.794843132738" y="242.4747153710344"/>
      <point x="929.9219195922851" y="277.60968036499025"/>
      <point x="942.1866442871094" y="299.01246520996096" type="curve" smooth="yes"/>
      <point x="974.1432495117188" y="354.7789306640625"/>
      <point x="1018.072265625" y="469.1168518066406"/>
      <point x="1053.0" y="591.0" type="curve" smooth="yes"/>
      <point x="1066.0" y="637.0"/>
      <point x="1058.0" y="664.0"/>
      <point x="998.0" y="673.0" type="curve" smooth="yes"/>
      <point x="944.0" y="681.0"/>
      <point x="921.0" y="673.0"/>
      <point x="908.0" y="628.0" type="curve" smooth="yes"/>
      <point x="883.564697265625" y="537.58935546875"/>
      <point x="853.1585693359375" y="449.12841796875"/>
      <point x="831.1964147949219" y="404.55217529296874" type="curve" smooth="yes"/>
      <point x="822.7674913452148" y="387.4441207763672"/>
      <point x="803.8895574517968" y="384.76305382536844"/>
      <point x="791.0305980004154" y="398.84777752488634" type="curve" smooth="yes"/>
      <point x="517.0" y="699.0" type="line" smooth="yes"/>
      <point x="454.0" y="769.0"/>
      <point x="418.0" y="832.0"/>
      <point x="418.0" y="920.0" type="curve" smooth="yes"/>
      <point x="418.0" y="1028.0"/>
      <point x="491.0" y="1121.0"/>
      <point x="617.0" y="1121.0" type="curve" smooth="yes"/>
      <point x="701.0" y="1121.0"/>
      <point x="778.0" y="1095.0"/>
      <point x="846.0" y="1050.0" type="curve" smooth="yes"/>
      <point x="875.0" y="1031.0"/>
      <point x="906.0" y="1031.0"/>
      <point x="933.0" y="1081.0" type="curve" smooth="yes"/>
      <point x="960.0" y="1132.0"/>
      <point x="951.0" y="1160.0"/>
      <point x="915.0" y="1182.0" type="curve" smooth="yes"/>
      <point x="829.0" y="1236.0"/>
      <point x="729.0" y="1269.0"/>
      <point x="618.0" y="1269.0" type="curve" smooth="yes"/>
      <point x="401.0" y="1269.0"/>
      <point x="264.0" y="1116.0"/>
    </contour>
    <contour>
      <point x="708.4712177177452" y="272.87132270032043" type="line" smooth="yes"/>
      <point x="722.5146510382777" y="257.492774537803"/>
      <point x="723.2858420043946" y="229.5514502105713"/>
      <point x="710.1120495605469" y="213.42169647216798" type="curve" smooth="yes"/>
      <point x="675.7868041992188" y="171.3944854736328"/>
      <point x="603.7393798828125" y="126.0"/>
      <point x="516.0" y="126.0" type="curve" smooth="yes"/>
      <point x="396.0" y="126.0"/>
      <point x="311.0" y="204.0"/>
      <point x="311.0" y="320.0" type="curve" smooth="yes"/>
      <point x="311.0" y="417.8015441894531"/>
      <point x="357.9942626953125" y="486.0810546875"/>
      <point x="412.4289680994182" y="526.2621153305607" type="curve" smooth="yes"/>
      <point x="432.8967822430547" y="541.3704634924729"/>
      <point x="466.26027244546344" y="538.1093597487582"/>
      <point x="483.4151174662454" y="519.3235967269122" type="curve" smooth="yes"/>
    </contour>
  </outline>
</glyph>
<glyph name="zero" format="2">
  <advance width="1228"/>
  <unicode hex="0030"/>
  <outline>
    <contour>
      <point x="190.0" y="593.0" type="curve" smooth="yes"/>
      <point x="190.0" y="223.0"/>
      <point x="354.0" y="-22.0"/>
      <point x="614.0" y="-22.0" type="curve" smooth="yes"/>
      <point x="874.0" y="-22.0"/>
      <point x="1038.0" y="223.0"/>
      <point x="1038.0" y="593.0" type="curve" smooth="yes"/>
      <point x="1038.0" y="963.0"/>
      <point x="874.0" y="1209.0"/>
      <point x="614.0" y="1209.0" type="curve" smooth="yes"/>
      <point x="354.0" y="1209.0"/>
      <point x="190.0" y="963.0"/>
    </contour>
    <contour>
      <point x="375.366143000809" y="429.95637075746254" type="line" smooth="yes"/>
      <point x="367.31044750090757" y="420.9444240655777"/>
      <point x="358.08987892456054" y="423.4687478088379"/>
      <point x="355.7479119873047" y="435.3272723388672" type="curve" smooth="yes"/>
      <point x="349.645751953125" y="466.2254943847656"/>
      <point x="344.0" y="526.39013671875"/>
      <point x="344.0" y="593.0" type="curve" smooth="yes"/>
      <point x="344.0" y="891.0"/>
      <point x="457.0" y="1061.0"/>
      <point x="614.0" y="1061.0" type="curve" smooth="yes"/>
      <point x="697.3623046875" y="1061.0"/>
      <point x="768.3197021484375" y="1013.072021484375"/>
      <point x="796.2893383789062" y="961.1221960449219" type="curve" smooth="yes"/>
      <point x="807.0238918701172" y="941.184211315918"/>
      <point x="803.1606156750344" y="908.5321787519775"/>
      <point x="788.0696017936237" y="891.6497863344102" type="curve" smooth="yes"/>
    </contour>
    <contour>
      <point x="884.0" y="593.0" type="curve" smooth="yes"/>
      <point x="884.0" y="295.0"/>
      <point x="771.0" y="126.0"/>
      <point x="614.0" y="126.0" type="curve" smooth="yes"/>
      <point x="530.8135986328125" y="126.0"/>
      <point x="459.9798278808594" y="173.44515991210938"/>
      <point x="432.0137139892578" y="225.0305206298828" type="curve" smooth="yes"/>
      <point x="421.28051234741207" y="244.82862631225586"/>
      <point x="425.06816552657745" y="277.2781397089829"/>
      <point x="440.07255054067343" y="294.0720384952595" type="curve" smooth="yes"/>
      <point x="852.6891053102557" y="755.899740985739" type="line" smooth="yes"/>
      <point x="860.7432905065624" y="764.9145170572426"/>
      <point x="869.9558750976563" y="762.3903951293945"/>
      <point x="872.2903491210938" y="750.5292687988281" type="curve" smooth="yes"/>
      <point x="878.3729858398438" y="719.624267578125"/>
      <point x="884.0" y="659.4991455078125"/>
    </contour>
  </outline>
</glyph>
<glyph name="one" format="2">
  <advance width="1228"/>
  <unicode hex="0031"/>
  <outline>
    <contour>
      <point x="453.16340566901323" y="968.0" type="line" smooth="yes"/>
      <point x="442.23542507175034" y="950.0"/>
      <point x="437.4999668129364" y="915.0"/>
      <point x="446.9708833305643" y="870.0" type="curve" smooth="yes"/>
      <point x="456.80606586810086" y="823.0"/>
      <point x="468.82684452509005" y="823.0"/>
      <point x="478.2977610427179" y="839.0" type="curve" smooth="yes"/>
      <point x="544.7572647524759" y="952.5718720225201" type="line" smooth="yes"/>
      <point x="557.6059144336637" y="974.5287798505844"/>
      <point x="569.0" y="971.44"/>
      <point x="569.0" y="946.0" type="curve" smooth="yes"/>
      <point x="569.0" y="185.15477492929207" type="line" smooth="yes"/>
      <point x="569.0" y="163.34274421676727"/>
      <point x="549.6572557832327" y="144.0"/>
      <point x="527.8452250707079" y="144.0" type="curve" smooth="yes"/>
      <point x="471.01244064454266" y="144.0" type="line" smooth="yes"/>
      <point x="454.6204697486483" y="144.0"/>
      <point x="448.0636813902905" y="124.0"/>
      <point x="448.0636813902905" y="72.0" type="curve" smooth="yes"/>
      <point x="448.0636813902905" y="20.0"/>
      <point x="454.6204697486483" y="0.0"/>
      <point x="471.01244064454266" y="0.0" type="curve" smooth="yes"/>
      <point x="811.8878350767346" y="0.0" type="line" smooth="yes"/>
      <point x="828.279805972629" y="0.0"/>
      <point x="834.8365943309868" y="20.0"/>
      <point x="834.8365943309868" y="72.0" type="curve" smooth="yes"/>
      <point x="834.8365943309868" y="124.0"/>
      <point x="828.279805972629" y="144.0"/>
      <point x="811.8878350767346" y="144.0" type="curve" smooth="yes"/>
      <point x="758.0128907322286" y="144.0" type="line" smooth="yes"/>
      <point x="737.3360586441474" y="144.0"/>
      <point x="719.0" y="162.3360586441474"/>
      <point x="719.0" y="183.01289073222853" type="curve" smooth="yes"/>
      <point x="719.0" y="1157.0" type="line" smooth="yes"/>
      <point x="719.0" y="1211.0"/>
      <point x="668.0" y="1224.0"/>
      <point x="628.0" y="1200.0" type="curve" smooth="yes"/>
    </contour>
  </outline>
</glyph>
<glyph name="I" format="2">
  <advance width="1228"/>
  <unicode hex="0049"/>
  <outline>
    <contour>
      <point x="456.64778761061945" y="144.0" type="line" smooth="yes"/>
      <point x="443.220796460177" y="144.0"/>
      <point x="437.85" y="124.0"/>
      <point x="437.85" y="72.0" type="curve" smooth="yes"/>
      <point x="437.85" y="20.0"/>
      <point x="443.220796460177" y="0.0"/>
      <point x="456.64778761061945" y="0.0" type="curve" smooth="yes"/>
      <point x="771.3522123893805" y="0.0" type="line" smooth="yes"/>
      <point x="784.779203539823" y="0.0"/>
      <point x="790.15" y="20.0"/>
      <point x="790.15" y="72.0" type="curve" smooth="yes"/>
      <point x="790.15" y="124.0"/>
      <point x="784.779203539823" y="144.0"/>
      <point x="771.3522123893805" y="144.0" type="curve" smooth="yes"/>
      <point x="723.5879292035398" y="144.0" type="line" smooth="yes"/>
      <point x="705.2563267256637" y="144.0"/>
      <point x="689.0" y="160.2563267256637"/>
      <point x="689.0" y="178.5879292035398" type="curve" smooth="yes"/>
      <point x="689.0" y="1010.918442477876" type="line" smooth="yes"/>
      <point x="689.0" y="1027.9216679646017"/>
      <point x="704.0783320353983" y="1043.0"/>
      <point x="721.081557522124" y="1043.0" type="curve" smooth="yes"/>
      <point x="765.3846607669617" y="1043.0" type="line" smooth="yes"/>
      <point x="778.8116519174041" y="1043.0"/>
      <point x="784.1824483775811" y="1063.0"/>
      <point x="784.1824483775811" y="1115.0" type="curve" smooth="yes"/>
      <point x="784.1824483775811" y="1167.0"/>
      <point x="778.8116519174041" y="1187.0"/>
      <point x="765.3846607669617" y="1187.0" type="curve" smooth="yes"/>
      <point x="462.61533923303836" y="1187.0" type="line" smooth="yes"/>
      <point x="449.1883480825959" y="1187.0"/>
      <point x="443.8175516224189" y="1167.0"/>
      <point x="443.8175516224189" y="1115.0" type="curve" smooth="yes"/>
      <point x="443.8175516224189" y="1063.0"/>
      <point x="449.1883480825959" y="1043.0"/>
      <point x="462.61533923303836" y="1043.0" type="curve" smooth="yes"/>
      <point x="506.9184424778761" y="1043.0" type="line" smooth="yes"/>
      <point x="523.9216679646017" y="1043.0"/>
      <point x="539.0" y="1027.9216679646017"/>
      <point x="539.0" y="1010.9184424778762" type="curve" smooth="yes"/>
      <point x="539.0" y="178.58792920353983" type="line" smooth="yes"/>
      <point x="539.0" y="160.2563267256637"/>
      <point x="522.7436732743363" y="144.0"/>
      <point x="504.41207079646017" y="144.0" type="curve" smooth="yes"/>
    </contour>
  </outline>
</glyph>
<glyph name="K" format="2">
  <advance width="1228"/>
  <unicode hex="004B"/>
  <outline>
    <contour>
      <point x="289.0" y="1197.0" type="line" smooth="yes"/>
      <point x="233.0" y="1197.0"/>
      <point x="215.0" y="1178.0"/>
      <point x="215.0" y="1132.0" type="curve" smooth="yes"/>
      <point x="215.0" y="55.0" type="line" smooth="yes"/>
      <point x="215.0" y="9.0"/>
      <point x="233.0" y="-10.0"/>
      <point x="289.0" y="-10.0" type="curve" smooth="yes"/>
      <point x="291.0" y="-10.0" type="line" smooth="yes"/>
      <point x="347.0" y="-10.0"/>
      <point x="365.0" y="9.0"/>
      <point x="365.0" y="55.0" type="curve" smooth="yes"/>
      <point x="365.0" y="317.58740234375" type="line" smooth="yes"/>
      <point x="365.0" y="343.02740234375"/>
      <point x="380.490879322917" y="381.9882028669813"/>
      <point x="397.9593177083341" y="400.48272260594416" type="curve" smooth="yes"/>
      <point x="505.9985680338534" y="514.8681074721809" type="line" smooth="yes"/>
      <point x="523.4670064192704" y="533.3626272111437"/>
      <point x="552.6249188151701" y="531.8144498531138"/>
      <point x="568.0366795144909" y="511.5741130933939" type="curve" smooth="yes"/>
      <point x="953.0" y="6.0" type="line" smooth="yes"/>
      <point x="978.0" y="-27.0"/>
      <point x="1008.0" y="-25.0"/>
      <point x="1052.0" y="0.0" type="curve" smooth="yes"/>
      <point x="1101.0" y="28.0"/>
      <point x="1106.0" y="55.0"/>
      <point x="1078.0" y="92.0" type="curve" smooth="yes"/>
      <point x="673.0883536992268" y="622.7863640119109" type="line" smooth="yes"/>
      <point x="657.6584897396132" y="643.0129034635278"/>
      <point x="659.4662822191746" y="677.350446458662"/>
      <point x="676.9347206770169" y="695.8449661292177" type="curve" smooth="yes"/>
      <point x="1053.0" y="1094.0" type="line" smooth="yes"/>
      <point x="1085.0" y="1127.0"/>
      <point x="1083.0" y="1156.0"/>
      <point x="1036.0" y="1187.0" type="curve" smooth="yes"/>
      <point x="996.0" y="1213.0"/>
      <point x="959.0" y="1216.0"/>
      <point x="936.0" y="1191.0" type="curve" smooth="yes"/>
      <point x="397.8857124940109" y="618.8669779624969" type="line" smooth="yes"/>
      <point x="380.4562848721851" y="600.3356894812407"/>
      <point x="365.0" y="606.4622827148437"/>
      <point x="365.0" y="631.9022827148438" type="curve" smooth="yes"/>
      <point x="365.0" y="1132.0" type="line" smooth="yes"/>
      <point x="365.0" y="1178.0"/>
      <point x="347.0" y="1197.0"/>
      <point x="291.0" y="1197.0" type="curve" smooth="yes"/>
    </contour>
  </outline>
</glyph>
<glyph name="b" format="2">
  <advance width="1228"/>
  <unicode hex="0062"/>
  <outline>
    <contour>
      <point x="266.0" y="1322.0" type="line" smooth="yes"/>
      <point x="210.0" y="1322.0"/>
      <point x="192.0" y="1303.0"/>
      <point x="192.0" y="1257.0" type="curve" smooth="yes"/>
      <point x="192.0" y="55.0" type="line" smooth="yes"/>
      <point x="192.0" y="9.0"/>
      <point x="208.0" y="-10.0"/>
      <point x="261.0" y="-10.0" type="curve" smooth="yes"/>
      <point x="263.0" y="-10.0" type="line" smooth="yes"/>
      <point x="316.0" y="-10.0"/>
      <point x="332.0" y="9.0"/>
      <point x="332.0" y="55.0" type="curve" smooth="yes"/>
      <point x="332.0" y="108.94" type="line" smooth="yes"/>
      <point x="332.0" y="129.6418"/>
      <point x="343.16684880465056" y="133.42862412076082"/>
      <point x="355.7592527758523" y="116.99707259736343" type="curve" smooth="yes"/>
      <point x="414.0" y="41.0"/>
      <point x="526.0" y="-22.0"/>
      <point x="659.0" y="-22.0" type="curve" smooth="yes"/>
      <point x="906.0" y="-22.0"/>
      <point x="1089.0" y="160.0"/>
      <point x="1089.0" y="462.0" type="curve" smooth="yes"/>
      <point x="1089.0" y="764.0"/>
      <point x="906.0" y="946.0"/>
      <point x="659.0" y="946.0" type="curve" smooth="yes"/>
      <point x="526.0" y="946.0"/>
      <point x="422.0" y="883.0"/>
      <point x="371.6227168886929" y="818.7689640330834" type="curve" smooth="yes"/>
      <point x="355.92267693768565" y="798.7514130955492"/>
      <point x="342.0" y="803.56"/>
      <point x="342.0" y="829.0" type="curve" smooth="yes"/>
      <point x="342.0" y="1257.0" type="line" smooth="yes"/>
      <point x="342.0" y="1303.0"/>
      <point x="324.0" y="1322.0"/>
      <point x="268.0" y="1322.0" type="curve" smooth="yes"/>
    </contour>
    <contour>
      <point x="935.0" y="462.0" type="curve" smooth="yes"/>
      <point x="935.0" y="266.0"/>
      <point x="830.0" y="126.0"/>
      <point x="649.0" y="126.0" type="curve" smooth="yes"/>
      <point x="472.0" y="126.0"/>
      <point x="342.0" y="250.0"/>
      <point x="342.0" y="462.0" type="curve" smooth="yes"/>
      <point x="342.0" y="674.0"/>
      <point x="472.0" y="798.0"/>
      <point x="649.0" y="798.0" type="curve" smooth="yes"/>
      <point x="830.0" y="798.0"/>
      <point x="935.0" y="658.0"/>
    </contour>
  </outline>
</glyph>
<glyph name="q" format="2">
  <advance width="1228"/>
  <unicode hex="0071"/>
  <outline>
    <contour>
      <point x="139.0" y="462.0" type="curve" smooth="yes"/>
      <point x="139.0" y="160.0"/>
      <point x="322.0" y="-22.0"/>
      <point x="569.0" y="-22.0" type="curve" smooth="yes"/>
      <point x="702.0" y="-22.0"/>
      <point x="806.0" y="41.0"/>
      <point x="856.3772831113071" y="105.23103596691658" type="curve" smooth="yes"/>
      <point x="872.0773230623143" y="125.24858690445079"/>
      <point x="886.0" y="120.44"/>
      <point x="886.0" y="95.0" type="curve" smooth="yes"/>
      <point x="886.0" y="-333.0" type="line" smooth="yes"/>
      <point x="886.0" y="-379.0"/>
      <point x="904.0" y="-398.0"/>
      <point x="960.0" y="-398.0" type="curve" smooth="yes"/>
      <point x="962.0" y="-398.0" type="line" smooth="yes"/>
      <point x="1018.0" y="-398.0"/>
      <point x="1036.0" y="-379.0"/>
      <point x="1036.0" y="-333.0" type="curve" smooth="yes"/>
      <point x="1036.0" y="869.0" type="line" smooth="yes"/>
      <point x="1036.0" y="915.0"/>
      <point x="1020.0" y="934.0"/>
      <point x="967.0" y="934.0" type="curve" smooth="yes"/>
      <point x="965.0" y="934.0" type="line" smooth="yes"/>
      <point x="912.0" y="934.0"/>
      <point x="896.0" y="915.0"/>
      <point x="896.0" y="869.0" type="curve" smooth="yes"/>
      <point x="896.0" y="815.06" type="line" smooth="yes"/>
      <point x="896.0" y="794.3582"/>
      <point x="884.8331511953494" y="790.5713758792392"/>
      <point x="872.2407472241476" y="807.0029274026366" type="curve" smooth="yes"/>
      <point x="814.0" y="883.0"/>
      <point x="702.0" y="946.0"/>
      <point x="569.0" y="946.0" type="curve" smooth="yes"/>
      <point x="322.0" y="946.0"/>
      <point x="139.0" y="764.0"/>
    </contour>
    <contour>
      <point x="886.0" y="462.0" type="curve" smooth="yes"/>
      <point x="886.0" y="250.0"/>
      <point x="756.0" y="126.0"/>
      <point x="579.0" y="126.0" type="curve" smooth="yes"/>
      <point x="398.0" y="126.0"/>
      <point x="293.0" y="266.0"/>
      <point x="293.0" y="462.0" type="curve" smooth="yes"/>
      <point x="293.0" y="658.0"/>
      <point x="398.0" y="798.0"/>
      <point x="579.0" y="798.0" type="curve" smooth="yes"/>
      <point x="756.0" y="798.0"/>
      <point x="886.0" y="674.0"/>
    </contour>
  </outline>
</glyph>
<glyph name="w" format="2">
  <advance width="1228"/>
  <unicode hex="0077"/>
  <outline>
    <contour>
      <point x="1023.0" y="883.0" type="curve" smooth="yes"/>
      <point x="875.0364407204572" y="256.7139912255829" type="line" smooth="yes"/>
      <point x="869.1871271386149" y="231.95557587602397"/>
      <point x="856.9624885805938" y="231.4342490659628"/>
      <point x="849.026571448072" y="255.6047852467294" type="curve" smooth="yes"/>
      <point x="689.0" y="743.0" type="line" smooth="yes"/>
      <point x="680.0" y="769.0"/>
      <point x="658.0" y="790.0"/>
      <point x="614.0" y="790.0" type="curve" smooth="yes"/>
      <point x="570.0" y="790.0"/>
      <point x="548.0" y="769.0"/>
      <point x="539.0" y="743.0" type="curve" smooth="yes"/>
      <point x="378.973428551928" y="255.6047852467294" type="line" smooth="yes"/>
      <point x="371.03751141940614" y="231.4342490659628"/>
      <point x="358.81287286138513" y="231.95557587602397"/>
      <point x="352.96355927954284" y="256.7139912255829" type="curve" smooth="yes"/>
      <point x="205.0" y="883.0" type="line" smooth="yes"/>
      <point x="194.0" y="930.0"/>
      <point x="173.0" y="941.0"/>
      <point x="118.0" y="930.0" type="curve" smooth="yes"/>
      <point x="62.0" y="919.0"/>
      <point x="50.0" y="896.0"/>
      <point x="62.0" y="849.0" type="curve" smooth="yes"/>
      <point x="261.0" y="43.0" type="line" smooth="yes"/>
      <point x="273.0" y="-4.0"/>
      <point x="292.0" y="-22.0"/>
      <point x="343.0" y="-22.0" type="curve" smooth="yes"/>
      <point x="400.0" y="-22.0"/>
      <point x="430.0" y="-3.0"/>
      <point x="445.0" y="43.0" type="curve" smooth="yes"/>
      <point x="598.9546709228598" y="509.41888468937424" type="line" smooth="yes"/>
      <point x="606.9286953337441" y="533.5768758040059"/>
      <point x="621.0713046662559" y="533.5768758040059"/>
      <point x="629.0453290771402" y="509.41888468937424" type="curve" smooth="yes"/>
      <point x="783.0" y="43.0" type="line" smooth="yes"/>
      <point x="798.0" y="-3.0"/>
      <point x="828.0" y="-22.0"/>
      <point x="885.0" y="-22.0" type="curve" smooth="yes"/>
      <point x="936.0" y="-22.0"/>
      <point x="955.0" y="-4.0"/>
      <point x="967.0" y="43.0" type="curve" smooth="yes"/>
      <point x="1166.0" y="849.0" type="line" smooth="yes"/>
      <point x="1178.0" y="896.0"/>
      <point x="1166.0" y="919.0"/>
      <point x="1110.0" y="930.0" type="curve" smooth="yes"/>
      <point x="1055.0" y="941.0"/>
      <point x="1034.0" y="930.0"/>
    </contour>
  </outline>
</glyph>
<glyph name="uni01EB" format="2">
  <advance width="1228"/>
  <unicode hex="01EB"/>
  <outline>
    <contour>
      <point x="956.0" y="442.0" type="curve" smooth="yes"/>
      <point x="956.0" y="698.0"/>
      <point x="766.0" y="901.0"/>
      <point x="537.0" y="901.0" type="curve" smooth="yes"/>
      <point x="307.0" y="901.0"/>
      <point x="117.0" y="698.0"/>
      <point x="117.0" y="442.0" type="curve" smooth="yes"/>
      <point x="117.0" y="207.0"/>
      <point x="276.0" y="27.0"/>
      <point x="438.25909436561915" y="-0.1804574318042178" type="curve" smooth="yes"/>
      <point x="456.671774351841" y="-3.2648149929479824"/>
      <point x="460.169" y="-16.4622"/>
      <point x="445.7" y="-28.259999999999998" type="curve" smooth="yes"/>
      <point x="408.0" y="-59.0"/>
      <point x="352.0" y="-139.0"/>
      <point x="352.0" y="-221.0" type="curve" smooth="yes"/>
      <point x="352.0" y="-309.0"/>
      <point x="426.0" y="-416.0"/>
      <point x="555.0" y="-416.0" type="curve" smooth="yes"/>
      <point x="633.0" y="-416.0"/>
      <point x="711.0" y="-362.0"/>
      <point x="760.0" y="-295.0" type="curve" smooth="yes"/>
      <point x="774.0" y="-276.0"/>
      <point x="766.0" y="-233.0"/>
      <point x="750.0" y="-219.0" type="curve"/>
      <point x="731.0" y="-209.0"/>
      <point x="686.0" y="-217.0"/>
      <point x="674.0" y="-229.0" type="curve"/>
      <point x="651.0" y="-262.0"/>
      <point x="604.0" y="-305.0"/>
      <point x="563.0" y="-305.0" type="curve" smooth="yes"/>
      <point x="526.0" y="-305.0"/>
      <point x="473.0" y="-274.0"/>
      <point x="473.0" y="-225.0" type="curve" smooth="yes"/>
      <point x="473.0" y="-135.0"/>
      <point x="518.0" y="-55.0"/>
      <point x="560.92" y="-27.740000000000002" type="curve" smooth="yes"/>
      <point x="577.3924" y="-17.2778"/>
      <point x="609.1393996855329" y="-5.61242193435363"/>
      <point x="628.4668078415593" y="-2.920046668837511" type="curve" smooth="yes"/>
      <point x="793.0" y="20.0"/>
      <point x="956.0" y="205.0"/>
    </contour>
    <contour>
      <point x="815.0" y="457.0" type="curve" smooth="yes"/>
      <point x="815.0" y="266.0"/>
      <point x="688.0" y="113.0"/>
      <point x="537.0" y="113.0" type="curve" smooth="yes"/>
      <point x="385.0" y="113.0"/>
      <point x="258.0" y="266.0"/>
      <point x="258.0" y="457.0" type="curve" smooth="yes"/>
      <point x="258.0" y="643.0"/>
      <point x="391.0" y="776.0"/>
      <point x="537.0" y="776.0" type="curve" smooth="yes"/>
      <point x="684.0" y="776.0"/>
      <point x="815.0" y="643.0"/>
    </contour>
  </outline>
</glyph>
<glyph name="aringacute" format="2">
  <advance width="1228"/>
  <unicode hex="01FB"/>
  <outline>
    <contour>
      <point x="264.0" y="855.0" type="curve" smooth="yes"/>
      <point x="230.0" y="837.0"/>
      <point x="216.0" y="807.0"/>
      <point x="238.0" y="761.0" type="curve" smooth="yes"/>
      <point x="260.0" y="715.0"/>
      <point x="287.0" y="703.0"/>
      <point x="324.0" y="722.0" type="curve" smooth="yes"/>
      <point x="420.0" y="771.0"/>
      <point x="533.0" y="801.0"/>
      <point x="634.0" y="801.0" type="curve" smooth="yes"/>
      <point x="797.0" y="801.0"/>
      <point x="864.0" y="741.0"/>
      <point x="864.0" y="613.0" type="curve" smooth="yes"/>
      <point x="864.0" y="563.9090393066406" type="line" smooth="yes"/>
      <point x="864.0" y="545.0682671508789"/>
      <point x="848.2175773589084" y="533.8438001773922"/>
      <point x="830.4203773593796" y="540.0271946822007" type="curve" smooth="yes"/>
      <point x="770.1140747070312" y="560.9797973632812"/>
      <point x="668.2105712890625" y="579.0"/>
      <point x="560.0" y="579.0" type="curve" smooth="yes"/>
      <point x="341.0" y="579.0"/>
      <point x="159.0" y="494.0"/>
      <point x="159.0" y="270.0" type="curve" smooth="yes"/>
      <point x="159.0" y="84.0"/>
      <point x="299.0" y="-22.0"/>
      <point x="499.0" y="-22.0" type="curve" smooth="yes"/>
      <point x="643.3889770507812" y="-22.0"/>
      <point x="770.1728515625" y="33.59513473510742"/>
      <point x="852.2765216171771" y="104.59392762993811" type="curve" smooth="yes"/>
      <point x="863.7899651600733" y="114.55012804173498"/>
      <point x="874.0" y="109.88115509033203"/>
      <point x="874.0" y="94.65994262695312" type="curve" smooth="yes"/>
      <point x="874.0" y="55.0" type="line" smooth="yes"/>
      <point x="874.0" y="9.0"/>
      <point x="890.0" y="-10.0"/>
      <point x="943.0" y="-10.0" type="curve" smooth="yes"/>
      <point x="945.0" y="-10.0" type="line" smooth="yes"/>
      <point x="998.0" y="-10.0"/>
      <point x="1014.0" y="9.0"/>
      <point x="1014.0" y="55.0" type="curve" smooth="yes"/>
      <point x="1014.0" y="613.0" type="line" smooth="yes"/>
      <point x="1014.0" y="832.0"/>
      <point x="889.0" y="946.0"/>
      <point x="638.0" y="946.0" type="curve" smooth="yes"/>
      <point x="509.0" y="946.0"/>
      <point x="376.0" y="914.0"/>
    </contour>
    <contour>
      <point x="378.0" y="1311.0" type="curve" smooth="yes"/>
      <point x="378.0" y="1171.0"/>
      <point x="484.0" y="1065.0"/>
      <point x="624.0" y="1065.0" type="curve" smooth="yes"/>
      <point x="764.0" y="1065.0"/>
      <point x="870.0" y="1171.0"/>
      <point x="870.0" y="1311.0" type="curve" smooth="yes"/>
      <point x="870.0" y="1405.4163818359375"/>
      <point x="821.7892456054688" y="1484.3687744140625"/>
      <point x="778.6738354492187" y="1508.383125" type="curve" smooth="yes"/>
      <point x="762.1264383789062" y="1517.599667138672"/>
      <point x="761.9469086912526" y="1534.2602996385365"/>
      <point x="778.2918573903812" y="1543.831279255031" type="curve" smooth="yes"/>
      <point x="893.0" y="1611.0" type="line" smooth="yes"/>
      <point x="921.0" y="1627.0"/>
      <point x="927.0" y="1665.0"/>
      <point x="885.0" y="1718.0" type="curve" smooth="yes"/>
      <point x="848.0" y="1764.0"/>
      <point x="811.0" y="1768.0"/>
      <point x="781.0" y="1746.0" type="curve" smooth="yes"/>
      <point x="433.0" y="1490.0" type="line" smooth="yes"/>
      <point x="419.17559814453125" y="1479.493408203125"/>
      <point x="414.5246887207031" y="1465.01171875"/>
      <point x="416.46124938964846" y="1455.5816918945313" type="curve" smooth="yes"/>
      <point x="417.2044880187988" y="1451.9625126220703"/>
      <point x="416.0721507111177" y="1446.0097311732804"/>
      <point x="414.05202107543323" y="1442.9161994502977" type="curve" smooth="yes"/>
      <point x="392.5024108886719" y="1409.9161376953125"/>
      <point x="378.0" y="1362.783935546875"/>
    </contour>
    <contour>
      <point x="864.0" y="329.87051879882813" type="line" smooth="yes"/>
      <point x="864.0" y="305.75564560546877"/>
      <point x="849.1380238308511" y="268.99431243927916"/>
      <point x="832.3787741081939" y="251.65491631757368" type="curve" smooth="yes"/>
      <point x="766.090087890625" y="183.07154846191406"/>
      <point x="647.6165161132812" y="119.0"/>
      <point x="505.0" y="119.0" type="curve" smooth="yes"/>
      <point x="384.0" y="119.0"/>
      <point x="313.0" y="176.0"/>
      <point x="313.0" y="273.0" type="curve" smooth="yes"/>
      <point x="313.0" y="394.0"/>
      <point x="417.0" y="438.0"/>
      <point x="561.0" y="438.0" type="curve" smooth="yes"/>
      <point x="663.7448120117188" y="438.0"/>
      <point x="771.9198608398438" y="422.6141662597656"/>
      <point x="825.3263415527343" y="405.2659924316406" type="curve" smooth="yes"/>
      <point x="845.8233805297851" y="398.60788295898436"/>
      <point x="864.0" y="373.59198131689897"/>
      <point x="864.0" y="352.04066978890575" type="curve" smooth="yes"/>
    </contour>
    <contour>
      <point x="738.0" y="1311.0" type="curve" smooth="yes"/>
      <point x="738.0" y="1242.0"/>
      <point x="693.0" y="1197.0"/>
      <point x="624.0" y="1197.0" type="curve" smooth="yes"/>
      <point x="555.0" y="1197.0"/>
      <point x="510.0" y="1242.0"/>
      <point x="510.0" y="1311.0" type="curve" smooth="yes"/>
      <point x="510.0" y="1380.0"/>
      <point x="555.0" y="1425.0"/>
      <point x="624.0" y="1425.0" type="curve" smooth="yes"/>
      <point x="693.0" y="1425.0"/>
      <point x="738.0" y="1380.0"/>
    </contour>
  </outline>
</glyph>
<glyph name="Lambda" format="2">
  <advance width="1228"/>
  <unicode hex="039B"/>
  <outline>
    <contour>
      <point x="1016.0" y="61.0" type="curve" smooth="yes"/>
      <point x="1016.0" y="125.0"/>
      <point x="971.0" y="125.0"/>
      <point x="928.08" y="125.0" type="curve" smooth="yes"/>
      <point x="911.6076" y="125.0"/>
      <point x="893.741467851491" y="139.2395205676713"/>
      <point x="890.0669528755128" y="155.29685227164103" type="curve" smooth="yes"/>
      <point x="651.0" y="1200.0" type="line" smooth="yes"/>
      <point x="631.0" y="1276.0"/>
      <point x="582.0" y="1280.0"/>
      <point x="537.0" y="1280.0" type="curve" smooth="yes"/>
      <point x="496.0" y="1280.0"/>
      <point x="442.0" y="1276.0"/>
      <point x="426.0" y="1206.0" type="curve" smooth="yes"/>
      <point x="183.00295333296526" y="155.2807702117418" type="line" smooth="yes"/>
      <point x="179.29138806649368" y="139.23196199951866"/>
      <point x="161.3924" y="125.0"/>
      <point x="144.92000000000002" y="125.0" type="curve" smooth="yes"/>
      <point x="102.0" y="125.0"/>
      <point x="61.0" y="125.0"/>
      <point x="61.0" y="61.0" type="curve" smooth="yes"/>
      <point x="61.0" y="0.0"/>
      <point x="115.0" y="0.0"/>
      <point x="143.0" y="0.0" type="curve" smooth="yes"/>
      <point x="365.0" y="0.0" type="line" smooth="yes"/>
      <point x="397.0" y="0.0"/>
      <point x="451.0" y="0.0"/>
      <point x="451.0" y="61.0" type="curve" smooth="yes"/>
      <point x="451.0" y="125.0"/>
      <point x="397.0" y="125.0"/>
      <point x="365.0" y="125.0" type="curve" smooth="yes"/>
      <point x="341.22" y="125.0" type="line" smooth="yes"/>
      <point x="332.09340000000003" y="125.0"/>
      <point x="325.72398212533056" y="132.90765510069457"/>
      <point x="327.6680470751714" y="141.82479808658417" type="curve" smooth="yes"/>
      <point x="537.0" y="1102.0" type="line"/>
      <point x="749.9020139307868" y="143.45037967567427" type="line" smooth="yes"/>
      <point x="752.0739465474697" y="133.6716784475669"/>
      <point x="745.117" y="125.0"/>
      <point x="735.1" y="125.0" type="curve" smooth="yes"/>
      <point x="709.0" y="125.0" type="line" smooth="yes"/>
      <point x="680.0" y="125.0"/>
      <point x="627.0" y="125.0"/>
      <point x="627.0" y="63.0" type="curve" smooth="yes"/>
      <point x="627.0" y="0.0"/>
      <point x="676.0" y="0.0"/>
      <point x="709.0" y="0.0" type="curve" smooth="yes"/>
      <point x="930.0" y="0.0" type="line" smooth="yes"/>
      <point x="963.0" y="0.0"/>
      <point x="1016.0" y="0.0"/>
    </contour>
  </outline>
</glyph>
<glyph name="Tau" format="2">
  <advance width="1228"/>
  <unicode hex="03A4"/>
  <outline>
    <contour>
      <point x="1020.0" y="1018.0" type="curve" smooth="yes"/>
      <point x="1020.0" y="1167.0" type="line" smooth="yes"/>
      <point x="1020.0" y="1231.0"/>
      <point x="1008.0" y="1251.0"/>
      <point x="938.0" y="1251.0" type="curve" smooth="yes"/>
      <point x="139.0" y="1251.0" type="line" smooth="yes"/>
      <point x="70.0" y="1251.0"/>
      <point x="53.0" y="1235.0"/>
      <point x="53.0" y="1167.0" type="curve" smooth="yes"/>
      <point x="53.0" y="1018.0" type="line" smooth="yes"/>
      <point x="53.0" y="979.0"/>
      <point x="53.0" y="934.0"/>
      <point x="123.0" y="934.0" type="curve" smooth="yes"/>
      <point x="197.0" y="934.0"/>
      <point x="197.0" y="977.0"/>
      <point x="197.0" y="1018.0" type="curve" smooth="yes"/>
      <point x="197.0" y="1080.64" type="line" smooth="yes"/>
      <point x="197.0" y="1104.6808"/>
      <point x="218.3192" y="1126.0"/>
      <point x="242.36" y="1126.0" type="curve" smooth="yes"/>
      <point x="419.0" y="1126.0" type="line" smooth="yes"/>
      <point x="444.44" y="1126.0"/>
      <point x="467.0" y="1103.44"/>
      <point x="467.0" y="1078.0" type="curve" smooth="yes"/>
      <point x="467.0" y="169.94" type="line" smooth="yes"/>
      <point x="467.0" y="146.1218"/>
      <point x="445.8782" y="125.0"/>
      <point x="422.06" y="125.0" type="curve" smooth="yes"/>
      <point x="360.0" y="125.0" type="line" smooth="yes"/>
      <point x="332.0" y="125.0"/>
      <point x="279.0" y="125.0"/>
      <point x="279.0" y="63.0" type="curve" smooth="yes"/>
      <point x="279.0" y="0.0"/>
      <point x="328.0" y="0.0"/>
      <point x="360.0" y="0.0" type="curve" smooth="yes"/>
      <point x="717.0" y="0.0" type="line" smooth="yes"/>
      <point x="745.0" y="0.0"/>
      <point x="799.0" y="0.0"/>
      <point x="799.0" y="61.0" type="curve" smooth="yes"/>
      <point x="799.0" y="125.0"/>
      <point x="750.0" y="125.0"/>
      <point x="717.0" y="125.0" type="curve" smooth="yes"/>
      <point x="654.94" y="125.0" type="line" smooth="yes"/>
      <point x="631.1218" y="125.0"/>
      <point x="610.0" y="146.1218"/>
      <point x="610.0" y="169.94" type="curve" smooth="yes"/>
      <point x="610.0" y="1078.0" type="line" smooth="yes"/>
      <point x="610.0" y="1103.44"/>
      <point x="632.56" y="1126.0"/>
      <point x="658.0" y="1126.0" type="curve" smooth="yes"/>
      <point x="835.64" y="1126.0" type="line" smooth="yes"/>
      <point x="859.6808" y="1126.0"/>
      <point x="881.0" y="1104.6808"/>
      <point x="881.0" y="1080.64" type="curve" smooth="yes"/>
      <point x="881.0" y="1018.0" type="line" smooth="yes"/>
      <point x="881.0" y="979.0"/>
      <point x="881.0" y="934.0"/>
      <point x="950.0" y="934.0" type="curve" smooth="yes"/>
      <point x="1020.0" y="934.0"/>
      <point x="1020.0" y="977.0"/>
    </contour>
  </outline>
</glyph>
<glyph name="Phi" format="2">
  <advance width="1228"/>
  <unicode hex="03A6"/>
  <outline>
    <contour>
      <point x="991.0" y="625.0" type="curve" smooth="yes"/>
      <point x="991.0" y="778.0"/>
      <point x="831.0" y="911.0"/>
      <point x="657.7421471972029" y="929.0313602464449" type="curve" smooth="yes"/>
      <point x="632.4388091826854" y="931.6647393158291"/>
      <point x="610.0" y="956.56"/>
      <point x="610.0" y="982.0" type="curve" smooth="yes"/>
      <point x="610.0" y="1091.56" type="line" smooth="yes"/>
      <point x="610.0" y="1109.8132"/>
      <point x="626.1868000000001" y="1126.0"/>
      <point x="644.44" y="1126.0" type="curve" smooth="yes"/>
      <point x="692.0" y="1126.0" type="line" smooth="yes"/>
      <point x="725.0" y="1126.0"/>
      <point x="778.0" y="1126.0"/>
      <point x="778.0" y="1188.0" type="curve" smooth="yes"/>
      <point x="778.0" y="1251.0"/>
      <point x="725.0" y="1251.0"/>
      <point x="692.0" y="1251.0" type="curve" smooth="yes"/>
      <point x="385.0" y="1251.0" type="line" smooth="yes"/>
      <point x="352.0" y="1251.0"/>
      <point x="299.0" y="1251.0"/>
      <point x="299.0" y="1190.0" type="curve" smooth="yes"/>
      <point x="299.0" y="1126.0"/>
      <point x="352.0" y="1126.0"/>
      <point x="385.0" y="1126.0" type="curve" smooth="yes"/>
      <point x="432.56" y="1126.0" type="line" smooth="yes"/>
      <point x="450.8132" y="1126.0"/>
      <point x="467.0" y="1109.8132"/>
      <point x="467.0" y="1091.56" type="curve" smooth="yes"/>
      <point x="467.0" y="982.0" type="line" smooth="yes"/>
      <point x="467.0" y="956.56"/>
      <point x="444.5569532639628" y="931.7058218892051"/>
      <point x="419.24883673183575" y="929.1187699770321" type="curve" smooth="yes"/>
      <point x="242.0" y="911.0"/>
      <point x="82.0" y="774.0"/>
      <point x="82.0" y="627.0" type="curve" smooth="yes"/>
      <point x="82.0" y="471.0"/>
      <point x="250.0" y="338.0"/>
      <point x="419.2231993493456" y="321.6235613532891" type="curve" smooth="yes"/>
      <point x="444.54490369419244" y="319.1730738360459"/>
      <point x="467.0" y="294.44"/>
      <point x="467.0" y="269.0" type="curve" smooth="yes"/>
      <point x="467.0" y="159.44" type="line" smooth="yes"/>
      <point x="467.0" y="141.1868"/>
      <point x="450.8132" y="125.0"/>
      <point x="432.56" y="125.0" type="curve" smooth="yes"/>
      <point x="385.0" y="125.0" type="line" smooth="yes"/>
      <point x="352.0" y="125.0"/>
      <point x="299.0" y="125.0"/>
      <point x="299.0" y="63.0" type="curve" smooth="yes"/>
      <point x="299.0" y="0.0"/>
      <point x="352.0" y="0.0"/>
      <point x="385.0" y="0.0" type="curve" smooth="yes"/>
      <point x="692.0" y="0.0" type="line" smooth="yes"/>
      <point x="725.0" y="0.0"/>
      <point x="778.0" y="0.0"/>
      <point x="778.0" y="61.0" type="curve" smooth="yes"/>
      <point x="778.0" y="125.0"/>
      <point x="725.0" y="125.0"/>
      <point x="692.0" y="125.0" type="curve" smooth="yes"/>
      <point x="644.44" y="125.0" type="line" smooth="yes"/>
      <point x="626.1868000000001" y="125.0"/>
      <point x="610.0" y="141.1868"/>
      <point x="610.0" y="159.44" type="curve" smooth="yes"/>
      <point x="610.0" y="269.0" type="line" smooth="yes"/>
      <point x="610.0" y="294.44"/>
      <point x="632.423224383064" y="319.48044517511767"/>
      <point x="657.7089880490723" y="322.2775429257823" type="curve" smooth="yes"/>
      <point x="836.0" y="342.0"/>
      <point x="991.0" y="479.0"/>
    </contour>
    <contour>
      <point x="467.0" y="490.0" type="line" smooth="yes"/>
      <point x="467.0" y="464.56"/>
      <point x="444.66373100302326" y="445.16933546578724"/>
      <point x="419.47602341068784" y="448.7432669484835" type="curve" smooth="yes"/>
      <point x="319.0" y="463.0"/>
      <point x="225.0" y="541.0"/>
      <point x="225.0" y="625.0" type="curve" smooth="yes"/>
      <point x="225.0" y="715.0"/>
      <point x="328.0" y="791.0"/>
      <point x="419.39747157293505" y="802.8356438008117" type="curve" smooth="yes"/>
      <point x="444.6268116392795" y="806.1027525863815"/>
      <point x="467.0" y="786.44"/>
      <point x="467.0" y="761.0" type="curve" smooth="yes"/>
    </contour>
    <contour>
      <point x="852.0" y="627.0" type="curve" smooth="yes"/>
      <point x="852.0" y="530.0"/>
      <point x="737.0" y="461.0"/>
      <point x="657.4716831748848" y="449.1020628371875" type="curve" smooth="yes"/>
      <point x="632.3116910921958" y="445.3379695334781"/>
      <point x="610.0" y="464.56"/>
      <point x="610.0" y="490.0" type="curve" smooth="yes"/>
      <point x="610.0" y="761.0" type="line" smooth="yes"/>
      <point x="610.0" y="786.44"/>
      <point x="632.3621014394002" y="806.0183864747466"/>
      <point x="657.5789392327665" y="802.6561414356312" type="curve" smooth="yes"/>
      <point x="745.0" y="791.0"/>
      <point x="852.0" y="715.0"/>
    </contour>
  </outline>
</glyph>
<glyph name="delta" format="2">
  <advance width="1228"/>
  <unicode hex="03B4"/>
  <outline>
    <contour>
      <point x="152.0" y="1087.0" type="curve" smooth="yes"/>
      <point x="152.0" y="963.0"/>
      <point x="270.0" y="907.0"/>
      <point x="329.74" y="880.9" type="curve" smooth="yes"/>
      <point x="352.6678" y="870.883"/>
      <point x="353.00418400051893" y="852.3836915422343"/>
      <point x="330.45571063940196" y="841.5397692387963" type="curve" smooth="yes"/>
      <point x="242.0" y="799.0"/>
      <point x="94.0" y="639.0"/>
      <point x="94.0" y="442.0" type="curve" smooth="yes"/>
      <point x="94.0" y="233.0"/>
      <point x="250.0" y="-10.0"/>
      <point x="537.0" y="-10.0" type="curve" smooth="yes"/>
      <point x="836.0" y="-10.0"/>
      <point x="979.0" y="244.0"/>
      <point x="979.0" y="438.0" type="curve" smooth="yes"/>
      <point x="979.0" y="516.0"/>
      <point x="954.0" y="727.0"/>
      <point x="741.0" y="842.0" type="curve"/>
      <point x="532.0" y="930.0"/>
      <point x="274.0" y="1028.0"/>
      <point x="274.0" y="1087.0" type="curve" smooth="yes"/>
      <point x="274.0" y="1116.0"/>
      <point x="291.0" y="1169.0"/>
      <point x="352.0" y="1169.0" type="curve" smooth="yes"/>
      <point x="364.18" y="1169.0" type="line" smooth="yes"/>
      <point x="368.8546" y="1169.0"/>
      <point x="376.8223214871619" y="1167.3955687584753"/>
      <point x="381.1325989088551" y="1165.5863165073943" type="curve" smooth="yes"/>
      <point x="771.4164675499745" y="1001.7634580654428" type="line" smooth="yes"/>
      <point x="774.905739748488" y="1000.2988252907581"/>
      <point x="781.3558" y="999.0"/>
      <point x="785.14" y="999.0" type="curve" smooth="yes"/>
      <point x="795.0" y="999.0" type="line" smooth="yes"/>
      <point x="840.0" y="999.0"/>
      <point x="852.0" y="1053.0"/>
      <point x="852.0" y="1071.0" type="curve" smooth="yes"/>
      <point x="852.0" y="1118.0"/>
      <point x="602.0" y="1214.0"/>
      <point x="451.0" y="1276.0" type="curve" smooth="yes"/>
      <point x="397.0" y="1296.0"/>
      <point x="389.0" y="1300.0"/>
      <point x="348.0" y="1300.0" type="curve" smooth="yes"/>
      <point x="266.0" y="1300.0"/>
      <point x="152.0" y="1239.0"/>
    </contour>
    <contour>
      <point x="537.0" y="115.0" type="curve" smooth="yes"/>
      <point x="397.0" y="115.0"/>
      <point x="238.0" y="219.0"/>
      <point x="238.0" y="436.0" type="curve" smooth="yes"/>
      <point x="238.0" y="651.0"/>
      <point x="406.0" y="764.0"/>
      <point x="532.0" y="764.0" type="curve" smooth="yes"/>
      <point x="717.0" y="764.0"/>
      <point x="840.0" y="623.0"/>
      <point x="840.0" y="446.0" type="curve" smooth="yes"/>
      <point x="840.0" y="260.0"/>
      <point x="713.0" y="115.0"/>
    </contour>
  </outline>
</glyph>
<glyph name="uni03E0" format="2">
  <advance width="1228"/>
  <unicode hex="03E0"/>
  <outline>
    <contour>
      <point x="877.0" y="0.0" type="curve" smooth="yes"/>
      <point x="893.1430053710938" y="0.0"/>
      <point x="908.0181884765625" y="-0.13487768173217773"/>
      <point x="921.7022705078125" y="-0.25895532965660095" type="curve" smooth="yes"/>
      <point x="1025.8453369140625" y="-1.2032523155212402"/>
      <point x="1061.0" y="-1.522010087966919"/>
      <point x="1061.0" y="63.0" type="curve" smooth="yes"/>
      <point x="1061.0" y="82.0"/>
      <point x="1061.0" y="84.0"/>
      <point x="1055.0" y="96.0" type="curve"/>
      <point x="1035.98291015625" y="127.69514465332031"/>
      <point x="1011.225341796875" y="127.40766906738281"/>
      <point x="982.2125854492188" y="127.07079315185547" type="curve" smooth="yes"/>
      <point x="979.1874389648438" y="127.0356674194336"/>
      <point x="976.1160278320312" y="127.0"/>
      <point x="973.0" y="127.0" type="curve" smooth="yes"/>
      <point x="949.22" y="127.0" type="line" smooth="yes"/>
      <point x="940.0934" y="127.0"/>
      <point x="928.2749843797185" y="134.18521970357614"/>
      <point x="924.074434850465" y="142.28770149697053" type="curve" smooth="yes"/>
      <point x="299.0" y="1348.0" type="line"/>
      <point x="289.0" y="1360.0"/>
      <point x="274.0" y="1366.0"/>
      <point x="260.0" y="1366.0" type="curve" smooth="yes"/>
      <point x="250.0" y="1366.0"/>
      <point x="223.0" y="1360.0"/>
      <point x="209.0" y="1331.0" type="curve" smooth="yes"/>
      <point x="205.0" y="1323.0"/>
      <point x="205.0" y="1317.0"/>
      <point x="205.0" y="1280.0" type="curve" smooth="yes"/>
      <point x="205.0" y="1253.0"/>
      <point x="205.0" y="1235.0"/>
      <point x="207.0" y="1231.0" type="curve" smooth="yes"/>
      <point x="295.29731728548575" y="1056.813474082269" type="line" smooth="yes"/>
      <point x="306.7997391241783" y="1034.1223328186666"/>
      <point x="312.55818882507197" y="991.8815933330114"/>
      <point x="307.54933792568505" y="966.9395602830031" type="curve" smooth="yes"/>
      <point x="268.0" y="770.0"/>
      <point x="135.0" y="129.0"/>
      <point x="135.0" y="127.0" type="curve"/>
      <point x="98.0" y="127.0" type="line" smooth="yes"/>
      <point x="55.0" y="127.0"/>
      <point x="47.0" y="125.0"/>
      <point x="33.0" y="113.0" type="curve"/>
      <point x="16.0" y="100.0"/>
      <point x="14.0" y="90.0"/>
      <point x="14.0" y="63.0" type="curve" smooth="yes"/>
      <point x="14.0" y="-0.5762182474136353"/>
      <point x="42.01593780517578" y="-0.47985416650772095"/>
      <point x="160.6265411376953" y="-0.07187803089618683" type="curve" smooth="yes"/>
      <point x="170.74539184570312" y="-0.03707297891378403"/>
      <point x="181.52359008789062" y="0.0"/>
      <point x="193.0" y="0.0" type="curve" smooth="yes"/>
      <point x="461.0" y="0.0" type="line" smooth="yes"/>
      <point x="476.4300537109375" y="0.0"/>
      <point x="491.3108825683594" y="-0.36614590883255005"/>
      <point x="505.4555358886719" y="-0.7141785025596619" type="curve" smooth="yes"/>
      <point x="584.81396484375" y="-2.6668078899383545"/>
      <point x="641.0" y="-4.049276828765869"/>
      <point x="641.0" y="63.0" type="curve" smooth="yes"/>
      <point x="641.0" y="63.75546646118164"/>
      <point x="641.0008544921875" y="64.51093292236328"/>
      <point x="641.0016479492188" y="65.26603698730469" type="curve" smooth="yes"/>
      <point x="641.0416259765625" y="101.49301147460938"/>
      <point x="641.0806884765625" y="136.8774871826172"/>
      <point x="587.6738891601562" y="133.4685446166992" type="curve" smooth="yes"/>
      <point x="567.1767279052734" y="132.16021596984862"/>
      <point x="552.6386205985063" y="148.84656769743592"/>
      <point x="556.7417459542688" y="168.97142063284238" type="curve" smooth="yes"/>
      <point x="602.4108658778454" y="392.96758025800364" type="line" smooth="yes"/>
      <point x="607.4931069625874" y="417.8947627212617"/>
      <point x="622.4222947890543" y="419.99176741113666"/>
      <point x="634.17509529586" y="397.42929236412056" type="curve" smooth="yes"/>
      <point x="770.1000033818268" y="136.48703054476456" type="line" smooth="yes"/>
      <point x="772.1670015894586" y="132.51890435603934"/>
      <point x="770.052" y="128.6052"/>
      <point x="765.6" y="128.16" type="curve" smooth="yes"/>
      <point x="754.0" y="127.0" type="line" smooth="yes"/>
      <point x="700.0" y="123.0"/>
      <point x="692.0" y="98.0"/>
      <point x="692.0" y="63.0" type="curve" smooth="yes"/>
      <point x="692.0" y="-2.2057249546051025"/>
      <point x="734.3289184570312" y="-1.650484323501587"/>
      <point x="830.158447265625" y="-0.3934585452079773" type="curve" smooth="yes"/>
      <point x="844.5526123046875" y="-0.2046460211277008"/>
      <point x="860.1538696289062" y="0.0"/>
    </contour>
    <contour>
      <point x="516.0" y="625.0" type="curve"/>
      <point x="417.57104878713596" y="134.82382295993708" type="line" smooth="yes"/>
      <point x="416.7383929299539" y="130.67719679117042"/>
      <point x="412.2494" y="127.0"/>
      <point x="408.02" y="127.0" type="curve" smooth="yes"/>
      <point x="397.0" y="127.0"/>
      <point x="268.0" y="129.0"/>
      <point x="268.0" y="129.0" type="curve"/>
      <point x="268.0" y="133.0"/>
      <point x="408.0" y="811.0"/>
      <point x="412.0" y="825.0" type="curve"/>
      <point x="412.0" y="827.0" type="line"/>
      <point x="428.0" y="809.0"/>
      <point x="512.0" y="631.0"/>
    </contour>
  </outline>
</glyph>
<glyph name="uni0448" format="2">
  <advance width="1228"/>
  <unicode hex="0448"/>
  <outline>
    <contour>
      <point x="945.56" y="788.0" type="line" smooth="yes"/>
      <point x="952.6831999999999" y="788.0"/>
      <point x="959.0" y="781.6831999999999"/>
      <point x="959.0" y="774.56" type="curve" smooth="yes"/>
      <point x="959.0" y="184.0" type="line" smooth="yes"/>
      <point x="959.0" y="158.56"/>
      <point x="936.44" y="136.0"/>
      <point x="911.0" y="136.0" type="curve" smooth="yes"/>
      <point x="742.0" y="136.0" type="line" smooth="yes"/>
      <point x="716.56" y="136.0"/>
      <point x="694.0" y="158.56"/>
      <point x="694.0" y="184.0" type="curve" smooth="yes"/>
      <point x="694.0" y="774.56" type="line" smooth="yes"/>
      <point x="694.0" y="781.6831999999999"/>
      <point x="700.3168000000001" y="788.0"/>
      <point x="707.44" y="788.0" type="curve" smooth="yes"/>
      <point x="726.0" y="788.0" type="line" smooth="yes"/>
      <point x="748.6669921875" y="788.0"/>
      <point x="764.8330078125" y="793.0"/>
      <point x="774.5" y="803.0" type="curve" smooth="yes"/>
      <point x="784.1669921875" y="813.0"/>
      <point x="789.0" y="830.6669921875"/>
      <point x="789.0" y="856.0" type="curve" smooth="yes"/>
      <point x="789.0" y="881.3330078125"/>
      <point x="784.1669921875" y="899.0"/>
      <point x="774.5" y="909.0" type="curve" smooth="yes"/>
      <point x="764.8330078125" y="919.0"/>
      <point x="748.6669921875" y="924.0"/>
      <point x="726.0" y="924.0" type="curve" smooth="yes"/>
      <point x="502.0" y="924.0" type="line" smooth="yes"/>
      <point x="479.3330078125" y="924.0"/>
      <point x="463.1669921875" y="919.0"/>
      <point x="453.5" y="909.0" type="curve" smooth="yes"/>
      <point x="443.8330078125" y="899.0"/>
      <point x="439.0" y="881.3330078125"/>
      <point x="439.0" y="856.0" type="curve" smooth="yes"/>
      <point x="439.0" y="830.6669921875"/>
      <point x="443.8330078125" y="813.0"/>
      <point x="453.5" y="803.0" type="curve" smooth="yes"/>
      <point x="463.1669921875" y="793.0"/>
      <point x="479.3330078125" y="788.0"/>
      <point x="502.0" y="788.0" type="curve" smooth="yes"/>
      <point x="526.36" y="788.0" type="line" smooth="yes"/>
      <point x="535.7092" y="788.0"/>
      <point x="544.0" y="779.7092"/>
      <point x="544.0" y="770.36" type="curve" smooth="yes"/>
      <point x="544.0" y="184.0" type="line" smooth="yes"/>
      <point x="544.0" y="158.56"/>
      <point x="521.44" y="136.0"/>
      <point x="496.0" y="136.0" type="curve" smooth="yes"/>
      <point x="317.0" y="136.0" type="line" smooth="yes"/>
      <point x="291.56" y="136.0"/>
      <point x="269.0" y="158.56"/>
      <point x="269.0" y="184.0" type="curve" smooth="yes"/>
      <point x="269.0" y="774.56" type="line" smooth="yes"/>
      <point x="269.0" y="781.6831999999999"/>
      <point x="275.3168" y="788.0"/>
      <point x="282.44" y="788.0" type="curve" smooth="yes"/>
      <point x="301.0" y="788.0" type="line" smooth="yes"/>
      <point x="323.6669921875" y="788.0"/>
      <point x="339.8330078125" y="793.0"/>
      <point x="349.5" y="803.0" type="curve" smooth="yes"/>
      <point x="359.1669921875" y="813.0"/>
      <point x="364.0" y="830.6669921875"/>
      <point x="364.0" y="856.0" type="curve" smooth="yes"/>
      <point x="364.0" y="881.3330078125"/>
      <point x="359.1669921875" y="899.0"/>
      <point x="349.5" y="909.0" type="curve" smooth="yes"/>
      <point x="339.8330078125" y="919.0"/>
      <point x="323.6669921875" y="924.0"/>
      <point x="301.0" y="924.0" type="curve" smooth="yes"/>
      <point x="87.0" y="924.0" type="line" smooth="yes"/>
      <point x="64.33329772949219" y="924.0"/>
      <point x="48.16669845581055" y="919.0"/>
      <point x="38.5" y="909.0" type="curve" smooth="yes"/>
      <point x="28.83329963684082" y="899.0"/>
      <point x="24.0" y="881.3330078125"/>
      <point x="24.0" y="856.0" type="curve" smooth="yes"/>
      <point x="24.0" y="830.6669921875"/>
      <point x="28.83329963684082" y="813.0"/>
      <point x="38.5" y="803.0" type="curve" smooth="yes"/>
      <point x="48.16669845581055" y="793.0"/>
      <point x="64.33329772949219" y="788.0"/>
      <point x="87.0" y="788.0" type="curve" smooth="yes"/>
      <point x="105.56" y="788.0" type="line" smooth="yes"/>
      <point x="112.6832" y="788.0"/>
      <point x="119.0" y="781.6831999999999"/>
      <point x="119.0" y="774.56" type="curve" smooth="yes"/>
      <point x="119.0" y="153.64" type="line" smooth="yes"/>
      <point x="119.0" y="144.2908"/>
      <point x="110.7092" y="136.0"/>
      <point x="101.36" y="136.0" type="curve" smooth="yes"/>
      <point x="77.0" y="136.0" type="line" smooth="yes"/>
      <point x="54.33330154418945" y="136.0"/>
      <point x="38.16669845581055" y="131.0"/>
      <point x="28.5" y="121.0" type="curve" smooth="yes"/>
      <point x="18.83329963684082" y="111.0"/>
      <point x="14.0" y="93.33329772949219"/>
      <point x="14.0" y="68.0" type="curve" smooth="yes"/>
      <point x="14.0" y="42.66669845581055"/>
      <point x="18.83329963684082" y="25.0"/>
      <point x="28.5" y="15.0" type="curve" smooth="yes"/>
      <point x="38.16669845581055" y="5.0"/>
      <point x="54.33330154418945" y="0.0"/>
      <point x="77.0" y="0.0" type="curve" smooth="yes"/>
      <point x="1151.0" y="0.0" type="line" smooth="yes"/>
      <point x="1173.6700439453125" y="0.0"/>
      <point x="1189.8299560546875" y="5.0"/>
      <point x="1199.5" y="15.0" type="curve" smooth="yes"/>
      <point x="1209.1700439453125" y="25.0"/>
      <point x="1214.0" y="42.66669845581055"/>
      <point x="1214.0" y="68.0" type="curve" smooth="yes"/>
      <point x="1214.0" y="93.33329772949219"/>
      <point x="1209.1700439453125" y="111.0"/>
      <point x="1199.5" y="121.0" type="curve" smooth="yes"/>
      <point x="1189.8299560546875" y="131.0"/>
      <point x="1173.6700439453125" y="136.0"/>
      <point x="1151.0" y="136.0" type="curve" smooth="yes"/>
      <point x="1126.64" y="136.0" type="line" smooth="yes"/>
      <point x="1117.2908" y="136.0"/>
      <point x="1109.0" y="144.2908"/>
      <point x="1109.0" y="153.64" type="curve" smooth="yes"/>
      <point x="1109.0" y="774.56" type="line" smooth="yes"/>
      <point x="1109.0" y="781.6831999999999"/>
      <point x="1115.3168" y="788.0"/>
      <point x="1122.44" y="788.0" type="curve" smooth="yes"/>
      <point x="1141.0" y="788.0" type="line" smooth="yes"/>
      <point x="1163.6700439453125" y="788.0"/>
      <point x="1179.8299560546875" y="793.0"/>
      <point x="1189.5" y="803.0" type="curve" smooth="yes"/>
      <point x="1199.1700439453125" y="813.0"/>
      <point x="1204.0" y="830.6669921875"/>
      <point x="1204.0" y="856.0" type="curve" smooth="yes"/>
      <point x="1204.0" y="881.3330078125"/>
      <point x="1199.1700439453125" y="899.0"/>
      <point x="1189.5" y="909.0" type="curve" smooth="yes"/>
      <point x="1179.8299560546875" y="919.0"/>
      <point x="1163.6700439453125" y="924.0"/>
      <point x="1141.0" y="924.0" type="curve" smooth="yes"/>
      <point x="927.0" y="924.0" type="line" smooth="yes"/>
      <point x="904.3330078125" y="924.0"/>
      <point x="888.1669921875" y="919.0"/>
      <point x="878.5" y="909.0" type="curve" smooth="yes"/>
      <point x="868.8330078125" y="899.0"/>
      <point x="864.0" y="881.3330078125"/>
      <point x="864.0" y="856.0" type="curve" smooth="yes"/>
      <point x="864.0" y="830.6669921875"/>
      <point x="868.8330078125" y="813.0"/>
      <point x="878.5" y="803.0" type="curve" smooth="yes"/>
      <point x="888.1669921875" y="793.0"/>
      <point x="904.3330078125" y="788.0"/>
      <point x="927.0" y="788.0" type="curve" smooth="yes"/>
    </contour>
  </outline>
</glyph>
<glyph name="uni0466" format="2">
  <advance width="1228"/>
  <unicode hex="0466"/>
  <outline>
    <contour>
      <point x="51.0" y="63.0" type="curve" smooth="yes"/>
      <point x="51.0" y="37.0"/>
      <point x="66.0" y="0.0"/>
      <point x="121.0" y="0.0" type="curve" smooth="yes"/>
      <point x="289.0" y="0.0" type="line" smooth="yes"/>
      <point x="350.0" y="0.0"/>
      <point x="360.0" y="39.0"/>
      <point x="360.0" y="63.0" type="curve" smooth="yes"/>
      <point x="360.0" y="98.0"/>
      <point x="336.0" y="121.0"/>
      <point x="318.02" y="124.48" type="curve" smooth="yes"/>
      <point x="311.1194" y="125.8156"/>
      <point x="306.49742808844104" y="133.05041889789027"/>
      <point x="308.18601720944906" y="139.8732316976389" type="curve" smooth="yes"/>
      <point x="379.0" y="426.0" type="line"/>
      <point x="381.0" y="428.0" type="line"/>
      <point x="433.2" y="428.0" type="line" smooth="yes"/>
      <point x="453.234" y="428.0"/>
      <point x="471.0" y="410.234"/>
      <point x="471.0" y="390.2" type="curve" smooth="yes"/>
      <point x="471.0" y="127.0" type="line"/>
      <point x="465.0" y="127.0" type="line" smooth="yes"/>
      <point x="410.0" y="127.0"/>
      <point x="397.0" y="88.0"/>
      <point x="397.0" y="63.0" type="curve" smooth="yes"/>
      <point x="397.0" y="35.0"/>
      <point x="412.0" y="0.0"/>
      <point x="465.0" y="0.0" type="curve" smooth="yes"/>
      <point x="604.0" y="0.0" type="line" smooth="yes"/>
      <point x="664.0" y="0.0"/>
      <point x="678.0" y="35.0"/>
      <point x="678.0" y="66.0" type="curve" smooth="yes"/>
      <point x="678.0" y="96.0"/>
      <point x="659.0" y="127.0"/>
      <point x="608.0" y="127.0" type="curve" smooth="yes"/>
      <point x="604.0" y="127.0" type="line"/>
      <point x="604.0" y="390.2" type="line" smooth="yes"/>
      <point x="604.0" y="410.234"/>
      <point x="621.766" y="428.0"/>
      <point x="641.8" y="428.0" type="curve" smooth="yes"/>
      <point x="656.2" y="428.0" type="line" smooth="yes"/>
      <point x="676.234" y="428.0"/>
      <point x="698.2414237179144" y="410.74772244469983"/>
      <point x="703.0243057827964" y="391.29302647808476" type="curve" smooth="yes"/>
      <point x="766.7801620204989" y="131.96177340310567" type="line" smooth="yes"/>
      <point x="767.4266761496344" y="129.33203349945967"/>
      <point x="765.6312" y="126.6052"/>
      <point x="762.96" y="126.16" type="curve" smooth="yes"/>
      <point x="756.0" y="125.0"/>
      <point x="715.0" y="111.0"/>
      <point x="715.0" y="63.0" type="curve" smooth="yes"/>
      <point x="715.0" y="33.0"/>
      <point x="729.0" y="0.0"/>
      <point x="786.0" y="0.0" type="curve" smooth="yes"/>
      <point x="946.0" y="0.0" type="line" smooth="yes"/>
      <point x="1014.0" y="0.0"/>
      <point x="1022.0" y="41.0"/>
      <point x="1022.0" y="63.0" type="curve" smooth="yes"/>
      <point x="1022.0" y="115.0"/>
      <point x="987.0" y="127.0"/>
      <point x="946.0" y="127.0" type="curve" smooth="yes"/>
      <point x="929.76" y="127.0" type="line" smooth="yes"/>
      <point x="923.5272" y="127.0"/>
      <point x="916.693637551736" y="132.37060117619671"/>
      <point x="915.2205054292253" y="138.4268110131845" type="curve" smooth="yes"/>
      <point x="909.0" y="164.0"/>
      <point x="899.0" y="201.0"/>
      <point x="889.0" y="238.0" type="curve" smooth="yes"/>
      <point x="651.0" y="1180.0" type="line" smooth="yes"/>
      <point x="637.0" y="1233.0"/>
      <point x="635.0" y="1276.0"/>
      <point x="549.0" y="1276.0" type="curve" smooth="yes"/>
      <point x="520.0" y="1276.0" type="line" smooth="yes"/>
      <point x="463.0" y="1276.0"/>
      <point x="440.0" y="1253.0"/>
      <point x="426.0" y="1194.0" type="curve" smooth="yes"/>
      <point x="161.17173525250348" y="139.6277668448553" type="line" smooth="yes"/>
      <point x="159.49071556867665" y="132.93505041708198"/>
      <point x="151.8806" y="127.0"/>
      <point x="144.98" y="127.0" type="curve" smooth="yes"/>
      <point x="127.0" y="127.0" type="line" smooth="yes"/>
      <point x="102.0" y="127.0"/>
      <point x="51.0" y="123.0"/>
    </contour>
    <contour>
      <point x="460.0" y="553.0" type="line" smooth="yes"/>
      <point x="434.56" y="553.0"/>
      <point x="417.25495575675245" y="574.9394402844415"/>
      <point x="423.18075692926055" y="599.6796601796627" type="curve" smooth="yes"/>
      <point x="492.0" y="887.0" type="line"/>
      <point x="537.0" y="1108.0" type="line"/>
      <point x="555.0" y="1014.0" type="line"/>
      <point x="582.0" y="891.0" type="line"/>
      <point x="678.0" y="489.0" type="line"/>
      <point x="668.72" y="526.12" type="line" smooth="yes"/>
      <point x="665.1584" y="540.3664"/>
      <point x="648.9775831920492" y="553.0"/>
      <point x="634.2927301958493" y="553.0" type="curve" smooth="yes"/>
    </contour>
  </outline>
</glyph>
<glyph name="uni047B" format="2">
  <advance width="1228"/>
  <unicode hex="047B"/>
  <outline>
    <contour>
      <point x="88.0" y="440.0" type="curve" smooth="yes"/>
      <point x="88.0" y="164.0"/>
      <point x="233.0" y="18.0"/>
      <point x="415.5729354939231" y="-0.5953915780847634" type="curve" smooth="yes"/>
      <point x="433.28927968214384" y="-2.399834041699839"/>
      <point x="449.0" y="-19.791999999999998"/>
      <point x="449.0" y="-37.6" type="curve" smooth="yes"/>
      <point x="449.0" y="-84.0"/>
      <point x="506.0" y="-102.0"/>
      <point x="537.0" y="-102.0" type="curve" smooth="yes"/>
      <point x="567.0" y="-102.0"/>
      <point x="625.0" y="-84.0"/>
      <point x="625.0" y="-37.6" type="curve" smooth="yes"/>
      <point x="625.0" y="-19.791999999999998"/>
      <point x="640.6945196764001" y="-2.2480536175181327"/>
      <point x="658.3925950561703" y="-0.27245450535772875" type="curve" smooth="yes"/>
      <point x="840.0" y="20.0"/>
      <point x="985.0" y="164.0"/>
      <point x="985.0" y="440.0" type="curve" smooth="yes"/>
      <point x="985.0" y="690.0"/>
      <point x="870.0" y="862.0"/>
      <point x="658.33421920794" y="888.7822008349137" type="curve" smooth="yes"/>
      <point x="640.6670830277318" y="891.0176343924095"/>
      <point x="625.0" y="908.792"/>
      <point x="625.0" y="926.6" type="curve" smooth="yes"/>
      <point x="625.0" y="973.0"/>
      <point x="565.0" y="989.0"/>
      <point x="537.0" y="989.0" type="curve" smooth="yes"/>
      <point x="504.0" y="989.0"/>
      <point x="444.0" y="965.0"/>
      <point x="446.9" y="923.24" type="curve" smooth="yes"/>
      <point x="448.013" y="907.2128"/>
      <point x="434.8629877045232" y="891.2328734630654"/>
      <point x="418.9212504351558" y="889.2401563043945" type="curve" smooth="yes"/>
      <point x="201.0" y="862.0"/>
      <point x="88.0" y="688.0"/>
    </contour>
    <contour>
      <point x="231.0" y="459.0" type="curve" smooth="yes"/>
      <point x="231.0" y="639.0"/>
      <point x="315.0" y="737.0"/>
      <point x="409.97072986464264" y="756.3954307470045" type="curve" smooth="yes"/>
      <point x="434.89624303638203" y="761.4858524510921"/>
      <point x="458.9543641451908" y="743.5248123303054"/>
      <point x="461.1582215855124" y="718.1804517666072" type="curve" smooth="yes"/>
      <point x="467.0" y="651.0"/>
      <point x="457.0" y="590.0"/>
      <point x="537.0" y="590.0" type="curve" smooth="yes"/>
      <point x="607.1696166992188" y="590.0"/>
      <point x="609.0473022460938" y="640.2809448242188"/>
      <point x="612.1956176757812" y="724.5897827148438" type="curve" smooth="yes"/>
      <point x="612.6815185546875" y="737.6024780273438"/>
      <point x="613.19775390625" y="751.42578125"/>
      <point x="613.663056640625" y="759.878828125" type="curve" smooth="yes"/>
      <point x="613.8416366210937" y="763.12304921875"/>
      <point x="616.8253530680514" y="765.4349293863897"/>
      <point x="620.0113895064924" y="764.7977220987016" type="curve" smooth="yes"/>
      <point x="694.0" y="750.0"/>
      <point x="842.0" y="705.0"/>
      <point x="842.0" y="459.0" type="curve" smooth="yes"/>
      <point x="842.0" y="190.0"/>
      <point x="688.0" y="139.0"/>
      <point x="620.7465384358737" y="124.45871101316187" type="curve" smooth="yes"/>
      <point x="617.1708730648606" y="123.68559417618609"/>
      <point x="613.77869609375" y="126.23658770141601"/>
      <point x="613.529140625" y="129.88635681152343" type="curve" smooth="yes"/>
      <point x="612.87890625" y="139.39608764648438"/>
      <point x="612.1112670898438" y="154.61387634277344"/>
      <point x="611.4027099609375" y="168.66160583496094" type="curve" smooth="yes"/>
      <point x="607.054931640625" y="254.8562774658203"/>
      <point x="604.9291381835938" y="297.0"/>
      <point x="537.0" y="297.0" type="curve" smooth="yes"/>
      <point x="466.45281982421875" y="297.0"/>
      <point x="463.6186218261719" y="241.9832000732422"/>
      <point x="459.7812194824219" y="167.49246215820312" type="curve" smooth="yes"/>
      <point x="459.0494689941406" y="153.28762817382812"/>
      <point x="458.2812194824219" y="138.37466430664062"/>
      <point x="457.53811218261717" y="129.45735900878907" type="curve" smooth="yes"/>
      <point x="457.2529127258301" y="126.03495873413087"/>
      <point x="454.040807194129" y="123.71980365548212"/>
      <point x="450.7038450938915" y="124.53149713932368" type="curve" smooth="yes"/>
      <point x="383.0" y="141.0"/>
      <point x="231.0" y="190.0"/>
    </contour>
  </outline>
</glyph>
<glyph name="uni04A6" format="2">
  <advance width="1228"/>
  <unicode hex="04A6"/>
  <outline>
    <contour>
      <point x="-6.0" y="63.0" type="curve" smooth="yes"/>
      <point x="-6.0" y="35.0"/>
      <point x="8.0" y="0.0"/>
      <point x="66.0" y="0.0" type="curve" smooth="yes"/>
      <point x="254.0" y="0.0" type="line" smooth="yes"/>
      <point x="313.0" y="0.0"/>
      <point x="328.0" y="37.0"/>
      <point x="328.0" y="66.0" type="curve" smooth="yes"/>
      <point x="328.0" y="96.0"/>
      <point x="307.0" y="127.0"/>
      <point x="252.0" y="127.0" type="curve" smooth="yes"/>
      <point x="239.82" y="127.0" type="line" smooth="yes"/>
      <point x="235.1454" y="127.0"/>
      <point x="231.0" y="131.1454"/>
      <point x="231.0" y="135.82" type="curve" smooth="yes"/>
      <point x="231.0" y="1076.0" type="line" smooth="yes"/>
      <point x="231.0" y="1101.44"/>
      <point x="253.56" y="1124.0"/>
      <point x="279.0" y="1124.0" type="curve" smooth="yes"/>
      <point x="454.0" y="1124.0" type="line" smooth="yes"/>
      <point x="479.44" y="1124.0"/>
      <point x="502.0" y="1101.44"/>
      <point x="502.0" y="1076.0" type="curve" smooth="yes"/>
      <point x="502.0" y="136.66" type="line" smooth="yes"/>
      <point x="502.0" y="131.5402"/>
      <point x="497.4598" y="127.0"/>
      <point x="492.34" y="127.0" type="curve" smooth="yes"/>
      <point x="479.0" y="127.0" type="line" smooth="yes"/>
      <point x="418.0" y="127.0"/>
      <point x="408.0" y="84.0"/>
      <point x="408.0" y="61.0" type="curve" smooth="yes"/>
      <point x="408.0" y="31.0"/>
      <point x="426.0" y="0.0"/>
      <point x="479.0" y="0.0" type="curve" smooth="yes"/>
      <point x="668.0" y="0.0" type="line" smooth="yes"/>
      <point x="727.0" y="0.0"/>
      <point x="739.0" y="37.0"/>
      <point x="739.0" y="66.0" type="curve" smooth="yes"/>
      <point x="739.0" y="96.0"/>
      <point x="719.0" y="127.0"/>
      <point x="666.0" y="127.0" type="curve" smooth="yes"/>
      <point x="653.82" y="127.0" type="line" smooth="yes"/>
      <point x="649.1454" y="127.0"/>
      <point x="645.0" y="131.1454"/>
      <point x="645.0" y="135.82" type="curve" smooth="yes"/>
      <point x="645.0" y="577.5" type="line" smooth="yes"/>
      <point x="645.0" y="583.065"/>
      <point x="649.935" y="588.0"/>
      <point x="655.5" y="588.0" type="curve" smooth="yes"/>
      <point x="670.0" y="588.0" type="line" smooth="yes"/>
      <point x="739.0" y="588.0"/>
      <point x="926.0" y="553.0"/>
      <point x="926.0" y="109.0" type="curve" smooth="yes"/>
      <point x="926.0" y="-150.0"/>
      <point x="813.0" y="-340.0"/>
      <point x="668.0" y="-340.0" type="curve" smooth="yes"/>
      <point x="643.0" y="-340.0"/>
      <point x="616.0" y="-336.0"/>
      <point x="588.5555396141917" y="-329.13888490354793" type="curve" smooth="yes"/>
      <point x="586.1411036186701" y="-328.5352759046675"/>
      <point x="584.3948" y="-325.8286"/>
      <point x="584.84" y="-323.38" type="curve" smooth="yes"/>
      <point x="586.0" y="-317.0"/>
      <point x="588.0" y="-307.0"/>
      <point x="588.0" y="-297.0" type="curve" smooth="yes"/>
      <point x="588.0" y="-244.0"/>
      <point x="553.0" y="-205.0"/>
      <point x="498.0" y="-205.0" type="curve" smooth="yes"/>
      <point x="444.0" y="-205.0"/>
      <point x="408.0" y="-248.0"/>
      <point x="408.0" y="-299.0" type="curve" smooth="yes"/>
      <point x="408.0" y="-399.0"/>
      <point x="508.0" y="-467.0"/>
      <point x="666.0" y="-467.0" type="curve" smooth="yes"/>
      <point x="891.0" y="-467.0"/>
      <point x="1069.0" y="-229.0"/>
      <point x="1069.0" y="109.0" type="curve" smooth="yes"/>
      <point x="1069.0" y="395.0"/>
      <point x="995.0" y="713.0"/>
      <point x="700.0" y="713.0" type="curve" smooth="yes"/>
      <point x="668.1" y="713.0" type="line" smooth="yes"/>
      <point x="655.857" y="713.0"/>
      <point x="645.0" y="723.857"/>
      <point x="645.0" y="736.1" type="curve" smooth="yes"/>
      <point x="645.0" y="1114.34" type="line" smooth="yes"/>
      <point x="645.0" y="1119.4597999999999"/>
      <point x="649.5402" y="1124.0"/>
      <point x="654.66" y="1124.0" type="curve" smooth="yes"/>
      <point x="668.0" y="1124.0" type="line" smooth="yes"/>
      <point x="725.0" y="1126.0"/>
      <point x="739.0" y="1159.0"/>
      <point x="739.0" y="1188.0" type="curve" smooth="yes"/>
      <point x="739.0" y="1219.0"/>
      <point x="725.0" y="1251.0"/>
      <point x="666.0" y="1251.0" type="curve" smooth="yes"/>
      <point x="66.0" y="1251.0" type="line" smooth="yes"/>
      <point x="8.0" y="1251.0"/>
      <point x="-6.0" y="1217.0"/>
      <point x="-6.0" y="1188.0" type="curve" smooth="yes"/>
      <point x="-6.0" y="1161.0"/>
      <point x="6.0" y="1126.0"/>
      <point x="63.0" y="1124.0" type="curve" smooth="yes"/>
      <point x="77.5" y="1124.0" type="line" smooth="yes"/>
      <point x="83.065" y="1124.0"/>
      <point x="88.0" y="1119.065"/>
      <point x="88.0" y="1113.5" type="curve" smooth="yes"/>
      <point x="88.0" y="136.24" type="line" smooth="yes"/>
      <point x="88.0" y="131.3428"/>
      <point x="83.6572" y="127.0"/>
      <point x="78.76" y="127.0" type="curve" smooth="yes"/>
      <point x="66.0" y="127.0" type="line" smooth="yes"/>
      <point x="8.0" y="127.0"/>
      <point x="-6.0" y="92.0"/>
    </contour>
  </outline>
</glyph>
<glyph name="uni04AC" format="2">
  <advance width="1228"/>
  <unicode hex="04AC"/>
  <outline>
    <contour>
      <point x="53.0" y="999.0" type="line" smooth="yes"/>
      <point x="55.0" y="942.0"/>
      <point x="92.0" y="932.0"/>
      <point x="119.0" y="932.0" type="curve" smooth="yes"/>
      <point x="127.0" y="932.0" type="line" smooth="yes"/>
      <point x="197.0" y="932.0"/>
      <point x="197.0" y="979.0"/>
      <point x="197.0" y="1014.0" type="curve" smooth="yes"/>
      <point x="197.0" y="1077.8" type="line" smooth="yes"/>
      <point x="197.0" y="1102.286"/>
      <point x="218.714" y="1124.0"/>
      <point x="243.2" y="1124.0" type="curve" smooth="yes"/>
      <point x="417.0" y="1124.0" type="line" smooth="yes"/>
      <point x="442.44" y="1124.0"/>
      <point x="465.0" y="1101.44"/>
      <point x="465.0" y="1076.0" type="curve" smooth="yes"/>
      <point x="465.0" y="174.46" type="line" smooth="yes"/>
      <point x="465.0" y="149.3062"/>
      <point x="442.6938" y="127.0"/>
      <point x="417.54" y="127.0" type="curve" smooth="yes"/>
      <point x="352.0" y="127.0" type="line" smooth="yes"/>
      <point x="324.0" y="127.0"/>
      <point x="276.0" y="123.0"/>
      <point x="276.0" y="63.0" type="curve" smooth="yes"/>
      <point x="276.0" y="2.0"/>
      <point x="328.0" y="0.0"/>
      <point x="360.0" y="0.0" type="curve" smooth="yes"/>
      <point x="634.0" y="0.0" type="line" smooth="yes"/>
      <point x="659.44" y="0.0"/>
      <point x="682.0" y="-22.56"/>
      <point x="682.0" y="-48.0" type="curve" smooth="yes"/>
      <point x="682.0" y="-272.0" type="line" smooth="yes"/>
      <point x="684.0" y="-330.0"/>
      <point x="723.0" y="-340.0"/>
      <point x="739.0" y="-340.0" type="curve" smooth="yes"/>
      <point x="760.0" y="-340.0"/>
      <point x="799.0" y="-332.0"/>
      <point x="799.0" y="-266.0" type="curve" smooth="yes"/>
      <point x="799.0" y="47.0" type="line" smooth="yes"/>
      <point x="799.0" y="125.0"/>
      <point x="760.0" y="127.0"/>
      <point x="715.0" y="127.0" type="curve" smooth="yes"/>
      <point x="652.94" y="127.0" type="line" smooth="yes"/>
      <point x="629.1218" y="127.0"/>
      <point x="608.0" y="148.1218"/>
      <point x="608.0" y="171.94" type="curve" smooth="yes"/>
      <point x="608.0" y="1076.0" type="line" smooth="yes"/>
      <point x="608.0" y="1101.44"/>
      <point x="630.56" y="1124.0"/>
      <point x="656.0" y="1124.0" type="curve" smooth="yes"/>
      <point x="829.0" y="1124.0" type="line" smooth="yes"/>
      <point x="854.44" y="1124.0"/>
      <point x="877.0" y="1101.44"/>
      <point x="877.0" y="1076.0" type="curve" smooth="yes"/>
      <point x="877.0" y="999.0" type="line" smooth="yes"/>
      <point x="879.0" y="934.0"/>
      <point x="920.0" y="932.0"/>
      <point x="950.0" y="932.0" type="curve" smooth="yes"/>
      <point x="952.0" y="932.0" type="line" smooth="yes"/>
      <point x="1008.0" y="932.0"/>
      <point x="1020.0" y="967.0"/>
      <point x="1020.0" y="1006.0" type="curve" smooth="yes"/>
      <point x="1020.0" y="1174.0" type="line" smooth="yes"/>
      <point x="1020.0" y="1174.88818359375"/>
      <point x="1020.0078735351562" y="1175.8494873046875"/>
      <point x="1020.0162963867188" y="1176.8753662109375" type="curve" smooth="yes"/>
      <point x="1020.197509765625" y="1198.950439453125"/>
      <point x="1020.6246948242188" y="1251.0"/>
      <point x="948.0" y="1251.0" type="curve" smooth="yes"/>
      <point x="129.0" y="1251.0" type="line" smooth="yes"/>
      <point x="84.0" y="1251.0"/>
      <point x="53.0" y="1237.0"/>
      <point x="53.0" y="1176.0" type="curve" smooth="yes"/>
    </contour>
  </outline>
</glyph>
<glyph name="uni04B1" format="2">
  <advance width="1228"/>
  <unicode hex="04B1"/>
  <outline>
    <contour>
      <point x="491.0" y="0.0" type="line" smooth="yes"/>
      <point x="516.44" y="0.0"/>
      <point x="539.0" y="-22.56"/>
      <point x="539.0" y="-48.0" type="curve" smooth="yes"/>
      <point x="539.0" y="-209.0" type="line" smooth="yes"/>
      <point x="539.0" y="-234.44"/>
      <point x="516.44" y="-257.0"/>
      <point x="491.0" y="-257.0" type="curve" smooth="yes"/>
      <point x="326.0" y="-257.0" type="line" smooth="yes"/>
      <point x="303.3330078125" y="-257.0"/>
      <point x="287.1669921875" y="-262.0"/>
      <point x="277.5" y="-272.0" type="curve" smooth="yes"/>
      <point x="267.8330078125" y="-282.0"/>
      <point x="263.0" y="-299.6669921875"/>
      <point x="263.0" y="-325.0" type="curve" smooth="yes"/>
      <point x="263.0" y="-350.3330078125"/>
      <point x="267.8330078125" y="-368.0"/>
      <point x="277.5" y="-378.0" type="curve" smooth="yes"/>
      <point x="287.1669921875" y="-388.0"/>
      <point x="303.3330078125" y="-393.0"/>
      <point x="326.0" y="-393.0" type="curve" smooth="yes"/>
      <point x="902.0" y="-393.0" type="line" smooth="yes"/>
      <point x="924.6669921875" y="-393.0"/>
      <point x="940.8330078125" y="-388.0"/>
      <point x="950.5" y="-378.0" type="curve" smooth="yes"/>
      <point x="960.1669921875" y="-368.0"/>
      <point x="965.0" y="-350.3330078125"/>
      <point x="965.0" y="-325.0" type="curve" smooth="yes"/>
      <point x="965.0" y="-299.6669921875"/>
      <point x="960.1669921875" y="-282.0"/>
      <point x="950.5" y="-272.0" type="curve" smooth="yes"/>
      <point x="940.8330078125" y="-262.0"/>
      <point x="924.6669921875" y="-257.0"/>
      <point x="902.0" y="-257.0" type="curve" smooth="yes"/>
      <point x="737.0" y="-257.0" type="line" smooth="yes"/>
      <point x="711.56" y="-257.0"/>
      <point x="689.0" y="-234.44"/>
      <point x="689.0" y="-209.0" type="curve" smooth="yes"/>
      <point x="689.0" y="-48.0" type="line" smooth="yes"/>
      <point x="689.0" y="-22.56"/>
      <point x="711.56" y="0.0"/>
      <point x="737.0" y="0.0" type="curve" smooth="yes"/>
      <point x="995.0" y="0.0" type="line" smooth="yes"/>
      <point x="1017.6699829101562" y="0.0"/>
      <point x="1033.8299560546875" y="5.0"/>
      <point x="1043.5" y="15.0" type="curve" smooth="yes"/>
      <point x="1053.1700439453125" y="25.0"/>
      <point x="1058.0" y="42.66669845581055"/>
      <point x="1058.0" y="68.0" type="curve" smooth="yes"/>
      <point x="1058.0" y="93.33329772949219"/>
      <point x="1053.1700439453125" y="111.0"/>
      <point x="1043.5" y="121.0" type="curve" smooth="yes"/>
      <point x="1033.8299560546875" y="131.0"/>
      <point x="1017.6699829101562" y="136.0"/>
      <point x="995.0" y="136.0" type="curve" smooth="yes"/>
      <point x="791.0" y="136.0" type="line" smooth="yes"/>
      <point x="765.56" y="136.0"/>
      <point x="752.6616599836397" y="156.38641524055998"/>
      <point x="763.556723369446" y="179.37535157565955" type="curve" smooth="yes"/>
      <point x="1040.6681062425928" y="764.0893374439177" type="line" smooth="yes"/>
      <point x="1046.6740099340186" y="776.7619885986413"/>
      <point x="1064.4362" y="788.0"/>
      <point x="1078.46" y="788.0" type="curve" smooth="yes"/>
      <point x="1115.0" y="788.0" type="line" smooth="yes"/>
      <point x="1137.6700439453125" y="788.0"/>
      <point x="1153.8299560546875" y="793.0"/>
      <point x="1163.5" y="803.0" type="curve" smooth="yes"/>
      <point x="1173.1700439453125" y="813.0"/>
      <point x="1178.0" y="830.6669921875"/>
      <point x="1178.0" y="856.0" type="curve" smooth="yes"/>
      <point x="1178.0" y="881.3330078125"/>
      <point x="1173.1700439453125" y="899.0"/>
      <point x="1163.5" y="909.0" type="curve" smooth="yes"/>
      <point x="1153.8299560546875" y="919.0"/>
      <point x="1137.6700439453125" y="924.0"/>
      <point x="1115.0" y="924.0" type="curve" smooth="yes"/>
      <point x="801.0" y="924.0" type="line" smooth="yes"/>
      <point x="778.3330078125" y="924.0"/>
      <point x="762.1669921875" y="919.0"/>
      <point x="752.5" y="909.0" type="curve" smooth="yes"/>
      <point x="742.8330078125" y="899.0"/>
      <point x="738.0" y="881.3330078125"/>
      <point x="738.0" y="856.0" type="curve" smooth="yes"/>
      <point x="738.0" y="830.6669921875"/>
      <point x="742.8330078125" y="813.0"/>
      <point x="752.5" y="803.0" type="curve" smooth="yes"/>
      <point x="762.1669921875" y="793.0"/>
      <point x="778.3330078125" y="788.0"/>
      <point x="801.0" y="788.0" type="curve" smooth="yes"/>
      <point x="851.46" y="788.0" type="line" smooth="yes"/>
      <point x="870.8262" y="788.0"/>
      <point x="881.0766740696066" y="772.2835447857494"/>
      <point x="873.2695192970355" y="754.560733586701" type="curve" smooth="yes"/>
      <point x="633.3503851598878" y="209.92678674981812" type="line" smooth="yes"/>
      <point x="623.0946810251472" y="186.64558977241452"/>
      <point x="604.9053189748528" y="186.64558977241452"/>
      <point x="594.6496148401122" y="209.92678674981812" type="curve" smooth="yes"/>
      <point x="354.73048070296454" y="754.560733586701" type="line" smooth="yes"/>
      <point x="346.92332593039333" y="772.2835447857494"/>
      <point x="357.1738" y="788.0"/>
      <point x="376.54" y="788.0" type="curve" smooth="yes"/>
      <point x="427.0" y="788.0" type="line" smooth="yes"/>
      <point x="449.6669921875" y="788.0"/>
      <point x="465.8330078125" y="793.0"/>
      <point x="475.5" y="803.0" type="curve" smooth="yes"/>
      <point x="485.1669921875" y="813.0"/>
      <point x="490.0" y="830.6669921875"/>
      <point x="490.0" y="856.0" type="curve" smooth="yes"/>
      <point x="490.0" y="881.3330078125"/>
      <point x="485.1669921875" y="899.0"/>
      <point x="475.5" y="909.0" type="curve" smooth="yes"/>
      <point x="465.8330078125" y="919.0"/>
      <point x="449.6669921875" y="924.0"/>
      <point x="427.0" y="924.0" type="curve" smooth="yes"/>
      <point x="113.0" y="924.0" type="line" smooth="yes"/>
      <point x="90.33329772949219" y="924.0"/>
      <point x="74.16670227050781" y="919.0"/>
      <point x="64.5" y="909.0" type="curve" smooth="yes"/>
      <point x="54.83330154418945" y="899.0"/>
      <point x="50.0" y="881.3330078125"/>
      <point x="50.0" y="856.0" type="curve" smooth="yes"/>
      <point x="50.0" y="830.6669921875"/>
      <point x="54.83330154418945" y="813.0"/>
      <point x="64.5" y="803.0" type="curve" smooth="yes"/>
      <point x="74.16670227050781" y="793.0"/>
      <point x="90.33329772949219" y="788.0"/>
      <point x="113.0" y="788.0" type="curve" smooth="yes"/>
      <point x="149.54" y="788.0" type="line" smooth="yes"/>
      <point x="163.5638" y="788.0"/>
      <point x="181.32599006598133" y="776.7619885986413"/>
      <point x="187.3318937574071" y="764.0893374439177" type="curve" smooth="yes"/>
      <point x="464.443276630554" y="179.37535157565955" type="line" smooth="yes"/>
      <point x="475.3383400163604" y="156.38641524055998"/>
      <point x="462.44" y="136.0"/>
      <point x="437.0" y="136.0" type="curve" smooth="yes"/>
      <point x="233.0" y="136.0" type="line" smooth="yes"/>
      <point x="210.33299255371094" y="136.0"/>
      <point x="194.16700744628906" y="131.0"/>
      <point x="184.5" y="121.0" type="curve" smooth="yes"/>
      <point x="174.83299255371094" y="111.0"/>
      <point x="170.0" y="93.33329772949219"/>
      <point x="170.0" y="68.0" type="curve" smooth="yes"/>
      <point x="170.0" y="42.66669845581055"/>
      <point x="174.83299255371094" y="25.0"/>
      <point x="184.5" y="15.0" type="curve" smooth="yes"/>
      <point x="194.16700744628906" y="5.0"/>
      <point x="210.33299255371094" y="0.0"/>
      <point x="233.0" y="0.0" type="curve" smooth="yes"/>
    </contour>
  </outline>
</glyph>
<glyph name="uni04C4" format="2">
  <advance width="1228"/>
  <unicode hex="04C4"/>
  <outline>
    <contour>
      <point x="35.0" y="61.0" type="curve" smooth="yes"/>
      <point x="35.0" y="8.0"/>
      <point x="74.0" y="0.0"/>
      <point x="115.0" y="0.0" type="curve" smooth="yes"/>
      <point x="422.0" y="0.0" type="line" smooth="yes"/>
      <point x="455.0" y="0.0"/>
      <point x="500.0" y="6.0"/>
      <point x="500.0" y="63.0" type="curve" smooth="yes"/>
      <point x="500.0" y="121.0"/>
      <point x="457.0" y="127.0"/>
      <point x="420.0" y="127.0" type="curve" smooth="yes"/>
      <point x="365.48" y="127.0" type="line" smooth="yes"/>
      <point x="344.5556" y="127.0"/>
      <point x="326.0" y="145.5556"/>
      <point x="326.0" y="166.48" type="curve" smooth="yes"/>
      <point x="326.0" y="376.0" type="line" smooth="yes"/>
      <point x="326.0" y="401.44"/>
      <point x="348.56" y="424.0"/>
      <point x="374.0" y="424.0" type="curve" smooth="yes"/>
      <point x="508.0" y="424.0" type="line" smooth="yes"/>
      <point x="760.0" y="424.0"/>
      <point x="821.0" y="231.0"/>
      <point x="821.0" y="49.0" type="curve" smooth="yes"/>
      <point x="821.0" y="-154.0"/>
      <point x="719.0" y="-340.0"/>
      <point x="565.0" y="-340.0" type="curve" smooth="yes"/>
      <point x="530.0" y="-340.0"/>
      <point x="498.0" y="-334.0"/>
      <point x="475.50226928910035" y="-327.334005715289" type="curve" smooth="yes"/>
      <point x="473.1160665658772" y="-326.62698268618584"/>
      <point x="471.3948" y="-323.8286"/>
      <point x="471.84" y="-321.38" type="curve" smooth="yes"/>
      <point x="473.0" y="-315.0"/>
      <point x="475.0" y="-305.0"/>
      <point x="475.0" y="-295.0" type="curve" smooth="yes"/>
      <point x="475.0" y="-242.0"/>
      <point x="432.0" y="-207.0"/>
      <point x="387.0" y="-207.0" type="curve" smooth="yes"/>
      <point x="334.0" y="-207.0"/>
      <point x="299.0" y="-248.0"/>
      <point x="299.0" y="-299.0" type="curve" smooth="yes"/>
      <point x="299.0" y="-365.0"/>
      <point x="350.0" y="-465.0"/>
      <point x="559.0" y="-465.0" type="curve" smooth="yes"/>
      <point x="795.0" y="-465.0"/>
      <point x="965.0" y="-233.0"/>
      <point x="965.0" y="51.0" type="curve" smooth="yes"/>
      <point x="965.0" y="322.0"/>
      <point x="856.0" y="514.0"/>
      <point x="657.6233576011706" y="538.9986825787142" type="curve" smooth="yes"/>
      <point x="632.3829780725501" y="542.1793808119957"/>
      <point x="626.7974865809848" y="560.0598155553657"/>
      <point x="645.7393331510316" y="577.0421607560972" type="curve" smooth="yes"/>
      <point x="813.0" y="727.0" type="line" smooth="yes"/>
      <point x="840.0" y="750.0"/>
      <point x="842.0" y="756.0"/>
      <point x="883.0" y="756.0" type="curve" smooth="yes"/>
      <point x="924.0" y="756.0" type="line" smooth="yes"/>
      <point x="983.0" y="756.0"/>
      <point x="997.0" y="788.0"/>
      <point x="997.0" y="819.0" type="curve" smooth="yes"/>
      <point x="997.0" y="848.0"/>
      <point x="983.0" y="881.0"/>
      <point x="926.0" y="881.0" type="curve" smooth="yes"/>
      <point x="641.0" y="881.0" type="line" smooth="yes"/>
      <point x="578.0" y="881.0"/>
      <point x="567.0" y="840.0"/>
      <point x="567.0" y="817.0" type="curve" smooth="yes"/>
      <point x="567.0" y="797.0"/>
      <point x="578.0" y="756.0"/>
      <point x="639.0" y="756.0" type="curve" smooth="yes"/>
      <point x="658.14" y="756.0" type="line" smooth="yes"/>
      <point x="665.4858" y="756.0"/>
      <point x="667.1324639900021" y="751.6708089864995"/>
      <point x="661.6435404042597" y="746.7889552904245" type="curve" smooth="yes"/>
      <point x="455.0" y="563.0"/>
      <point x="453.0" y="549.0"/>
      <point x="418.0" y="547.0" type="curve"/>
      <point x="364.64" y="547.0" type="line" smooth="yes"/>
      <point x="344.1608" y="547.0"/>
      <point x="326.0" y="565.1608"/>
      <point x="326.0" y="585.64" type="curve" smooth="yes"/>
      <point x="326.0" y="714.84" type="line" smooth="yes"/>
      <point x="326.0" y="736.6548"/>
      <point x="345.3452" y="756.0"/>
      <point x="367.15999999999997" y="756.0" type="curve" smooth="yes"/>
      <point x="424.0" y="756.0" type="line" smooth="yes"/>
      <point x="451.0" y="756.0"/>
      <point x="498.0" y="758.0"/>
      <point x="498.0" y="819.0" type="curve" smooth="yes"/>
      <point x="498.0" y="874.0"/>
      <point x="459.0" y="881.0"/>
      <point x="422.0" y="881.0" type="curve" smooth="yes"/>
      <point x="111.0" y="881.0" type="line" smooth="yes"/>
      <point x="43.0" y="881.0"/>
      <point x="35.0" y="842.0"/>
      <point x="35.0" y="819.0" type="curve" smooth="yes"/>
      <point x="35.0" y="766.0"/>
      <point x="72.0" y="756.0"/>
      <point x="113.0" y="756.0" type="curve" smooth="yes"/>
      <point x="168.68" y="756.0" type="line" smooth="yes"/>
      <point x="190.0496" y="756.0"/>
      <point x="209.0" y="737.0495999999999"/>
      <point x="209.0" y="715.68" type="curve" smooth="yes"/>
      <point x="209.0" y="168.16" type="line" smooth="yes"/>
      <point x="209.0" y="146.3452"/>
      <point x="189.6548" y="127.0"/>
      <point x="167.84" y="127.0" type="curve" smooth="yes"/>
      <point x="111.0" y="127.0" type="line" smooth="yes"/>
      <point x="82.0" y="127.0"/>
      <point x="35.0" y="123.0"/>
    </contour>
  </outline>
</glyph>
<glyph name="uni04CA" format="2">
  <advance width="1228"/>
  <unicode hex="04CA"/>
  <outline>
    <contour>
      <point x="35.0" y="61.0" type="curve" smooth="yes"/>
      <point x="35.0" y="8.0"/>
      <point x="74.0" y="0.0"/>
      <point x="115.0" y="0.0" type="curve" smooth="yes"/>
      <point x="424.0" y="0.0" type="line" smooth="yes"/>
      <point x="459.0" y="0.0"/>
      <point x="500.0" y="10.0"/>
      <point x="500.0" y="63.0" type="curve" smooth="yes"/>
      <point x="500.0" y="121.0"/>
      <point x="457.0" y="127.0"/>
      <point x="420.0" y="127.0" type="curve" smooth="yes"/>
      <point x="365.48" y="127.0" type="line" smooth="yes"/>
      <point x="344.5556" y="127.0"/>
      <point x="326.0" y="145.5556"/>
      <point x="326.0" y="166.48" type="curve" smooth="yes"/>
      <point x="326.0" y="376.0" type="line" smooth="yes"/>
      <point x="326.0" y="401.44"/>
      <point x="348.56" y="424.0"/>
      <point x="374.0" y="424.0" type="curve" smooth="yes"/>
      <point x="697.0" y="424.0" type="line" smooth="yes"/>
      <point x="722.44" y="424.0"/>
      <point x="745.0" y="401.44"/>
      <point x="745.0" y="376.0" type="curve" smooth="yes"/>
      <point x="745.0" y="168.16" type="line" smooth="yes"/>
      <point x="745.0" y="146.3452"/>
      <point x="725.6548" y="127.0"/>
      <point x="703.84" y="127.0" type="curve" smooth="yes"/>
      <point x="647.0" y="127.0" type="line" smooth="yes"/>
      <point x="623.0" y="127.0"/>
      <point x="571.0" y="123.0"/>
      <point x="571.0" y="63.0" type="curve" smooth="yes"/>
      <point x="571.0" y="35.0"/>
      <point x="584.0" y="0.0"/>
      <point x="645.0" y="0.0" type="curve" smooth="yes"/>
      <point x="812.0" y="0.0" type="line" smooth="yes"/>
      <point x="837.44" y="0.0"/>
      <point x="845.5574399435693" y="-17.331072067716796"/>
      <point x="829.271148816105" y="-36.87462142067404" type="curve" smooth="yes"/>
      <point x="715.0" y="-174.0"/>
      <point x="688.0" y="-195.0"/>
      <point x="688.0" y="-225.0" type="curve" smooth="yes"/>
      <point x="688.0" y="-256.0"/>
      <point x="713.0" y="-283.0"/>
      <point x="745.0" y="-283.0" type="curve" smooth="yes"/>
      <point x="776.0" y="-283.0"/>
      <point x="791.0" y="-264.0"/>
      <point x="805.0" y="-246.0" type="curve" smooth="yes"/>
      <point x="1028.0" y="18.0" type="line"/>
      <point x="1040.0" y="35.0"/>
      <point x="1053.0" y="47.0"/>
      <point x="1053.0" y="68.0" type="curve" smooth="yes"/>
      <point x="1053.0" y="117.0"/>
      <point x="1016.0" y="127.0"/>
      <point x="971.0" y="127.0" type="curve" smooth="yes"/>
      <point x="907.78" y="127.0" type="line" smooth="yes"/>
      <point x="883.5166" y="127.0"/>
      <point x="862.0" y="148.5166"/>
      <point x="862.0" y="172.78" type="curve" smooth="yes"/>
      <point x="862.0" y="714.42" type="line" smooth="yes"/>
      <point x="862.0" y="736.4574"/>
      <point x="881.5426" y="756.0"/>
      <point x="903.58" y="756.0" type="curve" smooth="yes"/>
      <point x="961.0" y="756.0" type="line" smooth="yes"/>
      <point x="987.0" y="756.0"/>
      <point x="1036.0" y="758.0"/>
      <point x="1036.0" y="819.0" type="curve" smooth="yes"/>
      <point x="1036.0" y="868.0"/>
      <point x="997.0" y="881.0"/>
      <point x="961.0" y="881.0" type="curve" smooth="yes"/>
      <point x="649.0" y="881.0" type="line" smooth="yes"/>
      <point x="621.0" y="881.0"/>
      <point x="571.0" y="879.0"/>
      <point x="571.0" y="817.0" type="curve" smooth="yes"/>
      <point x="571.0" y="762.0"/>
      <point x="614.0" y="756.0"/>
      <point x="651.0" y="756.0" type="curve" smooth="yes"/>
      <point x="705.52" y="756.0" type="line" smooth="yes"/>
      <point x="726.4444" y="756.0"/>
      <point x="745.0" y="737.4444"/>
      <point x="745.0" y="716.52" type="curve" smooth="yes"/>
      <point x="745.0" y="595.0" type="line" smooth="yes"/>
      <point x="745.0" y="569.56"/>
      <point x="722.44" y="547.0"/>
      <point x="697.0" y="547.0" type="curve" smooth="yes"/>
      <point x="374.0" y="547.0" type="line" smooth="yes"/>
      <point x="348.56" y="547.0"/>
      <point x="326.0" y="569.56"/>
      <point x="326.0" y="595.0" type="curve" smooth="yes"/>
      <point x="326.0" y="714.84" type="line" smooth="yes"/>
      <point x="326.0" y="736.6548"/>
      <point x="345.3452" y="756.0"/>
      <point x="367.15999999999997" y="756.0" type="curve" smooth="yes"/>
      <point x="424.0" y="756.0" type="line" smooth="yes"/>
      <point x="451.0" y="756.0"/>
      <point x="498.0" y="758.0"/>
      <point x="498.0" y="819.0" type="curve" smooth="yes"/>
      <point x="498.0" y="874.0"/>
      <point x="459.0" y="881.0"/>
      <point x="422.0" y="881.0" type="curve" smooth="yes"/>
      <point x="111.0" y="881.0" type="line" smooth="yes"/>
      <point x="43.0" y="881.0"/>
      <point x="35.0" y="842.0"/>
      <point x="35.0" y="819.0" type="curve" smooth="yes"/>
      <point x="35.0" y="766.0"/>
      <point x="72.0" y="756.0"/>
      <point x="113.0" y="756.0" type="curve" smooth="yes"/>
      <point x="168.68" y="756.0" type="line" smooth="yes"/>
      <point x="190.0496" y="756.0"/>
      <point x="209.0" y="737.0495999999999"/>
      <point x="209.0" y="715.68" type="curve" smooth="yes"/>
      <point x="209.0" y="168.16" type="line" smooth="yes"/>
      <point x="209.0" y="146.3452"/>
      <point x="189.6548" y="127.0"/>
      <point x="167.84" y="127.0" type="curve" smooth="yes"/>
      <point x="111.0" y="127.0" type="line" smooth="yes"/>
      <point x="82.0" y="127.0"/>
      <point x="35.0" y="123.0"/>
    </contour>
  </outline>
</glyph>
<glyph name="uni04D3" format="2">
  <advance width="1228"/>
  <unicode hex="04D3"/>
  <outline>
    <contour>
      <point x="274.0" y="855.0" type="curve" smooth="yes"/>
      <point x="240.0" y="837.0"/>
      <point x="226.0" y="807.0"/>
      <point x="248.0" y="761.0" type="curve" smooth="yes"/>
      <point x="270.0" y="715.0"/>
      <point x="297.0" y="703.0"/>
      <point x="334.0" y="722.0" type="curve" smooth="yes"/>
      <point x="430.0" y="771.0"/>
      <point x="543.0" y="801.0"/>
      <point x="644.0" y="801.0" type="curve" smooth="yes"/>
      <point x="807.0" y="801.0"/>
      <point x="874.0" y="741.0"/>
      <point x="874.0" y="613.0" type="curve" smooth="yes"/>
      <point x="874.0" y="563.9090393066406" type="line" smooth="yes"/>
      <point x="874.0" y="545.0682671508789"/>
      <point x="858.2175773589084" y="533.8438001773922"/>
      <point x="840.4203773593796" y="540.0271946822007" type="curve" smooth="yes"/>
      <point x="780.1140747070312" y="560.9797973632812"/>
      <point x="678.2105712890625" y="579.0"/>
      <point x="570.0" y="579.0" type="curve" smooth="yes"/>
      <point x="351.0" y="579.0"/>
      <point x="169.0" y="494.0"/>
      <point x="169.0" y="270.0" type="curve" smooth="yes"/>
      <point x="169.0" y="84.0"/>
      <point x="309.0" y="-22.0"/>
      <point x="509.0" y="-22.0" type="curve" smooth="yes"/>
      <point x="653.3889770507812" y="-22.0"/>
      <point x="780.1728515625" y="33.59513473510742"/>
      <point x="862.2765216171771" y="104.59392762993811" type="curve" smooth="yes"/>
      <point x="873.7899651600733" y="114.55012804173498"/>
      <point x="884.0" y="109.88115509033203"/>
      <point x="884.0" y="94.65994262695312" type="curve" smooth="yes"/>
      <point x="884.0" y="55.0" type="line" smooth="yes"/>
      <point x="884.0" y="9.0"/>
      <point x="900.0" y="-10.0"/>
      <point x="953.0" y="-10.0" type="curve" smooth="yes"/>
      <point x="955.0" y="-10.0" type="line" smooth="yes"/>
      <point x="1008.0" y="-10.0"/>
      <point x="1024.0" y="9.0"/>
      <point x="1024.0" y="55.0" type="curve" smooth="yes"/>
      <point x="1024.0" y="613.0" type="line" smooth="yes"/>
      <point x="1024.0" y="832.0"/>
      <point x="899.0" y="946.0"/>
      <point x="648.0" y="946.0" type="curve" smooth="yes"/>
      <point x="519.0" y="946.0"/>
      <point x="386.0" y="914.0"/>
    </contour>
    <contour>
      <point x="874.0" y="329.87051879882813" type="line" smooth="yes"/>
      <point x="874.0" y="305.75564560546877"/>
      <point x="859.1380238308511" y="268.99431243927916"/>
      <point x="842.3787741081939" y="251.65491631757368" type="curve" smooth="yes"/>
      <point x="776.090087890625" y="183.07154846191406"/>
      <point x="657.6165161132812" y="119.0"/>
      <point x="515.0" y="119.0" type="curve" smooth="yes"/>
      <point x="394.0" y="119.0"/>
      <point x="323.0" y="176.0"/>
      <point x="323.0" y="273.0" type="curve" smooth="yes"/>
      <point x="323.0" y="394.0"/>
      <point x="427.0" y="438.0"/>
      <point x="571.0" y="438.0" type="curve" smooth="yes"/>
      <point x="673.7448120117188" y="438.0"/>
      <point x="781.9198608398438" y="422.6141662597656"/>
      <point x="835.3263415527343" y="405.2659924316406" type="curve" smooth="yes"/>
      <point x="855.8233805297851" y="398.60788295898436"/>
      <point x="874.0" y="373.59198131689897"/>
      <point x="874.0" y="352.04066978890575" type="curve" smooth="yes"/>
    </contour>
    <contour>
      <point x="659.0" y="1149.0" type="curve" smooth="yes"/>
      <point x="659.0" y="1094.0"/>
      <point x="702.0" y="1047.0"/>
      <point x="762.0" y="1047.0" type="curve" smooth="yes"/>
      <point x="821.0" y="1047.0"/>
      <point x="864.0" y="1098.0"/>
      <point x="864.0" y="1149.0" type="curve" smooth="yes"/>
      <point x="864.0" y="1202.0"/>
      <point x="819.0" y="1251.0"/>
      <point x="762.0" y="1251.0" type="curve" smooth="yes"/>
      <point x="700.0" y="1251.0"/>
      <point x="659.0" y="1200.0"/>
    </contour>
    <contour>
      <point x="242.0" y="1147.0" type="curve" smooth="yes"/>
      <point x="242.0" y="1094.0"/>
      <point x="287.0" y="1044.0"/>
      <point x="344.0" y="1044.0" type="curve" smooth="yes"/>
      <point x="406.0" y="1044.0"/>
      <point x="446.0" y="1096.0"/>
      <point x="446.0" y="1147.0" type="curve" smooth="yes"/>
      <point x="446.0" y="1202.0"/>
      <point x="403.0" y="1249.0"/>
      <point x="344.0" y="1249.0" type="curve" smooth="yes"/>
      <point x="295.0" y="1249.0"/>
      <point x="242.0" y="1208.0"/>
    </contour>
  </outline>
</glyph>
<glyph name="uni04FF" format="2">
  <advance width="1228"/>
  <unicode hex="04FF"/>
  <outline>
    <contour>
      <point x="55.0" y="63.0" type="curve" smooth="yes"/>
      <point x="55.0" y="33.0"/>
      <point x="70.0" y="0.0"/>
      <point x="127.0" y="0.0" type="curve" smooth="yes"/>
      <point x="383.0" y="0.0" type="line" smooth="yes"/>
      <point x="401.0" y="0.0"/>
      <point x="420.0" y="0.0"/>
      <point x="434.0" y="10.0" type="curve" smooth="yes"/>
      <point x="451.0" y="23.0"/>
      <point x="461.0" y="45.0"/>
      <point x="461.0" y="66.0" type="curve" smooth="yes"/>
      <point x="461.0" y="96.0"/>
      <point x="440.0" y="127.0"/>
      <point x="389.0" y="127.0" type="curve" smooth="yes"/>
      <point x="369.86" y="127.0" type="line" smooth="yes"/>
      <point x="362.5142" y="127.0"/>
      <point x="359.72128141876595" y="132.3466687051235"/>
      <point x="363.9176200399276" y="138.37589086196493" type="curve" smooth="yes"/>
      <point x="502.57967085739364" y="337.60297536981847" type="line" smooth="yes"/>
      <point x="517.1124453029751" y="358.48339842381466"/>
      <point x="543.2300078563226" y="358.7265084857424"/>
      <point x="558.1489528857926" y="338.12023082072847" type="curve" smooth="yes"/>
      <point x="702.8719898542274" y="138.22653335051464" type="line" smooth="yes"/>
      <point x="707.1798352314869" y="132.2764706747419"/>
      <point x="704.4858" y="127.0"/>
      <point x="697.14" y="127.0" type="curve" smooth="yes"/>
      <point x="678.0" y="127.0" type="line" smooth="yes"/>
      <point x="618.0" y="127.0"/>
      <point x="608.0" y="86.0"/>
      <point x="608.0" y="61.0" type="curve" smooth="yes"/>
      <point x="608.0" y="31.0"/>
      <point x="629.0" y="0.0"/>
      <point x="680.0" y="0.0" type="curve" smooth="yes"/>
      <point x="940.0" y="0.0" type="line" smooth="yes"/>
      <point x="999.0" y="0.0"/>
      <point x="1014.0" y="35.0"/>
      <point x="1014.0" y="63.0" type="curve" smooth="yes"/>
      <point x="1014.0" y="88.0"/>
      <point x="999.0" y="127.0"/>
      <point x="944.0" y="127.0" type="curve" smooth="yes"/>
      <point x="889.0" y="127.0" type="line" smooth="yes"/>
      <point x="829.0" y="127.0"/>
      <point x="848.0" y="127.0"/>
      <point x="641.8617529681435" y="386.4197430867008" type="curve" smooth="yes"/>
      <point x="626.0350238950274" y="406.33727925074936"/>
      <point x="634.56" y="424.0"/>
      <point x="660.0" y="424.0" type="curve" smooth="yes"/>
      <point x="915.0" y="424.0" type="line" smooth="yes"/>
      <point x="934.0" y="424.0"/>
      <point x="987.0" y="428.0"/>
      <point x="987.0" y="485.0" type="curve" smooth="yes"/>
      <point x="987.0" y="504.0"/>
      <point x="979.0" y="547.0"/>
      <point x="918.0" y="547.0" type="curve" smooth="yes"/>
      <point x="707.0" y="547.0" type="line" smooth="yes"/>
      <point x="681.56" y="547.0"/>
      <point x="672.9650209750602" y="564.7181203621076"/>
      <point x="688.7128105852344" y="584.698128430016" type="curve" smooth="yes"/>
      <point x="819.0" y="750.0"/>
      <point x="807.0" y="754.0"/>
      <point x="842.0" y="756.0" type="curve"/>
      <point x="909.0" y="756.0" type="line" smooth="yes"/>
      <point x="934.0" y="756.0"/>
      <point x="985.0" y="758.0"/>
      <point x="985.0" y="817.0" type="curve" smooth="yes"/>
      <point x="985.0" y="848.0"/>
      <point x="971.0" y="881.0"/>
      <point x="911.0" y="881.0" type="curve" smooth="yes"/>
      <point x="647.0" y="881.0" type="line" smooth="yes"/>
      <point x="604.0" y="881.0"/>
      <point x="580.0" y="856.0"/>
      <point x="580.0" y="819.0" type="curve" smooth="yes"/>
      <point x="580.0" y="786.0"/>
      <point x="596.0" y="756.0"/>
      <point x="649.0" y="756.0" type="curve" smooth="yes"/>
      <point x="666.98" y="756.0" type="line" smooth="yes"/>
      <point x="673.8806" y="756.0"/>
      <point x="676.3633650595126" y="751.0784207138738"/>
      <point x="672.2624788500269" y="745.5285547103698" type="curve" smooth="yes"/>
      <point x="558.5254235943707" y="591.6044065977152" type="line" smooth="yes"/>
      <point x="543.4069490893543" y="571.1440711009261"/>
      <point x="516.3090435550606" y="570.9307365053077"/>
      <point x="500.87030543629925" y="591.1505032027823" type="curve" smooth="yes"/>
      <point x="381.6270055132419" y="747.320760521367" type="line" smooth="yes"/>
      <point x="378.1146925912237" y="751.9207574450425"/>
      <point x="380.1324" y="756.0"/>
      <point x="385.92" y="756.0" type="curve" smooth="yes"/>
      <point x="401.0" y="756.0" type="line" smooth="yes"/>
      <point x="463.0" y="756.0"/>
      <point x="473.0" y="795.0"/>
      <point x="473.0" y="817.0" type="curve" smooth="yes"/>
      <point x="473.0" y="850.0"/>
      <point x="457.0" y="881.0"/>
      <point x="399.0" y="881.0" type="curve" smooth="yes"/>
      <point x="139.0" y="881.0" type="line" smooth="yes"/>
      <point x="82.0" y="881.0"/>
      <point x="68.0" y="848.0"/>
      <point x="68.0" y="817.0" type="curve" smooth="yes"/>
      <point x="68.0" y="760.0"/>
      <point x="113.0" y="756.0"/>
      <point x="152.0" y="756.0" type="curve" smooth="yes"/>
      <point x="198.98000000000002" y="756.0" type="line" smooth="yes"/>
      <point x="217.0106" y="756.0"/>
      <point x="242.87061967172164" y="743.4209785890864"/>
      <point x="254.0013184504716" y="729.2361246576307" type="curve" smooth="yes"/>
      <point x="367.3685101227914" y="584.7620816118085" type="line" smooth="yes"/>
      <point x="383.07319975771196" y="564.74817835755"/>
      <point x="374.44" y="547.0"/>
      <point x="349.0" y="547.0" type="curve" smooth="yes"/>
      <point x="158.0" y="547.0" type="line" smooth="yes"/>
      <point x="133.0" y="547.0"/>
      <point x="84.0" y="543.0"/>
      <point x="84.0" y="485.0" type="curve" smooth="yes"/>
      <point x="84.0" y="434.0"/>
      <point x="119.0" y="424.0"/>
      <point x="164.0" y="424.0" type="curve" smooth="yes"/>
      <point x="401.0" y="424.0" type="line" smooth="yes"/>
      <point x="426.44" y="424.0"/>
      <point x="435.1869503054763" y="406.1631488727237"/>
      <point x="419.61053256484314" y="386.04925292068873" type="curve" smooth="yes"/>
      <point x="240.08694288472506" y="154.22966102940583" type="line" smooth="yes"/>
      <point x="228.91086315582078" y="139.79794068382074"/>
      <point x="202.8132" y="127.0"/>
      <point x="184.56" y="127.0" type="curve" smooth="yes"/>
      <point x="137.0" y="127.0" type="line" smooth="yes"/>
      <point x="104.0" y="127.0"/>
      <point x="55.0" y="125.0"/>
    </contour>
  </outline>
</glyph>
<glyph name="uni0601" format="2">
  <advance width="1228"/>
  <unicode hex="0601"/>
  <outline>
    <contour>
      <point x="1014.0" y="268.0" type="curve" smooth="yes"/>
      <point x="1044.0" y="268.0"/>
      <point x="1061.0" y="289.0"/>
      <point x="1061.0" y="352.0" type="curve" smooth="yes"/>
      <point x="1061.0" y="437.6890641575573"/>
      <point x="1059.0" y="557.6389280937226"/>
      <point x="969.0" y="557.6389280937226" type="curve" smooth="yes"/>
      <point x="946.0" y="557.6389280937226"/>
      <point x="940.0" y="542.7383238780499"/>
      <point x="926.0" y="519.6423873437572" type="curve" smooth="yes"/>
      <point x="893.0" y="469.72536322125364"/>
      <point x="838.0" y="373.0"/>
      <point x="647.0" y="373.0" type="curve" smooth="yes"/>
      <point x="522.0" y="373.0"/>
      <point x="520.0" y="460.03997048106635"/>
      <point x="520.0" y="496.5464508094645" type="curve" smooth="yes"/>
      <point x="520.0" y="530.8178405055118" type="line" smooth="yes"/>
      <point x="520.0" y="577.7547437848807"/>
      <point x="502.0" y="593.400378211337"/>
      <point x="471.0" y="593.400378211337" type="curve" smooth="yes"/>
      <point x="438.0" y="593.400378211337"/>
      <point x="422.0" y="577.7547437848807"/>
      <point x="422.0" y="530.8178405055118" type="curve" smooth="yes"/>
      <point x="422.0" y="506.2318435496518" type="line" smooth="yes"/>
      <point x="422.0" y="472.7054840643882"/>
      <point x="422.0" y="398.94749319680824"/>
      <point x="371.0" y="398.94749319680824" type="curve" smooth="yes"/>
      <point x="345.84417724609375" y="398.94749319680824"/>
      <point x="343.0772399902344" y="437.2143256687523"/>
      <point x="339.7886962890625" y="482.6952733030487" type="curve" smooth="yes"/>
      <point x="334.97216796875" y="549.3083589680426"/>
      <point x="329.03668212890625" y="631.3969189613025"/>
      <point x="250.0" y="631.3969189613025" type="curve" smooth="yes"/>
      <point x="168.0" y="631.3969189613025"/>
      <point x="139.0" y="557.6389280937226"/>
      <point x="94.0" y="445.1393662653937" type="curve" smooth="yes"/>
      <point x="55.0" y="334.0"/>
      <point x="14.0" y="90.0"/>
      <point x="14.0" y="16.0" type="curve" smooth="yes"/>
      <point x="14.0" y="-6.0"/>
      <point x="31.0" y="-18.0"/>
      <point x="45.0" y="-18.0" type="curve" smooth="yes"/>
      <point x="55.0" y="-18.0"/>
      <point x="76.0" y="-8.0"/>
      <point x="78.0" y="16.0" type="curve" smooth="yes"/>
      <point x="106.0" y="260.0"/>
      <point x="172.0" y="504.7417831280845"/>
      <point x="236.0" y="504.7417831280845" type="curve" smooth="yes"/>
      <point x="270.71429443359375" y="504.7417831280845"/>
      <point x="274.0204162597656" y="461.2259527154077"/>
      <point x="277.798828125" y="411.49354911632827" type="curve" smooth="yes"/>
      <point x="282.83673095703125" y="328.83673095703125"/>
      <point x="288.71429443359375" y="225.0"/>
      <point x="371.0" y="225.0" type="curve" smooth="yes"/>
      <point x="424.0" y="225.0"/>
      <point x="442.0" y="264.0"/>
      <point x="456.5" y="294.74" type="curve" smooth="yes"/>
      <point x="462.065" y="306.5378"/>
      <point x="471.935" y="306.5378"/>
      <point x="477.5" y="294.74" type="curve" smooth="yes"/>
      <point x="492.0" y="264.0"/>
      <point x="530.0" y="197.0"/>
      <point x="647.0" y="197.0" type="curve" smooth="yes"/>
      <point x="852.0" y="197.0"/>
      <point x="940.0" y="391.0"/>
      <point x="954.0" y="391.0" type="curve" smooth="yes"/>
      <point x="963.0" y="391.0"/>
      <point x="965.0" y="365.0"/>
      <point x="965.0" y="352.0" type="curve" smooth="yes"/>
      <point x="965.0" y="289.0"/>
      <point x="981.0" y="268.0"/>
    </contour>
  </outline>
</glyph>
<glyph name="uni0603" format="2">
  <advance width="1228"/>
  <unicode hex="0603"/>
  <outline>
    <contour>
      <point x="444.0" y="693.9794566671278" type="curve" smooth="yes"/>
      <point x="401.0" y="693.9794566671278"/>
      <point x="391.0" y="678.3338222406715"/>
      <point x="391.0" y="631.3969189613025" type="curve" smooth="yes"/>
      <point x="391.0" y="487.6060882800609"/>
      <point x="389.0" y="437.6890641575573"/>
      <point x="334.0" y="392.9872515105392" type="curve" smooth="yes"/>
      <point x="299.0" y="356.0"/>
      <point x="215.0" y="338.0"/>
      <point x="59.0" y="338.0" type="curve" smooth="yes"/>
      <point x="45.0" y="338.0"/>
      <point x="45.0" y="293.0"/>
      <point x="45.0" y="270.0" type="curve" smooth="yes"/>
      <point x="45.0" y="246.0"/>
      <point x="45.0" y="197.0"/>
      <point x="59.0" y="197.0" type="curve" smooth="yes"/>
      <point x="229.0" y="197.0"/>
      <point x="293.0" y="197.0"/>
      <point x="367.0" y="229.0" type="curve"/>
      <point x="401.0" y="246.0"/>
      <point x="436.0" y="281.0"/>
      <point x="447.02" y="301.88" type="curve" smooth="yes"/>
      <point x="451.2494" y="309.8936"/>
      <point x="458.84151556606713" y="309.9423318669929"/>
      <point x="463.17343737461096" y="301.9836848233892" type="curve" smooth="yes"/>
      <point x="498.0" y="238.0"/>
      <point x="586.0" y="199.0"/>
      <point x="676.0" y="199.0" type="curve" smooth="yes"/>
      <point x="887.0" y="199.0"/>
      <point x="1030.0" y="369.0"/>
      <point x="1030.0" y="573.284562520179" type="curve" smooth="yes"/>
      <point x="1030.0" y="637.3571606475716"/>
      <point x="993.0" y="714.8403025690696"/>
      <point x="903.0" y="714.8403025690696" type="curve" smooth="yes"/>
      <point x="776.0" y="714.8403025690696"/>
      <point x="692.0" y="658.963036760297"/>
      <point x="621.0" y="550.1886259858862" type="curve" smooth="yes"/>
      <point x="592.0" y="507.72190397121904"/>
      <point x="569.0" y="460.03997048106635"/>
      <point x="559.72" y="435.40927171255936" type="curve" smooth="yes"/>
      <point x="556.1584" y="425.95617939209444"/>
      <point x="543.303303053769" y="422.43325374423466"/>
      <point x="532.3687299016361" y="427.91368522775133" type="curve" smooth="yes"/>
      <point x="498.0" y="445.1393662653936"/>
      <point x="494.0" y="460.03997048106635"/>
      <point x="494.0" y="631.3969189613025" type="curve" smooth="yes"/>
      <point x="494.0" y="679.8238826622387"/>
      <point x="485.0" y="693.9794566671278"/>
    </contour>
    <contour>
      <point x="639.92" y="387.64" type="curve" smooth="yes"/>
      <point x="634.1324" y="389.4208"/>
      <point x="630.6396279387563" y="395.30684044799875"/>
      <point x="632.4885700824603" y="399.60282802307154" type="curve" smooth="yes"/>
      <point x="688.0" y="528.5827498731608"/>
      <point x="756.0" y="609.791042848577"/>
      <point x="885.0" y="609.791042848577" type="curve" smooth="yes"/>
      <point x="924.0" y="609.791042848577"/>
      <point x="930.0" y="567.3243208339098"/>
      <point x="930.0" y="542.7383238780499" type="curve" smooth="yes"/>
      <point x="930.0" y="469.7253632212536"/>
      <point x="848.0" y="381.0"/>
      <point x="709.0" y="381.0" type="curve" smooth="yes"/>
      <point x="672.0" y="381.0"/>
      <point x="655.0" y="383.0"/>
    </contour>
  </outline>
</glyph>
<glyph name="uni0606" format="2">
  <advance width="1228"/>
  <unicode hex="0606"/>
  <outline>
    <contour>
      <point x="-74.0" y="1087.3554079608873" type="curve" smooth="yes"/>
      <point x="-74.0" y="1049.3588672109217"/>
      <point x="-35.0" y="1033.7132327844654"/>
      <point x="8.0" y="1033.7132327844654" type="curve" smooth="yes"/>
      <point x="176.0" y="1033.7132327844654" type="line" smooth="yes"/>
      <point x="188.0" y="1033.7132327844654"/>
      <point x="200.0" y="1032.2231723628981"/>
      <point x="206.0" y="1021.7927494119274" type="curve" smooth="yes"/>
      <point x="247.0" y="947.2897283335637"/>
      <point x="282.0" y="869.0615562012821"/>
      <point x="321.0" y="793.0684747013513" type="curve" smooth="yes"/>
      <point x="645.0" y="74.0" type="line" smooth="yes"/>
      <point x="661.0" y="31.0"/>
      <point x="679.0" y="-12.0"/>
      <point x="735.0" y="-12.0" type="curve" smooth="yes"/>
      <point x="782.0" y="-12.0"/>
      <point x="798.0" y="33.0"/>
      <point x="813.0" y="74.0" type="curve" smooth="yes"/>
      <point x="972.8578603193483" y="505.40130308289486" type="line" smooth="yes"/>
      <point x="975.5831943500937" y="511.3696136942906"/>
      <point x="984.1194" y="513.4267493012314"/>
      <point x="991.02" y="509.77818735298183" type="curve" smooth="yes"/>
      <point x="1009.0" y="500.27160186338267"/>
      <point x="1044.0" y="461.5300309026336"/>
      <point x="1085.0" y="461.5300309026336" type="curve" smooth="yes"/>
      <point x="1116.0" y="461.5300309026336"/>
      <point x="1148.0" y="486.11602785849357"/>
      <point x="1148.0" y="509.2119643927863" type="curve" smooth="yes"/>
      <point x="1148.0" y="536.7780821917808"/>
      <point x="1069.0" y="588.1851667358517"/>
      <point x="1024.0" y="620.221465799548" type="curve" smooth="yes"/>
      <point x="1001.0" y="637.3571606475716"/>
      <point x="972.0" y="658.963036760297"/>
      <point x="935.0" y="658.963036760297" type="curve" smooth="yes"/>
      <point x="895.0" y="658.963036760297"/>
      <point x="882.0" y="632.8869793828698"/>
      <point x="872.0" y="608.3009824270098" type="curve" smooth="yes"/>
      <point x="742.7311134656977" y="309.34900295628717" type="line" smooth="yes"/>
      <point x="734.3936233288779" y="285.31403138945495"/>
      <point x="719.0152504061484" y="285.09970080175276"/>
      <point x="710.0111710769115" y="308.89298042926123" type="curve" smooth="yes"/>
      <point x="327.0" y="1084.3752871177526" type="line" smooth="yes"/>
      <point x="309.0" y="1120.881767446151"/>
      <point x="288.0" y="1140.997583137309"/>
      <point x="235.0" y="1140.997583137309" type="curve" smooth="yes"/>
      <point x="14.0" y="1140.997583137309" type="line" smooth="yes"/>
      <point x="-41.0" y="1140.997583137309"/>
      <point x="-74.0" y="1120.881767446151"/>
    </contour>
    <contour>
      <point x="569.0" y="1139.5075227157417" type="curve" smooth="yes"/>
      <point x="545.0" y="1139.5075227157417"/>
      <point x="524.0" y="1120.881767446151"/>
      <point x="524.0" y="1107.4712236520454" type="curve" smooth="yes"/>
      <point x="524.0" y="1099.2758913334253"/>
      <point x="526.0" y="1096.2957704902908"/>
      <point x="541.0" y="1084.3752871177526" type="curve"/>
      <point x="584.0" y="1044.88868594622"/>
      <point x="659.0" y="959.210211706102"/>
      <point x="659.0" y="771.462598588626" type="curve" smooth="yes"/>
      <point x="659.0" y="751.3467828974677"/>
      <point x="680.0" y="742.4064203680641"/>
      <point x="705.0" y="742.4064203680641" type="curve" smooth="yes"/>
      <point x="725.0" y="742.4064203680641"/>
      <point x="748.0" y="751.3467828974677"/>
      <point x="748.0" y="771.462598588626" type="curve" smooth="yes"/>
      <point x="748.0" y="863.101314515013"/>
      <point x="729.0" y="950.2698491766982"/>
      <point x="701.0654851805045" y="1001.4995290883469" type="curve" smooth="yes"/>
      <point x="695.2007780348372" y="1012.2549358598446"/>
      <point x="703.818" y="1021.7927494119274"/>
      <point x="719.4" y="1021.7927494119274" type="curve" smooth="yes"/>
      <point x="760.0" y="1021.7927494119274"/>
      <point x="756.0" y="1055.319108897191"/>
      <point x="768.0" y="1055.319108897191" type="curve" smooth="yes"/>
      <point x="778.0" y="1055.319108897191"/>
      <point x="776.0" y="1033.7132327844654"/>
      <point x="825.0" y="1033.7132327844654" type="curve" smooth="yes"/>
      <point x="881.0" y="1033.7132327844654"/>
      <point x="926.0" y="1076.9249850099163"/>
      <point x="926.0" y="1107.4712236520454" type="curve" smooth="yes"/>
      <point x="926.0" y="1123.8618882892854"/>
      <point x="903.0" y="1139.5075227157417"/>
      <point x="874.0" y="1139.5075227157417" type="curve" smooth="yes"/>
      <point x="827.0" y="1139.5075227157417"/>
      <point x="850.0" y="1090.3355288040218"/>
      <point x="825.0" y="1090.3355288040218" type="curve" smooth="yes"/>
      <point x="795.0" y="1090.3355288040218"/>
      <point x="809.0" y="1125.3519487108526"/>
      <point x="766.0" y="1125.3519487108526" type="curve" smooth="yes"/>
      <point x="717.0" y="1125.3519487108526"/>
      <point x="717.0" y="1072.4548037452146"/>
      <point x="678.0" y="1072.4548037452146" type="curve" smooth="yes"/>
      <point x="664.0" y="1072.4548037452146"/>
      <point x="657.0" y="1078.4150454314836"/>
      <point x="647.0" y="1090.3355288040218" type="curve" smooth="yes"/>
      <point x="633.0" y="1107.4712236520454"/>
      <point x="604.0" y="1139.5075227157417"/>
    </contour>
  </outline>
</glyph>
<glyph name="uni0607" format="2">
  <advance width="1228"/>
  <unicode hex="0607"/>
  <outline>
    <contour>
      <point x="-74.0" y="1087.3554079608873" type="curve" smooth="yes"/>
      <point x="-74.0" y="1049.3588672109217"/>
      <point x="-35.0" y="1033.7132327844654"/>
      <point x="8.0" y="1033.7132327844654" type="curve" smooth="yes"/>
      <point x="176.0" y="1033.7132327844654" type="line" smooth="yes"/>
      <point x="188.0" y="1033.7132327844654"/>
      <point x="200.0" y="1032.2231723628981"/>
      <point x="206.0" y="1021.7927494119274" type="curve" smooth="yes"/>
      <point x="247.0" y="947.2897283335637"/>
      <point x="282.0" y="869.0615562012821"/>
      <point x="321.0" y="793.0684747013513" type="curve" smooth="yes"/>
      <point x="645.0" y="74.0" type="line" smooth="yes"/>
      <point x="661.0" y="31.0"/>
      <point x="679.0" y="-12.0"/>
      <point x="735.0" y="-12.0" type="curve" smooth="yes"/>
      <point x="782.0" y="-12.0"/>
      <point x="798.0" y="33.0"/>
      <point x="813.0" y="74.0" type="curve" smooth="yes"/>
      <point x="972.8578603193483" y="505.40130308289486" type="line" smooth="yes"/>
      <point x="975.5831943500937" y="511.3696136942906"/>
      <point x="984.1194" y="513.4267493012314"/>
      <point x="991.02" y="509.77818735298183" type="curve" smooth="yes"/>
      <point x="1009.0" y="500.27160186338267"/>
      <point x="1044.0" y="461.5300309026336"/>
      <point x="1085.0" y="461.5300309026336" type="curve" smooth="yes"/>
      <point x="1116.0" y="461.5300309026336"/>
      <point x="1148.0" y="486.11602785849357"/>
      <point x="1148.0" y="509.2119643927863" type="curve" smooth="yes"/>
      <point x="1148.0" y="536.7780821917808"/>
      <point x="1069.0" y="588.1851667358517"/>
      <point x="1024.0" y="620.221465799548" type="curve" smooth="yes"/>
      <point x="1001.0" y="637.3571606475716"/>
      <point x="972.0" y="658.963036760297"/>
      <point x="935.0" y="658.963036760297" type="curve" smooth="yes"/>
      <point x="895.0" y="658.963036760297"/>
      <point x="882.0" y="632.8869793828698"/>
      <point x="872.0" y="608.3009824270098" type="curve" smooth="yes"/>
      <point x="742.7311134656977" y="309.34900295628717" type="line" smooth="yes"/>
      <point x="734.3936233288779" y="285.31403138945495"/>
      <point x="719.0152504061484" y="285.09970080175276"/>
      <point x="710.0111710769115" y="308.89298042926123" type="curve" smooth="yes"/>
      <point x="327.0" y="1084.3752871177526" type="line" smooth="yes"/>
      <point x="309.0" y="1120.881767446151"/>
      <point x="288.0" y="1140.997583137309"/>
      <point x="235.0" y="1140.997583137309" type="curve" smooth="yes"/>
      <point x="14.0" y="1140.997583137309" type="line" smooth="yes"/>
      <point x="-41.0" y="1140.997583137309"/>
      <point x="-74.0" y="1120.881767446151"/>
    </contour>
    <contour>
      <point x="561.0" y="823.6147133434804" type="curve" smooth="yes"/>
      <point x="561.0" y="771.462598588626"/>
      <point x="594.0" y="742.4064203680641"/>
      <point x="690.0" y="742.4064203680641" type="curve" smooth="yes"/>
      <point x="827.0" y="742.4064203680641" type="line" smooth="yes"/>
      <point x="864.0" y="742.4064203680641"/>
      <point x="877.0" y="751.3467828974677"/>
      <point x="877.0" y="771.462598588626" type="curve" smooth="yes"/>
      <point x="877.0" y="791.578414279784"/>
      <point x="864.0" y="800.5187768091877"/>
      <point x="827.0" y="800.5187768091877" type="curve" smooth="yes"/>
      <point x="690.0" y="800.5187768091877" type="line" smooth="yes"/>
      <point x="662.0" y="800.5187768091877"/>
      <point x="647.0" y="803.4988976523222"/>
      <point x="647.0" y="823.6147133434804" type="curve" smooth="yes"/>
      <point x="647.0" y="854.1609519856094"/>
      <point x="694.0" y="902.5879156865457"/>
      <point x="754.0" y="915.2534292698674" type="curve" smooth="yes"/>
      <point x="774.0" y="919.7236105345694"/>
      <point x="827.0" y="925.6838522208384"/>
      <point x="827.0" y="942.0745168580784" type="curve" smooth="yes"/>
      <point x="827.0" y="957.7201512845347"/>
      <point x="807.0" y="972.6207555002075"/>
      <point x="793.0" y="972.6207555002075" type="curve" smooth="yes"/>
      <point x="772.0" y="972.6207555002075"/>
      <point x="756.0" y="969.640634657073"/>
      <point x="737.0" y="965.170453392371" type="curve" smooth="yes"/>
      <point x="717.0" y="960.7002721276692"/>
      <point x="694.0" y="956.2300908629675"/>
      <point x="674.0" y="956.2300908629675" type="curve" smooth="yes"/>
      <point x="639.0" y="956.2300908629675"/>
      <point x="616.0" y="980.8160878188273"/>
      <point x="616.0" y="1014.3424473040909" type="curve" smooth="yes"/>
      <point x="616.0" y="1070.9647433236473"/>
      <point x="643.0" y="1082.8852266961853"/>
      <point x="664.0" y="1082.8852266961853" type="curve" smooth="yes"/>
      <point x="680.0" y="1082.8852266961853"/>
      <point x="686.0" y="1076.9249850099163"/>
      <point x="694.0" y="1072.4548037452146" type="curve"/>
      <point x="702.0" y="1065.7495318481617"/>
      <point x="711.0" y="1062.7694110050272"/>
      <point x="729.0" y="1062.7694110050272" type="curve" smooth="yes"/>
      <point x="758.0" y="1062.7694110050272"/>
      <point x="780.0" y="1082.8852266961853"/>
      <point x="780.0" y="1100.7659517549926" type="curve" smooth="yes"/>
      <point x="780.0" y="1125.3519487108526"/>
      <point x="743.0" y="1139.5075227157417"/>
      <point x="696.0" y="1139.5075227157417" type="curve" smooth="yes"/>
      <point x="612.0" y="1139.5075227157417"/>
      <point x="537.0" y="1087.3554079608873"/>
      <point x="537.0" y="1014.3424473040909" type="curve" smooth="yes"/>
      <point x="537.0" y="965.170453392371"/>
      <point x="578.0" y="927.1739126424056"/>
      <point x="607.58" y="917.2352096305519" type="curve" smooth="yes"/>
      <point x="618.9326" y="913.4208039573821"/>
      <point x="621.0950330479956" y="904.2924234582947"/>
      <point x="612.180921378714" y="897.8131234622813" type="curve" smooth="yes"/>
      <point x="588.0" y="880.2370093630366"/>
      <point x="561.0" y="849.6907707209075"/>
    </contour>
  </outline>
</glyph>
<glyph name="uni060A" format="2">
  <advance width="1228"/>
  <unicode hex="060A"/>
  <outline>
    <contour>
      <point x="731.0" y="1105.9811632304782" type="curve" smooth="yes"/>
      <point x="731.0" y="1132.802250818689"/>
      <point x="700.0" y="1158.8783081961162"/>
      <point x="659.0" y="1158.8783081961162" type="curve" smooth="yes"/>
      <point x="610.0" y="1158.8783081961162"/>
      <point x="596.0" y="1129.8221299755544"/>
      <point x="586.0" y="1111.9414049167472" type="curve" smooth="yes"/>
      <point x="26.0" y="-53.0" type="line" smooth="yes"/>
      <point x="18.0" y="-74.0"/>
      <point x="14.0" y="-84.0"/>
      <point x="14.0" y="-98.0" type="curve" smooth="yes"/>
      <point x="14.0" y="-137.0"/>
      <point x="47.0" y="-170.0"/>
      <point x="86.0" y="-170.0" type="curve" smooth="yes"/>
      <point x="135.0" y="-170.0"/>
      <point x="149.0" y="-133.0"/>
      <point x="158.0" y="-111.0" type="curve" smooth="yes"/>
      <point x="719.0" y="1072.4548037452146" type="line" smooth="yes"/>
      <point x="727.0" y="1087.3554079608873"/>
      <point x="731.0" y="1094.8057100687236"/>
    </contour>
    <contour>
      <point x="88.0" y="956.2300908629675" type="curve" smooth="yes"/>
      <point x="88.0" y="914.5083990590838"/>
      <point x="200.0" y="813.929320603293"/>
      <point x="252.0" y="813.929320603293" type="curve" smooth="yes"/>
      <point x="297.0" y="813.929320603293"/>
      <point x="413.0" y="911.5282782159493"/>
      <point x="413.0" y="956.2300908629675" type="curve" smooth="yes"/>
      <point x="413.0" y="995.7166920345"/>
      <point x="299.0" y="1097.785830911858"/>
      <point x="252.0" y="1097.785830911858" type="curve" smooth="yes"/>
      <point x="202.0" y="1097.785830911858"/>
      <point x="88.0" y="997.2067524560673"/>
    </contour>
    <contour>
      <point x="752.0" y="466.7452423781191" type="curve" smooth="yes"/>
      <point x="752.0" y="428.00367141737"/>
      <point x="854.0" y="317.0"/>
      <point x="899.0" y="317.0" type="curve" smooth="yes"/>
      <point x="940.0" y="317.0"/>
      <point x="1047.0" y="425.0235505742355"/>
      <point x="1047.0" y="466.7452423781191" type="curve" smooth="yes"/>
      <point x="1047.0" y="501.7616622849499"/>
      <point x="942.0" y="594.8904386329043"/>
      <point x="899.0" y="594.8904386329043" type="curve" smooth="yes"/>
      <point x="854.0" y="594.8904386329043"/>
      <point x="752.0" y="503.25172270651717"/>
    </contour>
    <contour>
      <point x="512.0" y="262.0" type="curve" smooth="yes"/>
      <point x="512.0" y="211.0"/>
      <point x="614.0" y="88.0"/>
      <point x="659.0" y="88.0" type="curve" smooth="yes"/>
      <point x="700.0" y="88.0"/>
      <point x="807.0" y="207.0"/>
      <point x="807.0" y="262.0" type="curve" smooth="yes"/>
      <point x="807.0" y="309.0"/>
      <point x="702.0" y="423.5334901526682"/>
      <point x="659.0" y="423.5334901526682" type="curve" smooth="yes"/>
      <point x="614.0" y="423.5334901526682"/>
      <point x="512.0" y="311.0"/>
    </contour>
    <contour>
      <point x="264.0" y="47.0" type="curve" smooth="yes"/>
      <point x="264.0" y="-4.0"/>
      <point x="367.0" y="-127.0"/>
      <point x="412.0" y="-127.0" type="curve" smooth="yes"/>
      <point x="453.0" y="-127.0"/>
      <point x="559.0" y="-8.0"/>
      <point x="559.0" y="47.0" type="curve" smooth="yes"/>
      <point x="559.0" y="94.0"/>
      <point x="455.0" y="219.0"/>
      <point x="412.0" y="219.0" type="curve" smooth="yes"/>
      <point x="367.0" y="219.0"/>
      <point x="264.0" y="96.0"/>
    </contour>
  </outline>
</glyph>
<glyph name="uni060C" format="2">
  <advance width="1228"/>
  <unicode hex="060C"/>
  <outline>
    <contour>
      <point x="465.0" y="571.7945020986117" type="curve" smooth="yes"/>
      <point x="465.0" y="698.4496379318297"/>
      <point x="610.0" y="749.8567224759006"/>
      <point x="676.0" y="749.8567224759006" type="curve" smooth="yes"/>
      <point x="700.0" y="749.8567224759006"/>
      <point x="725.0" y="765.502356902357"/>
      <point x="725.0" y="796.0485955444858" type="curve" smooth="yes"/>
      <point x="725.0" y="823.6147133434804"/>
      <point x="705.0" y="838.5153175591531"/>
      <point x="664.0" y="838.5153175591531" type="curve" smooth="yes"/>
      <point x="578.0" y="838.5153175591531"/>
      <point x="307.0" y="755.071933951386"/>
      <point x="307.0" y="513.6821456574881" type="curve" smooth="yes"/>
      <point x="307.0" y="391.0"/>
      <point x="416.0" y="313.0"/>
      <point x="518.0" y="313.0" type="curve" smooth="yes"/>
      <point x="606.0" y="313.0"/>
      <point x="670.0" y="383.0"/>
      <point x="670.0" y="446.6294266869609" type="curve" smooth="yes"/>
      <point x="670.0" y="486.1160278584936"/>
      <point x="629.0" y="519.6423873437572"/>
      <point x="604.0" y="519.6423873437572" type="curve" smooth="yes"/>
      <point x="575.0" y="519.6423873437572"/>
      <point x="569.0" y="510.7020248143536"/>
      <point x="537.0" y="510.7020248143536" type="curve" smooth="yes"/>
      <point x="514.0" y="510.7020248143536"/>
      <point x="465.0" y="524.112568608459"/>
    </contour>
  </outline>
</glyph>
<glyph name="uni0612" format="2">
  <unicode hex="0612"/>
  <outline>
    <contour>
      <point x="178.0" y="1287.0235044509016" type="line" smooth="yes"/>
      <point x="76.0" y="1287.0235044509016"/>
      <point x="61.0" y="1202.0900604215672"/>
      <point x="61.0" y="1163.348489460818" type="curve" smooth="yes"/>
      <point x="61.0" y="1135.03734145104"/>
      <point x="76.0" y="1114.9215257598817"/>
      <point x="115.0" y="1114.9215257598817" type="curve" smooth="yes"/>
      <point x="154.0" y="1114.9215257598817"/>
      <point x="168.0" y="1135.03734145104"/>
      <point x="168.0" y="1163.348489460818" type="curve" smooth="yes"/>
      <point x="168.0" y="1174.5239426225726"/>
      <point x="170.0" y="1183.464305151976"/>
      <point x="174.64" y="1190.3781855080483" type="curve" smooth="yes"/>
      <point x="176.42079999999999" y="1193.0316851067753"/>
      <point x="181.53119855006767" y="1195.3847885245143"/>
      <point x="185.5131884043993" y="1195.3847885245143" type="curve" smooth="yes"/>
      <point x="298.0" y="1195.3847885245143" type="line" smooth="yes"/>
      <point x="323.44" y="1195.3847885245143"/>
      <point x="328.46757489495417" y="1184.8072571692833"/>
      <point x="308.69696786160455" y="1172.8794026623204" type="curve" smooth="yes"/>
      <point x="162.0" y="1084.3752871177526"/>
      <point x="76.0" y="989.756450348231"/>
      <point x="76.0" y="890.6674323140076" type="curve" smooth="yes"/>
      <point x="76.0" y="870.5516166228493"/>
      <point x="76.0" y="838.5153175591531"/>
      <point x="131.0" y="838.5153175591531" type="curve" smooth="yes"/>
      <point x="156.0" y="838.5153175591531"/>
      <point x="178.0" y="852.6708915640421"/>
      <point x="180.0" y="890.6674323140076" type="curve" smooth="yes"/>
      <point x="186.0" y="992.7365711913656"/>
      <point x="342.0" y="1091.825589225589"/>
      <point x="453.0" y="1154.4081269314145" type="curve" smooth="yes"/>
      <point x="494.18" y="1178.1745906554124" type="line" smooth="yes"/>
      <point x="509.9846" y="1187.2959955260364"/>
      <point x="541.7286741230132" y="1195.3847885245143"/>
      <point x="561.7205832404537" y="1195.3847885245143" type="curve" smooth="yes"/>
      <point x="655.0" y="1195.3847885245143" type="line" smooth="yes"/>
      <point x="702.0" y="1195.3847885245143"/>
      <point x="717.0" y="1203.5801208431344"/>
      <point x="717.0" y="1241.5766615930997" type="curve" smooth="yes"/>
      <point x="717.0" y="1279.573202343065"/>
      <point x="702.0" y="1287.0235044509016"/>
      <point x="655.0" y="1287.0235044509016" type="curve" smooth="yes"/>
    </contour>
    <contour>
      <point x="905.0" y="1100.7659517549926" type="curve" smooth="yes"/>
      <point x="905.0" y="986.7763295050966"/>
      <point x="819.0" y="884.7071906277384"/>
      <point x="606.0" y="884.7071906277384" type="curve" smooth="yes"/>
      <point x="475.0" y="884.7071906277384"/>
      <point x="518.0" y="936.1142751718094"/>
      <point x="445.0" y="936.1142751718094" type="curve" smooth="yes"/>
      <point x="414.0" y="936.1142751718094"/>
      <point x="383.0" y="916.7434896914347"/>
      <point x="383.0" y="884.7071906277384" type="curve" smooth="yes"/>
      <point x="383.0" y="841.4954384022876"/>
      <point x="473.0" y="799.0287163876203"/>
      <point x="606.0" y="799.0287163876203" type="curve" smooth="yes"/>
      <point x="822.0" y="799.0287163876203"/>
      <point x="1026.0" y="913.7633688483002"/>
      <point x="1026.0" y="1100.7659517549926" type="curve" smooth="yes"/>
      <point x="1026.0" y="1199.1099395784324"/>
      <point x="985.0" y="1288.5135648724688"/>
      <point x="875.0" y="1288.5135648724688" type="curve" smooth="yes"/>
      <point x="834.0" y="1288.5135648724688"/>
      <point x="811.0" y="1264.6725981273923"/>
      <point x="811.0" y="1237.106480328398" type="curve" smooth="yes"/>
      <point x="811.0" y="1206.560241686269"/>
      <point x="828.0" y="1196.8748489460816"/>
      <point x="848.0" y="1189.4245468382453" type="curve"/>
      <point x="875.0" y="1177.504063465707"/>
      <point x="905.0" y="1161.8584290392507"/>
    </contour>
  </outline>
</glyph>
<glyph name="uni0618" format="2">
  <unicode hex="0618"/>
  <outline>
    <contour>
      <point x="743.0" y="1459.8705133527048" type="curve" smooth="yes"/>
      <point x="723.0" y="1459.8705133527048"/>
      <point x="690.0" y="1439.7546976615465"/>
      <point x="666.0" y="1423.3640330243068" type="curve" smooth="yes"/>
      <point x="387.0" y="1244.5567824362342" type="line" smooth="yes"/>
      <point x="360.0" y="1225.9310271666432"/>
      <point x="342.0" y="1208.050302107836"/>
      <point x="342.0" y="1193.894728102947" type="curve" smooth="yes"/>
      <point x="342.0" y="1171.5438217794378"/>
      <point x="393.0" y="1123.8618882892852"/>
      <point x="426.0" y="1123.8618882892852" type="curve" smooth="yes"/>
      <point x="446.0" y="1123.8618882892852"/>
      <point x="479.0" y="1140.9975831373088"/>
      <point x="514.0" y="1161.8584290392507" type="curve" smooth="yes"/>
      <point x="795.0" y="1337.6855587841885" type="line" smooth="yes"/>
      <point x="819.0" y="1354.0762234214285"/>
      <point x="834.0" y="1371.211918269452"/>
      <point x="834.0" y="1386.1125224851248" type="curve" smooth="yes"/>
      <point x="834.0" y="1413.6786402841194"/>
      <point x="786.0" y="1459.8705133527048"/>
    </contour>
  </outline>
</glyph>
<glyph name="uni0619" format="2">
  <unicode hex="0619"/>
  <outline>
    <contour>
      <point x="588.0" y="1266.1626585489596" type="curve" smooth="yes"/>
      <point x="588.0" y="1184.9543655735436"/>
      <point x="524.0" y="1151.42800608828"/>
      <point x="438.0" y="1151.42800608828" type="curve" smooth="yes"/>
      <point x="416.0" y="1151.42800608828"/>
      <point x="393.0" y="1139.5075227157417"/>
      <point x="393.0" y="1104.491102808911" type="curve" smooth="yes"/>
      <point x="393.0" y="1081.395166274618"/>
      <point x="414.0" y="1064.2594714265945"/>
      <point x="446.0" y="1064.2594714265945" type="curve" smooth="yes"/>
      <point x="555.0" y="1064.2594714265945"/>
      <point x="719.0" y="1103.0010423873437"/>
      <point x="719.0" y="1311.6095014067614" type="curve" smooth="yes"/>
      <point x="719.0" y="1410.698519440985"/>
      <point x="633.0" y="1458.3804529311376"/>
      <point x="549.0" y="1458.3804529311376" type="curve" smooth="yes"/>
      <point x="461.0" y="1458.3804529311376"/>
      <point x="408.0" y="1416.6587611272541"/>
      <point x="408.0" y="1362.2715557400486" type="curve" smooth="yes"/>
      <point x="408.0" y="1325.7650754116505"/>
      <point x="424.0" y="1295.2188367695214"/>
      <point x="463.0" y="1295.2188367695214" type="curve" smooth="yes"/>
      <point x="504.0" y="1295.2188367695214"/>
      <point x="504.0" y="1307.1393201420597"/>
      <point x="535.0" y="1307.1393201420597" type="curve" smooth="yes"/>
      <point x="555.0" y="1307.1393201420597"/>
      <point x="588.0" y="1293.7287763479542"/>
    </contour>
  </outline>
</glyph>
<glyph name="uni061B" format="2">
  <advance width="1228"/>
  <unicode hex="061B"/>
  <outline>
    <contour>
      <point x="465.0" y="971.8757252894238" type="curve" smooth="yes"/>
      <point x="465.0" y="1098.5308611226417"/>
      <point x="610.0" y="1149.9379456667125"/>
      <point x="676.0" y="1149.9379456667125" type="curve" smooth="yes"/>
      <point x="700.0" y="1149.9379456667125"/>
      <point x="725.0" y="1165.5835800931688"/>
      <point x="725.0" y="1196.129818735298" type="curve" smooth="yes"/>
      <point x="725.0" y="1223.6959365342925"/>
      <point x="705.0" y="1238.5965407499652"/>
      <point x="664.0" y="1238.5965407499652" type="curve" smooth="yes"/>
      <point x="578.0" y="1238.5965407499652"/>
      <point x="307.0" y="1155.153157142198"/>
      <point x="307.0" y="913.7633688483002" type="curve" smooth="yes"/>
      <point x="307.0" y="791.578414279784"/>
      <point x="416.0" y="733.4660578386605"/>
      <point x="518.0" y="733.4660578386605" type="curve" smooth="yes"/>
      <point x="606.0" y="733.4660578386605"/>
      <point x="670.0" y="785.6181725935149"/>
      <point x="670.0" y="846.710649877773" type="curve" smooth="yes"/>
      <point x="670.0" y="886.1972510493057"/>
      <point x="629.0" y="919.7236105345694"/>
      <point x="604.0" y="919.7236105345694" type="curve" smooth="yes"/>
      <point x="575.0" y="919.7236105345694"/>
      <point x="569.0" y="910.7832480051657"/>
      <point x="537.0" y="910.7832480051657" type="curve" smooth="yes"/>
      <point x="514.0" y="910.7832480051657"/>
      <point x="465.0" y="924.1937917992711"/>
    </contour>
    <contour>
      <point x="401.0" y="340.0" type="curve" smooth="yes"/>
      <point x="401.0" y="299.0"/>
      <point x="500.0" y="197.0"/>
      <point x="537.0" y="197.0" type="curve" smooth="yes"/>
      <point x="569.0" y="197.0"/>
      <point x="672.0" y="295.0"/>
      <point x="672.0" y="340.0" type="curve" smooth="yes"/>
      <point x="672.0" y="379.0"/>
      <point x="571.0" y="462.2750611134173"/>
      <point x="537.0" y="462.2750611134173" type="curve" smooth="yes"/>
      <point x="502.0" y="462.2750611134173"/>
      <point x="401.0" y="383.0"/>
    </contour>
  </outline>
</glyph>
<glyph name="uni0621" format="2">
  <advance width="1228"/>
  <unicode hex="0621"/>
  <unicode hex="FE80"/>
  <outline>
    <contour>
      <point x="559.0" y="800.5187768091877" type="curve" smooth="yes"/>
      <point x="422.0" y="800.5187768091877"/>
      <point x="299.0" y="681.313943083806"/>
      <point x="299.0" y="571.7945020986117" type="curve" smooth="yes"/>
      <point x="299.0" y="495.0563903878972"/>
      <point x="416.0" y="423.5334901526682"/>
      <point x="451.38" y="418.34807988561414" type="curve" smooth="yes"/>
      <point x="464.9586" y="416.3579551865689"/>
      <point x="467.7208999901505" y="408.60942499191395"/>
      <point x="457.25723402159673" y="401.8618454289016" type="curve" smooth="yes"/>
      <point x="358.0" y="319.0"/>
      <point x="240.0" y="238.0"/>
      <point x="240.0" y="164.0" type="curve" smooth="yes"/>
      <point x="240.0" y="117.0"/>
      <point x="268.0" y="94.0"/>
      <point x="301.0" y="94.0" type="curve" smooth="yes"/>
      <point x="340.0" y="94.0"/>
      <point x="365.0" y="111.0"/>
      <point x="381.0" y="135.0" type="curve" smooth="yes"/>
      <point x="451.0" y="240.0"/>
      <point x="508.0" y="299.0"/>
      <point x="614.0" y="373.0" type="curve" smooth="yes"/>
      <point x="764.0" y="455.56978921636454"/>
      <point x="836.0" y="471.2154236428209"/>
      <point x="836.0" y="484.6259674369263" type="curve" smooth="yes"/>
      <point x="836.0" y="507.72190397121904"/>
      <point x="803.0" y="551.6786864074535"/>
      <point x="778.0" y="551.6786864074535" type="curve" smooth="yes"/>
      <point x="754.0" y="551.6786864074535"/>
      <point x="723.0" y="539.7582030349154"/>
      <point x="678.0" y="521.1324477653245" type="curve" smooth="yes"/>
      <point x="653.0" y="510.70202481435354"/>
      <point x="598.0" y="504.7417831280845"/>
      <point x="557.0" y="504.7417831280845" type="curve" smooth="yes"/>
      <point x="502.0" y="504.7417831280845"/>
      <point x="414.0" y="544.2283842996171"/>
      <point x="414.0" y="593.400378211337" type="curve" smooth="yes"/>
      <point x="414.0" y="653.7478252848116"/>
      <point x="494.0" y="707.3900004612333"/>
      <point x="559.0" y="707.3900004612333" type="curve" smooth="yes"/>
      <point x="645.0" y="707.3900004612333"/>
      <point x="586.0" y="618.7314053779806"/>
      <point x="686.0" y="618.7314053779806" type="curve" smooth="yes"/>
      <point x="731.0" y="618.7314053779806"/>
      <point x="772.0" y="643.3174023338406"/>
      <point x="772.0" y="684.2940639269406" type="curve" smooth="yes"/>
      <point x="772.0" y="777.422840274895"/>
      <point x="639.0" y="800.5187768091877"/>
    </contour>
  </outline>
</glyph>
<glyph name="uni0622" format="2">
  <advance width="1228"/>
  <unicode hex="0622"/>
  <unicode hex="FE81"/>
  <outline>
    <contour>
      <point x="625.0" y="1200.5999999999997" type="curve" smooth="yes"/>
      <point x="567.0" y="1200.5999999999997"/>
      <point x="553.0" y="1184.9543655735433"/>
      <point x="553.0" y="1138.0174622941743" type="curve" smooth="yes"/>
      <point x="553.0" y="309.0" type="line" smooth="yes"/>
      <point x="553.0" y="246.0"/>
      <point x="565.0" y="225.0"/>
      <point x="623.0" y="225.0" type="curve" smooth="yes"/>
      <point x="680.0" y="225.0"/>
      <point x="694.0" y="246.0"/>
      <point x="694.0" y="309.0" type="curve" smooth="yes"/>
      <point x="694.0" y="1138.0174622941743" type="line" smooth="yes"/>
      <point x="694.0" y="1184.9543655735433"/>
      <point x="682.0" y="1200.5999999999997"/>
    </contour>
    <contour>
      <point x="339.2168961864407" y="1318.314773303814" type="curve" smooth="yes"/>
      <point x="327.375" y="1299.6890180342232"/>
      <point x="334.4801377118644" y="1278.0831419214978"/>
      <point x="358.9533898305085" y="1260.9474470734742" type="curve" smooth="yes"/>
      <point x="384.21610169491527" y="1243.066722014667"/>
      <point x="407.11043432203394" y="1244.5567824362342"/>
      <point x="422.89962923728814" y="1262.4375074950415" type="curve" smooth="yes"/>
      <point x="459.2147775423729" y="1303.4141690881413"/>
      <point x="498.6877648305085" y="1325.0200452008667"/>
      <point x="545.2658898305085" y="1325.0200452008667" type="curve" smooth="yes"/>
      <point x="642.369438559322" y="1325.0200452008667"/>
      <point x="726.0521716101695" y="1214.7555740048888"/>
      <point x="854.7341101694915" y="1214.7555740048888" type="curve" smooth="yes"/>
      <point x="939.2063029661017" y="1214.7555740048888"/>
      <point x="1013.4155190677966" y="1266.1626585489596"/>
      <point x="1060.7831038135594" y="1339.1756192057558" type="curve" smooth="yes"/>
      <point x="1072.625" y="1357.8013744753466"/>
      <point x="1065.5198622881355" y="1379.4072505880722"/>
      <point x="1041.0466101694915" y="1396.5429454360958" type="curve" smooth="yes"/>
      <point x="1015.7838983050847" y="1414.423670494903"/>
      <point x="992.8895656779661" y="1412.9336100733358"/>
      <point x="977.1003707627119" y="1395.0528850145286" type="curve" smooth="yes"/>
      <point x="940.7852224576271" y="1354.0762234214285"/>
      <point x="901.3122351694915" y="1332.4703473087031"/>
      <point x="854.7341101694915" y="1332.4703473087031" type="curve" smooth="yes"/>
      <point x="756.8411016949152" y="1332.4703473087031"/>
      <point x="673.9478283898305" y="1442.7348185046812"/>
      <point x="545.2658898305085" y="1442.7348185046812" type="curve" smooth="yes"/>
      <point x="460.7936970338983" y="1442.7348185046812"/>
      <point x="386.5844809322034" y="1391.3277339606102"/>
    </contour>
  </outline>
</glyph>
<glyph name="uni0626" format="2">
  <advance width="1228"/>
  <unicode hex="0626"/>
  <unicode hex="FE89"/>
  <outline>
    <contour>
      <point x="1036.0" y="279.0" type="curve" smooth="yes"/>
      <point x="1036.0" y="432.4738526820718"/>
      <point x="959.0736461397282" y="472.4414211472684"/>
      <point x="666.8997601846525" y="388.21081800346406" type="curve" smooth="yes"/>
      <point x="407.58955596836455" y="261.9427906280011"/>
      <point x="395.2338079428582" y="327.6190985968267"/>
      <point x="395.2338079428582" y="396.4286195117634" type="curve" smooth="yes"/>
      <point x="395.2338079428582" y="492.5375167028523"/>
      <point x="583.8705141361004" y="649.7392031079169"/>
      <point x="741.214897439353" y="707.4201221843833" type="curve" smooth="yes"/>
      <point x="909.7285571855842" y="756.1492583183747"/>
      <point x="811.6692413317109" y="630.0195778564046"/>
      <point x="946.4718045980889" y="661.7105302461562" type="curve" smooth="yes"/>
      <point x="995.0" y="664.923278446566"/>
      <point x="1036.0" y="689.509275402426"/>
      <point x="1036.0" y="730.4859369955259" type="curve" smooth="yes"/>
      <point x="1036.0" y="812.4392601817258"/>
      <point x="919.8599396803754" y="851.2188555377627"/>
      <point x="744.4417814413007" y="801.6660898781554" type="curve" smooth="yes"/>
      <point x="420.1023535869899" y="683.8905795263497"/>
      <point x="211.30904298861748" y="485.4868476000313"/>
      <point x="211.30904298861748" y="345.155496986088" type="curve" smooth="yes"/>
      <point x="211.30904298861748" y="189.155496986088"/>
      <point x="219.76513067093853" y="79.71293748670263"/>
      <point x="666.8997601846525" y="263.21081800346406" type="curve" smooth="yes"/>
      <point x="814.6829702470508" y="331.3902969686177"/>
      <point x="876.5732167697238" y="327.4783760518846"/>
      <point x="876.5732167697238" y="256.4783760518846" type="curve" smooth="yes"/>
      <point x="876.5732167697238" y="129.4783760518846"/>
      <point x="760.4555454613181" y="-57.10988888061121"/>
      <point x="252.55024699197855" y="-280.6608092320262" type="curve" smooth="yes"/>
      <point x="-12.900000000000006" y="-286.1"/>
      <point x="-63.900000000000006" y="-132.10000000000002"/>
      <point x="-63.900000000000006" y="-19.100000000000023" type="curve" smooth="yes"/>
      <point x="-63.900000000000006" y="53.89999999999998"/>
      <point x="-50.900000000000006" y="119.89999999999998"/>
      <point x="-14.900000000000006" y="188.89999999999998" type="curve" smooth="yes"/>
      <point x="16.099999999999994" y="248.89999999999998"/>
      <point x="90.1" y="240.89999999999998"/>
      <point x="90.1" y="317.9" type="curve" smooth="yes"/>
      <point x="90.1" y="363.9"/>
      <point x="57.099999999999994" y="401.1080808080808"/>
      <point x="2.0999999999999943" y="401.1080808080808" type="curve" smooth="yes"/>
      <point x="-153.9" y="401.1080808080808"/>
      <point x="-204.9" y="119.89999999999998"/>
      <point x="-204.9" y="-19.100000000000023" type="curve" smooth="yes"/>
      <point x="-204.9" y="-275.1"/>
      <point x="-42.900000000000006" y="-429.1"/>
      <point x="252.55024699197855" y="-423.6608092320262" type="curve" smooth="yes"/>
      <point x="823.6566792785263" y="-172.97516977069"/>
      <point x="1036.0" y="41.0"/>
    </contour>
    <contour>
      <point x="307.08987392793387" y="1195.7149704510196" type="curve" smooth="yes"/>
      <point x="168.1" y="1181.154711498547"/>
      <point x="86.1" y="1086.5358747290252"/>
      <point x="86.1" y="1011.2878234398781" type="curve" smooth="yes"/>
      <point x="86.1" y="950.19534615562"/>
      <point x="137.1" y="900.2783220331164"/>
      <point x="184.66" y="889.4753839767536" type="curve" smooth="yes"/>
      <point x="202.9213456995165" y="885.3367082664655"/>
      <point x="204.05300482214034" y="875.9303917546924"/>
      <point x="187.04313624336666" y="869.4394992831278" type="curve" smooth="yes"/>
      <point x="131.1" y="848.126207278262"/>
      <point x="59.099999999999994" y="830.2454822194547"/>
      <point x="59.099999999999994" y="790.0138508371384" type="curve" smooth="yes"/>
      <point x="59.099999999999994" y="761.7027028273602"/>
      <point x="84.1" y="743.0769475577694"/>
      <point x="110.1" y="743.0769475577694" type="curve" smooth="yes"/>
      <point x="145.1" y="743.0769475577694"/>
      <point x="307.08987392793387" y="815.7495629513655"/>
      <point x="374.01658506164364" y="853.2654617381731" type="curve" smooth="yes"/>
      <point x="531.3818409273824" y="949.0447090975717"/>
      <point x="683.6511617689838" y="1039.2730438663566"/>
      <point x="683.6511617689838" y="1055.6637085035966" type="curve" smooth="yes"/>
      <point x="683.6511617689838" y="1074.2894637731874"/>
      <point x="634.8288284140174" y="1098.7061181018084"/>
      <point x="604.270274809923" y="1087.2703936321689" type="curve" smooth="yes"/>
      <point x="528.0172386249003" y="1058.8116139097115"/>
      <point x="483.02936705230866" y="1010.3956942635657"/>
      <point x="363.61351646433593" y="970.8615472120114" type="curve" smooth="yes"/>
      <point x="269.55057193775144" y="948.0394184032893"/>
      <point x="200.1" y="974.7813431114798"/>
      <point x="200.1" y="1011.2878234398781" type="curve" smooth="yes"/>
      <point x="200.1" y="1058.9697569300306"/>
      <point x="232.92845805122667" y="1088.2008548801873"/>
      <point x="307.08987392793387" y="1101.0961336814978" type="curve" smooth="yes"/>
      <point x="401.3914685745556" y="1127.7779454142271"/>
      <point x="337.53854591665413" y="1065.577678633667"/>
      <point x="453.624924349651" y="1102.0800333790414" type="curve" smooth="yes"/>
      <point x="517.9463247515971" y="1125.13751016424"/>
      <point x="573.677360745525" y="1165.9520362905928"/>
      <point x="573.677360745525" y="1199.4783957758564" type="curve" smooth="yes"/>
      <point x="573.677360745525" y="1277.706567908138"/>
      <point x="398.3075132899752" y="1221.4097406531198"/>
    </contour>
  </outline>
</glyph>
<glyph name="uni0628" format="2">
  <advance width="1478"/>
  <unicode hex="0628"/>
  <unicode hex="FE8F"/>
  <outline>
    <contour>
      <point x="229.0" y="707.5762580139292" type="curve" smooth="yes"/>
      <point x="119.0" y="707.5762580139292"/>
      <point x="57.0" y="583.9012430238457"/>
      <point x="57.0" y="451.28586550435864" type="curve" smooth="yes"/>
      <point x="57.0" y="327.25"/>
      <point x="78.0" y="157.25"/>
      <point x="219.0" y="157.25" type="curve" smooth="yes"/>
      <point x="1204.5" y="225.0" type="line" smooth="yes"/>
      <point x="1262.5" y="225.0"/>
      <point x="1276.5" y="246.0"/>
      <point x="1276.5" y="309.0" type="curve" smooth="yes"/>
      <point x="1276.5" y="695.469517088695" type="line" smooth="yes"/>
      <point x="1276.5" y="742.4064203680641"/>
      <point x="1264.5" y="758.0520547945205"/>
      <point x="1206.5" y="758.0520547945205" type="curve" smooth="yes"/>
      <point x="1149.5" y="757.0496213939437"/>
      <point x="1135.5" y="740.834738917204"/>
      <point x="1135.5" y="693.897835637835" type="curve" smooth="yes"/>
      <point x="1135.5" y="409.2962951184864" type="line" smooth="yes"/>
      <point x="1135.5" y="389.45044601398524"/>
      <point x="1112.94" y="365.3150778360157"/>
      <point x="1087.5" y="363.05314661147514" type="curve" smooth="yes"/>
      <point x="234.90447410008736" y="301.25" type="line" smooth="yes"/>
      <point x="227.53510282704104" y="301.25"/>
      <point x="218.2364" y="307.172"/>
      <point x="215.12" y="313.85" type="curve" smooth="yes"/>
      <point x="207.0" y="331.25"/>
      <point x="199.0" y="366.25"/>
      <point x="199.0" y="451.28586550435864" type="curve" smooth="yes"/>
      <point x="199.0" y="600.2919076610857"/>
      <point x="317.0" y="568.2556085973894"/>
      <point x="317.0" y="643.5036598865365" type="curve" smooth="yes"/>
      <point x="317.0" y="677.0300193718001"/>
      <point x="285.0" y="707.5762580139292"/>
    </contour>
    <contour>
      <point x="737.5" y="-184.38915906190914" type="curve" smooth="yes"/>
      <point x="737.5" y="-225.38915906190914"/>
      <point x="836.5" y="-327.38915906190914"/>
      <point x="873.5" y="-327.38915906190914" type="curve" smooth="yes"/>
      <point x="905.5" y="-327.38915906190914"/>
      <point x="1008.5" y="-229.38915906190914"/>
      <point x="1008.5" y="-184.38915906190914" type="curve" smooth="yes"/>
      <point x="1008.5" y="-145.38915906190914"/>
      <point x="907.5" y="-38.389159061909126"/>
      <point x="873.5" y="-38.389159061909126" type="curve" smooth="yes"/>
      <point x="838.5" y="-38.389159061909126"/>
      <point x="737.5" y="-141.38915906190914"/>
    </contour>
  </outline>
</glyph>
<glyph name="uni0635" format="2">
  <advance width="1228"/>
  <unicode hex="0635"/>
  <unicode hex="FEB9"/>
  <outline>
    <contour>
      <point x="-297.8766199682432" y="-449.8492021834084" type="curve" smooth="yes"/>
      <point x="-449.9" y="-484.1"/>
      <point x="-561.9" y="-382.1"/>
      <point x="-563.9" y="-124.10000000000002" type="curve" smooth="yes"/>
      <point x="-560.2036499023437" y="51.47727050781248"/>
      <point x="-495.78236999511716" y="92.3211730957031"/>
      <point x="-452.471044921875" y="119.78107299804685" type="curve" smooth="yes"/>
      <point x="-425.47870483398435" y="136.8945373535156"/>
      <point x="-406.0247280546859" y="149.61726149544467"/>
      <point x="-415.81593005455625" y="185.0027521555424" type="curve"/>
      <point x="-412.6881639717701" y="230.15891070116987"/>
      <point x="-445.9" y="270.9"/>
      <point x="-519.9" y="270.9" type="curve" smooth="yes"/>
      <point x="-716.9" y="270.9"/>
      <point x="-718.9" y="14.899999999999977"/>
      <point x="-717.9" y="-124.10000000000002" type="curve" smooth="yes"/>
      <point x="-719.9" y="-437.1"/>
      <point x="-571.9" y="-628.1"/>
      <point x="-297.8766199682432" y="-593.8492021834084" type="curve" smooth="yes"/>
      <point x="252.98843579321598" y="-330.0141340305138"/>
      <point x="251.9729986358934" y="-66.03300166724141"/>
      <point x="262.8578066521851" y="177.04782582968133" type="curve" smooth="yes"/>
      <point x="263.993169126527" y="202.46247813995024"/>
      <point x="287.55685422829197" y="225.37673242970007"/>
      <point x="312.99330686870627" y="225.801558361064" type="curve" smooth="yes"/>
      <point x="744.0" y="233.0"/>
      <point x="1024.0" y="408.63288593699554"/>
      <point x="1020.0" y="637.3571606475716" type="curve" smooth="yes"/>
      <point x="1023.0" y="723.0356348876896"/>
      <point x="937.0" y="800.5187768091877"/>
      <point x="760.0" y="800.5187768091877" type="curve" smooth="yes"/>
      <point x="502.0" y="800.5187768091877"/>
      <point x="350.0" y="641.8273419122734"/>
      <point x="260.666311992536" y="574.1888293042648" type="curve" smooth="yes"/>
      <point x="242.35363954299268" y="560.2514416816689"/>
      <point x="221.0986719506041" y="562.6042606012933"/>
      <point x="217.2017284357889" y="580.7963331196071" type="curve" smooth="yes"/>
      <point x="190.41141455767675" y="697.1686462435193"/>
      <point x="124.21233070171215" y="772.4837566741608"/>
      <point x="-22.734703060854542" y="715.1646611013134" type="curve" smooth="yes"/>
      <point x="-161.5311828664206" y="656.1614738698286"/>
      <point x="-221.1338129150686" y="601.3910803612578"/>
      <point x="-214.073390926793" y="570.6515181236753" type="curve"/>
      <point x="-225.5407339801992" y="539.1854250439761"/>
      <point x="-196.4199371160425" y="537.765879375577"/>
      <point x="-153.10723975937267" y="536.8649243571393" type="curve" smooth="yes"/>
      <point x="-74.71986666975832" y="537.0783308512165"/>
      <point x="44.29778779866582" y="535.6864508631779"/>
      <point x="46.5648169107016" y="347.69033177974643" type="curve" smooth="yes"/>
      <point x="46.5648169107016" y="148.6903317797464" type="line" smooth="yes"/>
      <point x="46.5648169107016" y="-107.3096682202536"/>
      <point x="14.162258075654009" y="-279.9127956853118"/>
    </contour>
    <contour>
      <point x="317.0" y="373.0" type="curve" smooth="yes"/>
      <point x="291.56" y="373.0"/>
      <point x="272.68287243059683" y="394.6690525136794"/>
      <point x="276.8358987885039" y="413.36836052638336" type="curve" smooth="yes"/>
      <point x="292.0" y="481.64584659379176"/>
      <point x="512.0" y="693.9794566671278"/>
      <point x="719.0" y="693.9794566671278" type="curve" smooth="yes"/>
      <point x="816.0" y="693.9794566671278"/>
      <point x="861.0" y="650.767704441677"/>
      <point x="862.0" y="605.3208615838753" type="curve" smooth="yes"/>
      <point x="857.0" y="477.17566532908995"/>
      <point x="628.0" y="373.0"/>
    </contour>
  </outline>
</glyph>
<glyph name="uni0642" format="2">
  <advance width="1228"/>
  <unicode hex="0642"/>
  <unicode hex="FED5"/>
  <outline>
    <contour>
      <point x="530.0" y="12.0" type="curve" smooth="yes"/>
      <point x="270.0" y="12.0"/>
      <point x="190.0" y="166.0"/>
      <point x="190.0" y="336.0" type="curve" smooth="yes"/>
      <point x="190.0" y="405.652765093861"/>
      <point x="203.0" y="475.6856049075227"/>
      <point x="240.0" y="527.0926894515935" type="curve" smooth="yes"/>
      <point x="270.0" y="571.7945020986117"/>
      <point x="344.0" y="565.8342604123426"/>
      <point x="344.0" y="623.2015866426825" type="curve" smooth="yes"/>
      <point x="344.0" y="657.4729763387297"/>
      <point x="311.0" y="687.2741847700752"/>
      <point x="256.0" y="687.2741847700752" type="curve" smooth="yes"/>
      <point x="100.0" y="687.2741847700752"/>
      <point x="49.0" y="454.0797287947973"/>
      <point x="49.0" y="336.0" type="curve" smooth="yes"/>
      <point x="49.0" y="23.0"/>
      <point x="240.0" y="-131.0"/>
      <point x="530.0" y="-131.0" type="curve" smooth="yes"/>
      <point x="1001.0" y="-131.0"/>
      <point x="1026.0" y="184.0"/>
      <point x="1026.0" y="425.0235505742355" type="curve" smooth="yes"/>
      <point x="1026.0" y="778.9129006964622" type="line" smooth="yes"/>
      <point x="1026.0" y="869.0615562012821"/>
      <point x="995.0" y="919.7236105345694"/>
      <point x="856.0" y="919.7236105345694" type="curve" smooth="yes"/>
      <point x="614.0" y="919.7236105345694"/>
      <point x="516.0" y="775.9327798533277"/>
      <point x="516.0" y="650.767704441677" type="curve" smooth="yes"/>
      <point x="516.0" y="524.112568608459"/>
      <point x="586.0" y="464.51015174576816"/>
      <point x="780.0" y="464.51015174576816" type="curve" smooth="yes"/>
      <point x="819.0" y="464.51015174576816"/>
      <point x="856.0" y="468.23530279968634"/>
      <point x="872.82" y="470.8280079332134" type="curve" smooth="yes"/>
      <point x="879.2754" y="471.823070282736"/>
      <point x="885.0" y="468.3501564521492"/>
      <point x="885.0" y="463.4388295702627" type="curve" smooth="yes"/>
      <point x="885.0" y="425.0235505742355" type="line" smooth="yes"/>
      <point x="885.0" y="199.0"/>
      <point x="872.0" y="12.0"/>
    </contour>
    <contour>
      <point x="885.0" y="778.9129006964622" type="curve" smooth="yes"/>
      <point x="885.0" y="608.3009824270098" type="line"/>
      <point x="879.0" y="573.284562520179"/>
      <point x="825.0" y="571.7945020986117"/>
      <point x="780.0" y="571.7945020986117" type="curve" smooth="yes"/>
      <point x="662.0" y="571.7945020986117"/>
      <point x="641.0" y="585.2050458927171"/>
      <point x="641.0" y="650.767704441677" type="curve" smooth="yes"/>
      <point x="641.0" y="714.8403025690696"/>
      <point x="678.0" y="826.5948341866149"/>
      <point x="856.0" y="826.5948341866149" type="curve" smooth="yes"/>
      <point x="883.0" y="826.5948341866149"/>
      <point x="885.0" y="817.6544716572113"/>
    </contour>
    <contour>
      <point x="454.0" y="1195.3847885245143" type="curve" smooth="yes"/>
      <point x="454.0" y="1164.8385498823852"/>
      <point x="553.0" y="1088.8454683824546"/>
      <point x="590.0" y="1088.8454683824546" type="curve" smooth="yes"/>
      <point x="622.0" y="1088.8454683824546"/>
      <point x="725.0" y="1161.8584290392507"/>
      <point x="725.0" y="1195.3847885245143" type="curve" smooth="yes"/>
      <point x="725.0" y="1224.4409667450761"/>
      <point x="624.0" y="1304.1591992989252"/>
      <point x="590.0" y="1304.1591992989252" type="curve" smooth="yes"/>
      <point x="555.0" y="1304.1591992989252"/>
      <point x="454.0" y="1227.4210875882106"/>
    </contour>
    <contour>
      <point x="776.0" y="1227.4210875882106" type="curve" smooth="yes"/>
      <point x="776.0" y="1196.8748489460816"/>
      <point x="875.0" y="1120.881767446151"/>
      <point x="912.0" y="1120.881767446151" type="curve" smooth="yes"/>
      <point x="944.0" y="1120.881767446151"/>
      <point x="1047.0" y="1193.894728102947"/>
      <point x="1047.0" y="1227.4210875882106" type="curve" smooth="yes"/>
      <point x="1047.0" y="1256.4772658087725"/>
      <point x="946.0" y="1336.1954983626215"/>
      <point x="912.0" y="1336.1954983626215" type="curve" smooth="yes"/>
      <point x="877.0" y="1336.1954983626215"/>
      <point x="776.0" y="1259.457386651907"/>
    </contour>
  </outline>
</glyph>
<glyph name="uni064E" format="2">
  <unicode hex="064E"/>
  <outline>
    <contour>
      <point x="688.0" y="1327.2551358332178" type="curve"/>
      <point x="291.0" y="1056.8091693187582" type="line" smooth="yes"/>
      <point x="266.0" y="1040.4185046815182"/>
      <point x="252.0" y="1029.2430515197636"/>
      <point x="252.0" y="1017.3225681472254" type="curve" smooth="yes"/>
      <point x="252.0" y="992.7365711913656"/>
      <point x="293.0" y="956.2300908629675"/>
      <point x="322.0" y="956.2300908629675" type="curve" smooth="yes"/>
      <point x="342.0" y="956.2300908629675"/>
      <point x="358.0" y="965.170453392371"/>
      <point x="383.0" y="980.8160878188273" type="curve" smooth="yes"/>
      <point x="786.0" y="1249.026963700936" type="line" smooth="yes"/>
      <point x="809.0" y="1264.6725981273923"/>
      <point x="823.0" y="1278.0831419214978"/>
      <point x="823.0" y="1290.003625294036" type="curve" smooth="yes"/>
      <point x="823.0" y="1314.589622249896"/>
      <point x="778.0" y="1351.0961025782942"/>
      <point x="750.0" y="1351.0961025782942" type="curve" smooth="yes"/>
      <point x="729.0" y="1351.0961025782942"/>
      <point x="715.0" y="1343.6458004704577"/>
    </contour>
  </outline>
</glyph>
<glyph name="uni0653" format="2">
  <unicode hex="0653"/>
  <outline>
    <contour>
      <point x="253.2168961864407" y="1322.784954568516" type="curve" smooth="yes"/>
      <point x="241.375" y="1304.1591992989252"/>
      <point x="248.48013771186442" y="1282.5533231861998"/>
      <point x="272.9533898305085" y="1265.4176283381762" type="curve" smooth="yes"/>
      <point x="298.21610169491527" y="1247.536903279369"/>
      <point x="321.11043432203394" y="1249.0269637009362"/>
      <point x="336.89962923728814" y="1266.9076887597435" type="curve" smooth="yes"/>
      <point x="373.2147775423729" y="1307.8843503528435"/>
      <point x="412.6877648305085" y="1329.4902264655689"/>
      <point x="459.2658898305085" y="1329.4902264655689" type="curve" smooth="yes"/>
      <point x="556.369438559322" y="1329.4902264655689"/>
      <point x="640.0521716101695" y="1219.2257552695908"/>
      <point x="768.7341101694915" y="1219.2257552695908" type="curve" smooth="yes"/>
      <point x="853.2063029661017" y="1219.2257552695908"/>
      <point x="927.4155190677966" y="1270.6328398136616"/>
      <point x="974.7831038135594" y="1343.645800470458" type="curve" smooth="yes"/>
      <point x="986.625" y="1362.2715557400488"/>
      <point x="979.5198622881355" y="1383.8774318527742"/>
      <point x="955.0466101694915" y="1401.0131267007978" type="curve" smooth="yes"/>
      <point x="929.7838983050847" y="1418.8938517596052"/>
      <point x="906.8895656779661" y="1417.4037913380378"/>
      <point x="891.1003707627119" y="1399.5230662792305" type="curve" smooth="yes"/>
      <point x="854.7852224576271" y="1358.5464046861307"/>
      <point x="815.3122351694915" y="1336.9405285734051"/>
      <point x="768.7341101694915" y="1336.9405285734051" type="curve" smooth="yes"/>
      <point x="670.8411016949152" y="1336.9405285734051"/>
      <point x="587.9478283898305" y="1447.2049997693832"/>
      <point x="459.2658898305085" y="1447.2049997693832" type="curve" smooth="yes"/>
      <point x="374.7936970338983" y="1447.2049997693832"/>
      <point x="300.5844809322034" y="1395.7979152253124"/>
    </contour>
  </outline>
</glyph>
<glyph name="uni065B" format="2">
  <unicode hex="065B"/>
  <outline>
    <contour>
      <point x="750.0" y="1257.9673262303397" type="line" smooth="yes"/>
      <point x="760.0" y="1253.497144965638"/>
      <point x="772.0" y="1250.5170241225035"/>
      <point x="782.0" y="1250.5170241225035" type="curve" smooth="yes"/>
      <point x="817.0" y="1250.5170241225035"/>
      <point x="842.0" y="1272.1229002352288"/>
      <point x="842.0" y="1296.7088971910887" type="curve" smooth="yes"/>
      <point x="842.0" y="1310.1194409851942"/>
      <point x="834.0" y="1323.5299847792996"/>
      <point x="813.0" y="1334.7054379410542" type="curve"/>
      <point x="571.0" y="1448.6950601909505" type="line" smooth="yes"/>
      <point x="561.0" y="1453.9102716664358"/>
      <point x="551.0" y="1456.8903925095703"/>
      <point x="541.0" y="1456.8903925095703" type="curve" smooth="yes"/>
      <point x="530.0" y="1456.8903925095703"/>
      <point x="518.0" y="1453.9102716664358"/>
      <point x="510.0" y="1448.6950601909505" type="curve"/>
      <point x="264.0" y="1333.2153775194868" type="line" smooth="yes"/>
      <point x="244.0" y="1323.5299847792996"/>
      <point x="236.0" y="1310.1194409851942"/>
      <point x="236.0" y="1296.7088971910887" type="curve" smooth="yes"/>
      <point x="236.0" y="1273.612960656796"/>
      <point x="262.0" y="1250.5170241225035"/>
      <point x="295.0" y="1250.5170241225035" type="curve" smooth="yes"/>
      <point x="305.0" y="1250.5170241225035"/>
      <point x="315.0" y="1253.497144965638"/>
      <point x="328.0" y="1257.9673262303397" type="curve"/>
      <point x="497.8747747120136" y="1334.1443574139194" type="line" smooth="yes"/>
      <point x="519.6711441146464" y="1343.9185143744687"/>
      <point x="558.3288558853536" y="1343.9185143744687"/>
      <point x="580.1252252879864" y="1334.1443574139194" type="curve" smooth="yes"/>
    </contour>
  </outline>
</glyph>
<glyph name="uni0665" format="2">
  <advance width="1228"/>
  <unicode hex="0665"/>
  <outline>
    <contour>
      <point x="600.0" y="947.2897283335637" type="curve" smooth="yes"/>
      <point x="475.0" y="947.2897283335637"/>
      <point x="133.0" y="661.9431576034315"/>
      <point x="133.0" y="413.10306720169734" type="curve" smooth="yes"/>
      <point x="133.0" y="233.0"/>
      <point x="281.0" y="113.0"/>
      <point x="514.0" y="113.0" type="curve" smooth="yes"/>
      <point x="932.0" y="113.0"/>
      <point x="942.0" y="405.652765093861"/>
      <point x="942.0" y="455.56978921636454" type="curve" smooth="yes"/>
      <point x="942.0" y="742.4064203680641"/>
      <point x="678.0" y="947.2897283335637"/>
    </contour>
    <contour>
      <point x="799.0" y="455.56978921636454" type="curve" smooth="yes"/>
      <point x="799.0" y="394.47731193210643"/>
      <point x="766.0" y="256.0"/>
      <point x="514.0" y="256.0" type="curve" smooth="yes"/>
      <point x="311.0" y="256.0"/>
      <point x="264.0" y="348.0"/>
      <point x="264.0" y="413.10306720169734" type="curve" smooth="yes"/>
      <point x="264.0" y="582.2249250495825"/>
      <point x="485.0" y="816.1644112356439"/>
      <point x="575.0" y="816.1644112356439" type="curve" smooth="yes"/>
      <point x="635.0" y="816.1644112356439"/>
      <point x="799.0" y="637.3571606475715"/>
    </contour>
  </outline>
</glyph>
<glyph name="uni0667" format="2">
  <advance width="1228"/>
  <unicode hex="0667"/>
  <outline>
    <contour>
      <point x="131.0" y="1032.2231723628981" type="curve" smooth="yes"/>
      <point x="92.0" y="1032.2231723628981"/>
      <point x="59.0" y="1001.6769337207691"/>
      <point x="59.0" y="968.1505742355055" type="curve" smooth="yes"/>
      <point x="59.0" y="944.3096074904292"/>
      <point x="68.0" y="939.0943960149436"/>
      <point x="90.0" y="916.7434896914347" type="curve" smooth="yes"/>
      <point x="119.0" y="887.6873114708728"/>
      <point x="442.0" y="545.7184447211844"/>
      <point x="467.0" y="82.0" type="curve" smooth="yes"/>
      <point x="469.0" y="25.0"/>
      <point x="504.0" y="0.0"/>
      <point x="539.0" y="0.0" type="curve" smooth="yes"/>
      <point x="573.0" y="0.0"/>
      <point x="606.0" y="27.0"/>
      <point x="608.0" y="82.0" type="curve" smooth="yes"/>
      <point x="633.0" y="545.7184447211844"/>
      <point x="956.0" y="887.6873114708728"/>
      <point x="985.0" y="916.7434896914347" type="curve" smooth="yes"/>
      <point x="1008.0" y="939.0943960149436"/>
      <point x="1016.0" y="944.3096074904292"/>
      <point x="1016.0" y="968.1505742355055" type="curve" smooth="yes"/>
      <point x="1016.0" y="1001.6769337207691"/>
      <point x="983.0" y="1032.2231723628981"/>
      <point x="944.0" y="1032.2231723628981" type="curve" smooth="yes"/>
      <point x="924.0" y="1032.2231723628981"/>
      <point x="903.0" y="1027.7529910981964"/>
      <point x="883.0" y="1014.3424473040909" type="curve" smooth="yes"/>
      <point x="793.0" y="950.2698491766982"/>
      <point x="635.0" y="682.8040035053732"/>
      <point x="549.6078622635475" y="449.09890089578556" type="curve" smooth="yes"/>
      <point x="542.9256952638673" y="430.81084106134944"/>
      <point x="531.1306586229271" y="430.8222120727061"/>
      <point x="524.5120396232492" y="449.12309453697" type="curve" smooth="yes"/>
      <point x="440.0" y="682.8040035053732"/>
      <point x="281.0" y="950.2698491766982"/>
      <point x="193.0" y="1014.3424473040909" type="curve"/>
      <point x="172.0" y="1027.7529910981964"/>
      <point x="152.0" y="1032.2231723628981"/>
    </contour>
  </outline>
</glyph>
<glyph name="uni0672" format="2">
  <advance width="1228"/>
  <unicode hex="0672"/>
  <outline>
    <contour>
      <point x="375.0" y="1243.066722014667" type="curve" smooth="yes"/>
      <point x="256.0" y="1243.066722014667"/>
      <point x="164.0" y="1171.543821779438"/>
      <point x="164.0" y="1143.9777039804435" type="curve" smooth="yes"/>
      <point x="164.0" y="1126.84200913242"/>
      <point x="186.0" y="1091.825589225589"/>
      <point x="209.0" y="1091.825589225589" type="curve" smooth="yes"/>
      <point x="225.0" y="1091.825589225589"/>
      <point x="233.0" y="1096.2957704902908"/>
      <point x="244.0" y="1103.0010423873437" type="curve"/>
      <point x="287.0" y="1132.802250818689"/>
      <point x="323.0" y="1152.9180665098472"/>
      <point x="373.0" y="1152.9180665098472" type="curve" smooth="yes"/>
      <point x="416.0" y="1152.9180665098472"/>
      <point x="428.0" y="1136.5274018726072"/>
      <point x="446.0" y="1122.3718278677181" type="curve"/>
      <point x="498.0" y="1087.3554079608873"/>
      <point x="534.0" y="1085.86534753932"/>
      <point x="596.0" y="1085.86534753932" type="curve" smooth="yes"/>
      <point x="647.0" y="1085.86534753932"/>
      <point x="721.0" y="1116.411586181449"/>
      <point x="745.0" y="1126.84200913242" type="curve" smooth="yes"/>
      <point x="835.0" y="1163.348489460818"/>
      <point x="917.0" y="1193.894728102947"/>
      <point x="917.0" y="1209.5403625294034" type="curve" smooth="yes"/>
      <point x="917.0" y="1225.9310271666434"/>
      <point x="891.0" y="1264.6725981273923"/>
      <point x="874.0" y="1264.6725981273923" type="curve" smooth="yes"/>
      <point x="833.0" y="1264.6725981273923"/>
      <point x="809.0" y="1235.6164199068307"/>
      <point x="739.0" y="1235.6164199068307" type="curve" smooth="yes"/>
      <point x="676.0" y="1235.6164199068307"/>
      <point x="620.0" y="1266.1626585489596"/>
      <point x="620.0" y="1299.6890180342232" type="curve" smooth="yes"/>
      <point x="620.0" y="1342.1557400488905"/>
      <point x="649.0" y="1368.2317974263178"/>
      <point x="702.0" y="1368.2317974263178" type="curve" smooth="yes"/>
      <point x="762.0" y="1368.2317974263178"/>
      <point x="723.0" y="1328.745196254785"/>
      <point x="792.0" y="1328.745196254785" type="curve" smooth="yes"/>
      <point x="827.0" y="1328.745196254785"/>
      <point x="858.0" y="1346.6259213135922"/>
      <point x="858.0" y="1377.1721599557213" type="curve" smooth="yes"/>
      <point x="858.0" y="1447.2049997693832"/>
      <point x="760.0" y="1453.9102716664358"/>
      <point x="702.0" y="1453.9102716664358" type="curve" smooth="yes"/>
      <point x="592.0" y="1453.9102716664358"/>
      <point x="516.0" y="1368.2317974263178"/>
      <point x="516.0" y="1299.6890180342232" type="curve" smooth="yes"/>
      <point x="516.0" y="1244.5567824362342"/>
      <point x="563.0" y="1199.1099395784324"/>
      <point x="631.6190276949659" y="1183.2202812088512" type="curve" smooth="yes"/>
      <point x="634.470943016634" y="1182.559881875277"/>
      <point x="635.8156" y="1180.2094171671047"/>
      <point x="634.48" y="1178.2192924680594" type="curve" smooth="yes"/>
      <point x="631.0" y="1173.0338822010053"/>
      <point x="614.0" y="1170.0537613578708"/>
      <point x="598.0" y="1170.0537613578708" type="curve" smooth="yes"/>
      <point x="573.0" y="1170.0537613578708"/>
      <point x="549.0" y="1176.0140030441398"/>
      <point x="534.0" y="1180.4841843088416" type="curve" smooth="yes"/>
      <point x="489.0" y="1193.894728102947"/>
      <point x="477.0" y="1243.066722014667"/>
    </contour>
    <contour>
      <point x="625.0" y="1003.1669941423365" type="curve" smooth="yes"/>
      <point x="567.0" y="1003.1669941423365"/>
      <point x="553.0" y="988.2663899266638"/>
      <point x="553.0" y="940.5844564365111" type="curve" smooth="yes"/>
      <point x="553.0" y="309.0" type="line" smooth="yes"/>
      <point x="553.0" y="246.0"/>
      <point x="565.0" y="225.0"/>
      <point x="623.0" y="225.0" type="curve" smooth="yes"/>
      <point x="680.0" y="225.0"/>
      <point x="694.0" y="246.0"/>
      <point x="694.0" y="309.0" type="curve" smooth="yes"/>
      <point x="694.0" y="940.5844564365111" type="line" smooth="yes"/>
      <point x="694.0" y="988.2663899266638"/>
      <point x="682.0" y="1003.1669941423365"/>
    </contour>
  </outline>
</glyph>
<glyph name="uni0675" format="2">
  <advance width="1228"/>
  <unicode hex="0675"/>
  <outline>
    <contour>
      <point x="799.0" y="1181.9742447304088" type="curve" smooth="yes"/>
      <point x="662.0" y="1181.9742447304088"/>
      <point x="539.0" y="1062.7694110050272"/>
      <point x="539.0" y="953.2499700198327" type="curve" smooth="yes"/>
      <point x="539.0" y="876.5118583091185"/>
      <point x="656.0" y="804.9889580738893"/>
      <point x="691.38" y="799.8035478068352" type="curve" smooth="yes"/>
      <point x="704.9586" y="797.81342310779"/>
      <point x="707.7208999901505" y="790.0648929131352"/>
      <point x="697.2572340215968" y="783.3173133501227" type="curve" smooth="yes"/>
      <point x="598.0" y="719.3104838337714"/>
      <point x="480.0" y="658.963036760297"/>
      <point x="480.0" y="603.8308011623079" type="curve" smooth="yes"/>
      <point x="480.0" y="568.8143812554771"/>
      <point x="508.0" y="551.6786864074535"/>
      <point x="541.0" y="551.6786864074535" type="curve" smooth="yes"/>
      <point x="580.0" y="551.6786864074535"/>
      <point x="605.0" y="564.3441999907752"/>
      <point x="621.0" y="582.2249250495825" type="curve" smooth="yes"/>
      <point x="691.0" y="660.4530971818642"/>
      <point x="748.0" y="704.4098796180987"/>
      <point x="854.0" y="759.5421152160877" type="curve" smooth="yes"/>
      <point x="1004.0" y="837.0252571375856"/>
      <point x="1076.0" y="852.670891564042"/>
      <point x="1076.0" y="866.0814353581475" type="curve" smooth="yes"/>
      <point x="1076.0" y="889.1773718924402"/>
      <point x="1043.0" y="933.1341543286746"/>
      <point x="1018.0" y="933.1341543286746" type="curve" smooth="yes"/>
      <point x="994.0" y="933.1341543286746"/>
      <point x="963.0" y="921.2136709561364"/>
      <point x="918.0" y="902.5879156865456" type="curve" smooth="yes"/>
      <point x="893.0" y="892.1574927355747"/>
      <point x="838.0" y="886.1972510493056"/>
      <point x="797.0" y="886.1972510493056" type="curve" smooth="yes"/>
      <point x="742.0" y="886.1972510493056"/>
      <point x="654.0" y="925.6838522208384"/>
      <point x="654.0" y="974.8558461325583" type="curve" smooth="yes"/>
      <point x="654.0" y="1035.2032932060326"/>
      <point x="734.0" y="1088.8454683824543"/>
      <point x="799.0" y="1088.8454683824543" type="curve" smooth="yes"/>
      <point x="885.0" y="1088.8454683824543"/>
      <point x="826.0" y="1000.1868732992018"/>
      <point x="926.0" y="1000.1868732992018" type="curve" smooth="yes"/>
      <point x="971.0" y="1000.1868732992018"/>
      <point x="1012.0" y="1024.7728702550617"/>
      <point x="1012.0" y="1065.7495318481617" type="curve" smooth="yes"/>
      <point x="1012.0" y="1158.878308196116"/>
      <point x="879.0" y="1181.9742447304088"/>
    </contour>
    <contour>
      <point x="277.0" y="1200.5999999999997" type="curve" smooth="yes"/>
      <point x="219.0" y="1200.5999999999997"/>
      <point x="205.0" y="1184.9543655735433"/>
      <point x="205.0" y="1138.0174622941743" type="curve" smooth="yes"/>
      <point x="205.0" y="309.0" type="line" smooth="yes"/>
      <point x="205.0" y="246.0"/>
      <point x="217.0" y="225.0"/>
      <point x="275.0" y="225.0" type="curve" smooth="yes"/>
      <point x="332.0" y="225.0"/>
      <point x="346.0" y="246.0"/>
      <point x="346.0" y="309.0" type="curve" smooth="yes"/>
      <point x="346.0" y="1138.0174622941743" type="line" smooth="yes"/>
      <point x="346.0" y="1184.9543655735433"/>
      <point x="334.0" y="1200.5999999999997"/>
    </contour>
  </outline>
</glyph>
<glyph name="uni067A" format="2">
  <advance width="1478"/>
  <unicode hex="067A"/>
  <unicode hex="FB5E"/>
  <outline>
    <contour>
      <point x="229.0" y="707.5762580139292" type="curve" smooth="yes"/>
      <point x="119.0" y="707.5762580139292"/>
      <point x="57.0" y="583.9012430238457"/>
      <point x="57.0" y="451.28586550435864" type="curve" smooth="yes"/>
      <point x="57.0" y="327.25"/>
      <point x="78.0" y="157.25"/>
      <point x="219.0" y="157.25" type="curve" smooth="yes"/>
      <point x="1204.5" y="225.0" type="line" smooth="yes"/>
      <point x="1262.5" y="225.0"/>
      <point x="1276.5" y="246.0"/>
      <point x="1276.5" y="309.0" type="curve" smooth="yes"/>
      <point x="1276.5" y="695.469517088695" type="line" smooth="yes"/>
      <point x="1276.5" y="742.4064203680641"/>
      <point x="1264.5" y="758.0520547945205"/>
      <point x="1206.5" y="758.0520547945205" type="curve" smooth="yes"/>
      <point x="1149.5" y="757.0496213939437"/>
      <point x="1135.5" y="740.834738917204"/>
      <point x="1135.5" y="693.897835637835" type="curve" smooth="yes"/>
      <point x="1135.5" y="409.2962951184864" type="line" smooth="yes"/>
      <point x="1135.5" y="389.45044601398524"/>
      <point x="1112.94" y="365.3150778360157"/>
      <point x="1087.5" y="363.05314661147514" type="curve" smooth="yes"/>
      <point x="234.90447410008736" y="301.25" type="line" smooth="yes"/>
      <point x="227.53510282704104" y="301.25"/>
      <point x="218.2364" y="307.172"/>
      <point x="215.12" y="313.85" type="curve" smooth="yes"/>
      <point x="207.0" y="331.25"/>
      <point x="199.0" y="366.25"/>
      <point x="199.0" y="451.28586550435864" type="curve" smooth="yes"/>
      <point x="199.0" y="600.2919076610857"/>
      <point x="317.0" y="568.2556085973894"/>
      <point x="317.0" y="643.5036598865365" type="curve" smooth="yes"/>
      <point x="317.0" y="677.0300193718001"/>
      <point x="285.0" y="707.5762580139292"/>
    </contour>
    <contour>
      <point x="725.5" y="1002.086185839988" type="curve" smooth="yes"/>
      <point x="725.5" y="971.5399471978592"/>
      <point x="824.5" y="895.5468656979283"/>
      <point x="861.5" y="895.5468656979283" type="curve" smooth="yes"/>
      <point x="893.5" y="895.5468656979283"/>
      <point x="996.5" y="968.5598263547245"/>
      <point x="996.5" y="1002.086185839988" type="curve" smooth="yes"/>
      <point x="996.5" y="1031.1423640605499"/>
      <point x="895.5" y="1110.860596614399"/>
      <point x="861.5" y="1110.860596614399" type="curve" smooth="yes"/>
      <point x="826.5" y="1110.860596614399"/>
      <point x="725.5" y="1034.1224849036844"/>
    </contour>
    <contour>
      <point x="696.5" y="1239.1073883257068" type="curve" smooth="yes"/>
      <point x="696.5" y="1208.5611496835777"/>
      <point x="795.5" y="1132.568068183647"/>
      <point x="832.5" y="1132.568068183647" type="curve" smooth="yes"/>
      <point x="864.5" y="1132.568068183647"/>
      <point x="967.5" y="1205.5810288404432"/>
      <point x="967.5" y="1239.1073883257068" type="curve" smooth="yes"/>
      <point x="967.5" y="1268.1635665462686"/>
      <point x="866.5" y="1347.8817991001176"/>
      <point x="832.5" y="1347.8817991001176" type="curve" smooth="yes"/>
      <point x="797.5" y="1347.8817991001176"/>
      <point x="696.5" y="1271.143687389403"/>
    </contour>
  </outline>
</glyph>
<glyph name="uni067D" format="2">
  <advance width="1228"/>
  <unicode hex="067D"/>
  <outline>
    <contour>
      <point x="229.0" y="707.5762580139292" type="curve" smooth="yes"/>
      <point x="119.0" y="707.5762580139292"/>
      <point x="57.0" y="583.9012430238457"/>
      <point x="57.0" y="451.28586550435864" type="curve" smooth="yes"/>
      <point x="57.0" y="327.25"/>
      <point x="78.0" y="157.25"/>
      <point x="219.0" y="157.25" type="curve" smooth="yes"/>
      <point x="954.0" y="225.0" type="line" smooth="yes"/>
      <point x="1012.0" y="225.0"/>
      <point x="1026.0" y="246.0"/>
      <point x="1026.0" y="309.0" type="curve" smooth="yes"/>
      <point x="1026.0" y="695.469517088695" type="line" smooth="yes"/>
      <point x="1026.0" y="742.4064203680641"/>
      <point x="1014.0" y="758.0520547945205"/>
      <point x="956.0" y="758.0520547945205" type="curve" smooth="yes"/>
      <point x="899.0" y="756.2594654292557"/>
      <point x="885.0" y="739.6044835599579"/>
      <point x="885.0" y="692.6675802805889" type="curve" smooth="yes"/>
      <point x="885.0" y="408.06603976124023" type="line" smooth="yes"/>
      <point x="885.0" y="387.79916350296844"/>
      <point x="862.44" y="362.4726833871077"/>
      <point x="837.0" y="358.56511269626816" type="curve" smooth="yes"/>
      <point x="234.90447410008736" y="301.25" type="line" smooth="yes"/>
      <point x="227.53510282704104" y="301.25"/>
      <point x="218.2364" y="307.172"/>
      <point x="215.12" y="313.85" type="curve" smooth="yes"/>
      <point x="207.0" y="331.25"/>
      <point x="199.0" y="366.25"/>
      <point x="199.0" y="451.28586550435864" type="curve" smooth="yes"/>
      <point x="199.0" y="600.2919076610857"/>
      <point x="317.0" y="568.2556085973894"/>
      <point x="317.0" y="643.5036598865365" type="curve" smooth="yes"/>
      <point x="317.0" y="677.0300193718001"/>
      <point x="285.0" y="707.5762580139292"/>
    </contour>
    <contour>
      <point x="508.0" y="993.3705887517185" type="curve" smooth="yes"/>
      <point x="508.0" y="962.8243501095894"/>
      <point x="607.0" y="886.8312686096585"/>
      <point x="644.0" y="886.8312686096585" type="curve" smooth="yes"/>
      <point x="676.0" y="886.8312686096585"/>
      <point x="779.0" y="959.8442292664549"/>
      <point x="779.0" y="993.3705887517185" type="curve" smooth="yes"/>
      <point x="779.0" y="1022.4267669722801"/>
      <point x="678.0" y="1102.1449995261291"/>
      <point x="644.0" y="1102.1449995261291" type="curve" smooth="yes"/>
      <point x="609.0" y="1102.1449995261291"/>
      <point x="508.0" y="1025.4068878154148"/>
    </contour>
    <contour>
      <point x="319.0" y="1187.3757137585903" type="curve" smooth="yes"/>
      <point x="319.0" y="1156.8294751164613"/>
      <point x="418.0" y="1080.8363936165304"/>
      <point x="455.0" y="1080.8363936165304" type="curve" smooth="yes"/>
      <point x="487.0" y="1080.8363936165304"/>
      <point x="590.0" y="1153.8493542733268"/>
      <point x="590.0" y="1187.3757137585903" type="curve" smooth="yes"/>
      <point x="590.0" y="1216.431891979152"/>
      <point x="489.0" y="1296.150124533001"/>
      <point x="455.0" y="1296.150124533001" type="curve" smooth="yes"/>
      <point x="420.0" y="1296.150124533001"/>
      <point x="319.0" y="1219.4120128222867"/>
    </contour>
    <contour>
      <point x="641.0" y="1254.725500665013" type="curve" smooth="yes"/>
      <point x="641.0" y="1224.179262022884"/>
      <point x="740.0" y="1148.1861805229532"/>
      <point x="777.0" y="1148.1861805229532" type="curve" smooth="yes"/>
      <point x="809.0" y="1148.1861805229532"/>
      <point x="912.0" y="1221.1991411797494"/>
      <point x="912.0" y="1254.725500665013" type="curve" smooth="yes"/>
      <point x="912.0" y="1283.7816788855748"/>
      <point x="811.0" y="1363.4999114394238"/>
      <point x="777.0" y="1363.4999114394238" type="curve" smooth="yes"/>
      <point x="742.0" y="1363.4999114394238"/>
      <point x="641.0" y="1286.7617997287093"/>
    </contour>
  </outline>
</glyph>
<glyph name="uni0683" format="2">
  <advance width="1228"/>
  <unicode hex="0683"/>
  <unicode hex="FB76"/>
  <outline>
    <contour>
      <point x="211.0" y="672.3735805544025" type="line" smooth="yes"/>
      <point x="70.0" y="672.3735805544025"/>
      <point x="49.0" y="553.1687468290208"/>
      <point x="49.0" y="500.27160186338267" type="curve" smooth="yes"/>
      <point x="49.0" y="452.58966837323"/>
      <point x="61.0" y="437.6890641575573"/>
      <point x="119.0" y="437.6890641575573" type="curve" smooth="yes"/>
      <point x="176.0" y="437.6890641575573"/>
      <point x="190.0" y="452.58966837323"/>
      <point x="190.0" y="500.27160186338267" type="curve" smooth="yes"/>
      <point x="190.0" y="521.1324477653245"/>
      <point x="197.0" y="541.2482634564826"/>
      <point x="205.12" y="553.7796716018634" type="curve" smooth="yes"/>
      <point x="208.2364" y="558.5891396245561"/>
      <point x="217.3567704158637" y="562.8541395692081"/>
      <point x="224.52504343800788" y="562.8541395692081" type="curve" smooth="yes"/>
      <point x="464.0" y="562.8541395692081" type="line" smooth="yes"/>
      <point x="489.44" y="562.8541395692081"/>
      <point x="494.24634072726207" y="552.4834586642409"/>
      <point x="474.2262568665151" y="540.7888610480013" type="curve" smooth="yes"/>
      <point x="211.0" y="385.0"/>
      <point x="57.0" y="201.0"/>
      <point x="57.0" y="-4.0" type="curve" smooth="yes"/>
      <point x="57.0" y="-317.0"/>
      <point x="248.0" y="-485.0"/>
      <point x="539.0" y="-485.0" type="curve" smooth="yes"/>
      <point x="860.0" y="-485.0"/>
      <point x="1038.0" y="-332.0"/>
      <point x="1038.0" y="-221.0" type="curve" smooth="yes"/>
      <point x="1038.0" y="-166.0"/>
      <point x="997.0" y="-133.0"/>
      <point x="952.0" y="-133.0" type="curve" smooth="yes"/>
      <point x="918.0" y="-133.0"/>
      <point x="897.0" y="-152.0"/>
      <point x="872.0" y="-184.0" type="curve" smooth="yes"/>
      <point x="823.0" y="-252.0"/>
      <point x="760.0" y="-342.0"/>
      <point x="539.0" y="-342.0" type="curve" smooth="yes"/>
      <point x="279.0" y="-342.0"/>
      <point x="199.0" y="-174.0"/>
      <point x="199.0" y="-4.0" type="curve" smooth="yes"/>
      <point x="199.0" y="285.0"/>
      <point x="606.0" y="483.13590701535907"/>
      <point x="687.5789249474201" y="538.7199045405849" type="curve" smooth="yes"/>
      <point x="706.3520947252874" y="551.5110491057552"/>
      <point x="745.56" y="562.8541395692081"/>
      <point x="771.0" y="562.8541395692081" type="curve" smooth="yes"/>
      <point x="918.0" y="562.8541395692081" type="line" smooth="yes"/>
      <point x="981.0" y="562.8541395692081"/>
      <point x="1001.0" y="574.7746229417462"/>
      <point x="1001.0" y="617.2413449564134" type="curve" smooth="yes"/>
      <point x="1001.0" y="660.4530971818642"/>
      <point x="981.0" y="672.3735805544025"/>
      <point x="918.0" y="672.3735805544025" type="curve" smooth="yes"/>
    </contour>
    <contour>
      <point x="298.0" y="47.0" type="curve" smooth="yes"/>
      <point x="298.0" y="6.0"/>
      <point x="397.0" y="-96.0"/>
      <point x="434.0" y="-96.0" type="curve" smooth="yes"/>
      <point x="466.0" y="-96.0"/>
      <point x="569.0" y="2.0"/>
      <point x="569.0" y="47.0" type="curve" smooth="yes"/>
      <point x="569.0" y="86.0"/>
      <point x="468.0" y="193.0"/>
      <point x="434.0" y="193.0" type="curve" smooth="yes"/>
      <point x="399.0" y="193.0"/>
      <point x="298.0" y="90.0"/>
    </contour>
    <contour>
      <point x="620.0" y="90.0" type="curve" smooth="yes"/>
      <point x="620.0" y="49.0"/>
      <point x="719.0" y="-53.0"/>
      <point x="756.0" y="-53.0" type="curve" smooth="yes"/>
      <point x="788.0" y="-53.0"/>
      <point x="891.0" y="45.0"/>
      <point x="891.0" y="90.0" type="curve" smooth="yes"/>
      <point x="891.0" y="129.0"/>
      <point x="790.0" y="236.0"/>
      <point x="756.0" y="236.0" type="curve" smooth="yes"/>
      <point x="721.0" y="236.0"/>
      <point x="620.0" y="133.0"/>
    </contour>
  </outline>
</glyph>
<glyph name="uni068A" format="2">
  <advance width="1228"/>
  <unicode hex="068A"/>
  <outline>
    <contour>
      <point x="172.0" y="408.63288593699554" type="curve" smooth="yes"/>
      <point x="127.0" y="408.63288593699554"/>
      <point x="86.0" y="381.0"/>
      <point x="86.0" y="326.0" type="curve" smooth="yes"/>
      <point x="86.0" y="188.0"/>
      <point x="326.0" y="143.0"/>
      <point x="481.0" y="143.0" type="curve" smooth="yes"/>
      <point x="795.0" y="143.0"/>
      <point x="877.0" y="291.0"/>
      <point x="897.0" y="326.0" type="curve" smooth="yes"/>
      <point x="918.0" y="360.0"/>
      <point x="946.0" y="411.61300678013004"/>
      <point x="946.0" y="492.0762695447627" type="curve" smooth="yes"/>
      <point x="946.0" y="637.3571606475716"/>
      <point x="842.0" y="784.1281121719477"/>
      <point x="754.0" y="855.6510124071767" type="curve" smooth="yes"/>
      <point x="715.0" y="887.687311470873"/>
      <point x="672.0" y="904.0779761081129"/>
      <point x="633.0" y="904.0779761081129" type="curve" smooth="yes"/>
      <point x="578.0" y="904.0779761081129"/>
      <point x="545.0" y="873.531737465984"/>
      <point x="545.0" y="840.0053779807204" type="curve" smooth="yes"/>
      <point x="545.0" y="813.929320603293"/>
      <point x="563.0" y="796.0485955444858"/>
      <point x="596.0" y="775.9327798533277" type="curve" smooth="yes"/>
      <point x="700.0" y="713.3502421475023"/>
      <point x="805.0" y="629.9068585397351"/>
      <point x="805.0" y="492.0762695447627" type="curve" smooth="yes"/>
      <point x="805.0" y="413.10306720169734"/>
      <point x="788.0" y="287.0"/>
      <point x="481.0" y="287.0" type="curve" smooth="yes"/>
      <point x="395.0" y="287.0"/>
      <point x="340.0" y="293.0"/>
      <point x="285.0" y="326.0" type="curve" smooth="yes"/>
      <point x="229.0" y="358.0"/>
      <point x="221.0" y="408.63288593699554"/>
    </contour>
    <contour>
      <point x="409.0" y="-193.0" type="curve" smooth="yes"/>
      <point x="409.0" y="-234.0"/>
      <point x="508.0" y="-336.0"/>
      <point x="545.0" y="-336.0" type="curve" smooth="yes"/>
      <point x="577.0" y="-336.0"/>
      <point x="680.0" y="-238.0"/>
      <point x="680.0" y="-193.0" type="curve" smooth="yes"/>
      <point x="680.0" y="-154.0"/>
      <point x="579.0" y="-47.0"/>
      <point x="545.0" y="-47.0" type="curve" smooth="yes"/>
      <point x="510.0" y="-47.0"/>
      <point x="409.0" y="-150.0"/>
    </contour>
  </outline>
</glyph>
<glyph name="uni068C" format="2">
  <advance width="1228"/>
  <unicode hex="068C"/>
  <unicode hex="FB84"/>
  <outline>
    <contour>
      <point x="172.0" y="408.63288593699554" type="curve" smooth="yes"/>
      <point x="127.0" y="408.63288593699554"/>
      <point x="86.0" y="381.0"/>
      <point x="86.0" y="326.0" type="curve" smooth="yes"/>
      <point x="86.0" y="188.0"/>
      <point x="326.0" y="143.0"/>
      <point x="481.0" y="143.0" type="curve" smooth="yes"/>
      <point x="795.0" y="143.0"/>
      <point x="877.0" y="291.0"/>
      <point x="897.0" y="326.0" type="curve" smooth="yes"/>
      <point x="918.0" y="360.0"/>
      <point x="946.0" y="411.61300678013004"/>
      <point x="946.0" y="492.0762695447627" type="curve" smooth="yes"/>
      <point x="946.0" y="637.3571606475716"/>
      <point x="842.0" y="784.1281121719477"/>
      <point x="754.0" y="855.6510124071767" type="curve" smooth="yes"/>
      <point x="715.0" y="887.687311470873"/>
      <point x="672.0" y="904.0779761081129"/>
      <point x="633.0" y="904.0779761081129" type="curve" smooth="yes"/>
      <point x="578.0" y="904.0779761081129"/>
      <point x="545.0" y="873.531737465984"/>
      <point x="545.0" y="840.0053779807204" type="curve" smooth="yes"/>
      <point x="545.0" y="813.929320603293"/>
      <point x="563.0" y="796.0485955444858"/>
      <point x="596.0" y="775.9327798533277" type="curve" smooth="yes"/>
      <point x="700.0" y="713.3502421475023"/>
      <point x="805.0" y="629.9068585397351"/>
      <point x="805.0" y="492.0762695447627" type="curve" smooth="yes"/>
      <point x="805.0" y="413.10306720169734"/>
      <point x="788.0" y="287.0"/>
      <point x="481.0" y="287.0" type="curve" smooth="yes"/>
      <point x="395.0" y="287.0"/>
      <point x="340.0" y="293.0"/>
      <point x="285.0" y="326.0" type="curve" smooth="yes"/>
      <point x="229.0" y="358.0"/>
      <point x="221.0" y="408.63288593699554"/>
    </contour>
    <contour>
      <point x="249.0" y="1176.7590332549235" type="curve" smooth="yes"/>
      <point x="249.0" y="1146.2127946127944"/>
      <point x="348.0" y="1070.2197131128637"/>
      <point x="385.0" y="1070.2197131128637" type="curve" smooth="yes"/>
      <point x="417.0" y="1070.2197131128637"/>
      <point x="520.0" y="1143.2326737696599"/>
      <point x="520.0" y="1176.7590332549235" type="curve" smooth="yes"/>
      <point x="520.0" y="1205.8152114754853"/>
      <point x="419.0" y="1285.5334440293343"/>
      <point x="385.0" y="1285.5334440293343" type="curve" smooth="yes"/>
      <point x="350.0" y="1285.5334440293343"/>
      <point x="249.0" y="1208.7953323186198"/>
    </contour>
    <contour>
      <point x="571.0" y="1208.7953323186198" type="curve" smooth="yes"/>
      <point x="571.0" y="1178.2490936764907"/>
      <point x="670.0" y="1102.25601217656"/>
      <point x="707.0" y="1102.25601217656" type="curve" smooth="yes"/>
      <point x="739.0" y="1102.25601217656"/>
      <point x="842.0" y="1175.2689728333562"/>
      <point x="842.0" y="1208.7953323186198" type="curve" smooth="yes"/>
      <point x="842.0" y="1237.8515105391816"/>
      <point x="741.0" y="1317.5697430930306"/>
      <point x="707.0" y="1317.5697430930306" type="curve" smooth="yes"/>
      <point x="672.0" y="1317.5697430930306"/>
      <point x="571.0" y="1240.8316313823161"/>
    </contour>
  </outline>
</glyph>
